<svg width="219" height="48" viewBox="0 0 219 48" fill="none" xmlns="http://www.w3.org/2000/svg">
<path fill-rule="evenodd" clip-rule="evenodd" d="M28.9254 0.0474871H34.4461C36.3371 0.0474438 37.928 0.0474066 39.2304 0.154856C40.5927 0.26725 41.8903 0.511532 43.1229 1.14573C45.0004 2.11177 46.5269 3.65324 47.4836 5.5492C48.1116 6.79388 48.3535 8.10424 48.4648 9.47988C48.5712 10.795 48.5712 12.4016 48.5711 14.3112V19.5989C48.5712 21.5085 48.5712 23.1151 48.4648 24.4302C48.3535 25.8058 48.1116 27.1162 47.4836 28.3609C46.5269 30.2568 45.0004 31.7983 43.1229 32.7643C41.8903 33.3985 40.5926 33.6428 39.2304 33.7552C37.928 33.8627 36.337 33.8626 34.446 33.8626H17.9596C16.8015 33.8626 15.7565 33.161 15.3084 32.0827C14.8603 31.0044 15.0966 29.7598 15.9079 28.9254L29.5224 14.9211L33.6258 18.989L24.8111 28.056H34.3309C36.3674 28.056 37.7219 28.0537 38.7621 27.9679C39.7688 27.8848 40.2255 27.7382 40.5123 27.5906C41.3079 27.1813 41.9547 26.5281 42.3601 25.7247C42.5062 25.435 42.6514 24.9739 42.7337 23.9574C42.8187 22.9069 42.8209 21.5391 42.8209 19.4826V14.4274C42.8209 12.3709 42.8187 11.0032 42.7337 9.95272C42.6514 8.93617 42.5062 8.47504 42.3601 8.18536C41.9547 7.38198 41.3079 6.72882 40.5123 6.31948C40.2255 6.17188 39.7688 6.02526 38.7621 5.9422C37.7219 5.85638 36.3674 5.85412 34.3309 5.85412H29.0414C26.9826 5.85412 25.6123 5.8564 24.5606 5.9436C23.5421 6.02805 23.0817 6.17715 22.7939 6.3266C21.9935 6.74213 21.3453 7.40469 20.9436 8.2179C20.7992 8.51037 20.6571 8.97707 20.5859 10.0065C20.5124 11.0695 20.5269 12.4531 20.552 14.532L20.5808 16.9196L14.831 16.9904L14.8007 14.4856C14.7774 12.5547 14.7577 10.9311 14.8497 9.60191C14.9458 8.21229 15.1752 6.88694 15.798 5.626C16.7461 3.70683 18.2758 2.14318 20.1646 1.16253C21.4056 0.518217 22.7152 0.27044 24.09 0.156446C25.4051 0.0474063 27.0131 0.0474434 28.9254 0.0474871Z" fill="url(#paint0_linear_30_561)"/>
<path fill-rule="evenodd" clip-rule="evenodd" d="M28.9254 0.0474871H34.4461C36.3371 0.0474438 37.928 0.0474066 39.2304 0.154856C40.5927 0.26725 41.8903 0.511532 43.1229 1.14573C45.0004 2.11177 46.5269 3.65324 47.4836 5.5492C48.1116 6.79388 48.3535 8.10424 48.4648 9.47988C48.5712 10.795 48.5712 12.4016 48.5711 14.3112V19.5989C48.5712 21.5085 48.5712 23.1151 48.4648 24.4302C48.3535 25.8058 48.1116 27.1162 47.4836 28.3609C46.5269 30.2568 45.0004 31.7983 43.1229 32.7643C41.8903 33.3985 40.5926 33.6428 39.2304 33.7552C37.928 33.8627 36.337 33.8626 34.446 33.8626H17.9596C16.8015 33.8626 15.7565 33.161 15.3084 32.0827C14.8603 31.0044 15.0966 29.7598 15.9079 28.9254L29.5224 14.9211L33.6258 18.989L24.8111 28.056H34.3309C36.3674 28.056 37.7219 28.0537 38.7621 27.9679C39.7688 27.8848 40.2255 27.7382 40.5123 27.5906C41.3079 27.1813 41.9547 26.5281 42.3601 25.7247C42.5062 25.435 42.6514 24.9739 42.7337 23.9574C42.8187 22.9069 42.8209 21.5391 42.8209 19.4826V14.4274C42.8209 12.3709 42.8187 11.0032 42.7337 9.95272C42.6514 8.93617 42.5062 8.47504 42.3601 8.18536C41.9547 7.38198 41.3079 6.72882 40.5123 6.31948C40.2255 6.17188 39.7688 6.02526 38.7621 5.9422C37.7219 5.85638 36.3674 5.85412 34.3309 5.85412H29.0414C26.9826 5.85412 25.6123 5.8564 24.5606 5.9436C23.5421 6.02805 23.0817 6.17715 22.7939 6.3266C21.9935 6.74213 21.3453 7.40469 20.9436 8.2179C20.7992 8.51037 20.6571 8.97707 20.5859 10.0065C20.5124 11.0695 20.5269 12.4531 20.552 14.532L20.5808 16.9196L14.831 16.9904L14.8007 14.4856C14.7774 12.5547 14.7577 10.9311 14.8497 9.60191C14.9458 8.21229 15.1752 6.88694 15.798 5.626C16.7461 3.70683 18.2758 2.14318 20.1646 1.16253C21.4056 0.518217 22.7152 0.27044 24.09 0.156446C25.4051 0.0474063 27.0131 0.0474434 28.9254 0.0474871Z" fill="url(#paint1_radial_30_561)"/>
<path fill-rule="evenodd" clip-rule="evenodd" d="M28.9254 0.0474871H34.4461C36.3371 0.0474438 37.928 0.0474066 39.2304 0.154856C40.5927 0.26725 41.8903 0.511532 43.1229 1.14573C45.0004 2.11177 46.5269 3.65324 47.4836 5.5492C48.1116 6.79388 48.3535 8.10424 48.4648 9.47988C48.5712 10.795 48.5712 12.4016 48.5711 14.3112V19.5989C48.5712 21.5085 48.5712 23.1151 48.4648 24.4302C48.3535 25.8058 48.1116 27.1162 47.4836 28.3609C46.5269 30.2568 45.0004 31.7983 43.1229 32.7643C41.8903 33.3985 40.5926 33.6428 39.2304 33.7552C37.928 33.8627 36.337 33.8626 34.446 33.8626H17.9596C16.8015 33.8626 15.7565 33.161 15.3084 32.0827C14.8603 31.0044 15.0966 29.7598 15.9079 28.9254L29.5224 14.9211L33.6258 18.989L24.8111 28.056H34.3309C36.3674 28.056 37.7219 28.0537 38.7621 27.9679C39.7688 27.8848 40.2255 27.7382 40.5123 27.5906C41.3079 27.1813 41.9547 26.5281 42.3601 25.7247C42.5062 25.435 42.6514 24.9739 42.7337 23.9574C42.8187 22.9069 42.8209 21.5391 42.8209 19.4826V14.4274C42.8209 12.3709 42.8187 11.0032 42.7337 9.95272C42.6514 8.93617 42.5062 8.47504 42.3601 8.18536C41.9547 7.38198 41.3079 6.72882 40.5123 6.31948C40.2255 6.17188 39.7688 6.02526 38.7621 5.9422C37.7219 5.85638 36.3674 5.85412 34.3309 5.85412H29.0414C26.9826 5.85412 25.6123 5.8564 24.5606 5.9436C23.5421 6.02805 23.0817 6.17715 22.7939 6.3266C21.9935 6.74213 21.3453 7.40469 20.9436 8.2179C20.7992 8.51037 20.6571 8.97707 20.5859 10.0065C20.5124 11.0695 20.5269 12.4531 20.552 14.532L20.5808 16.9196L14.831 16.9904L14.8007 14.4856C14.7774 12.5547 14.7577 10.9311 14.8497 9.60191C14.9458 8.21229 15.1752 6.88694 15.798 5.626C16.7461 3.70683 18.2758 2.14318 20.1646 1.16253C21.4056 0.518217 22.7152 0.27044 24.09 0.156446C25.4051 0.0474063 27.0131 0.0474434 28.9254 0.0474871Z" fill="url(#paint2_radial_30_561)"/>
<path fill-rule="evenodd" clip-rule="evenodd" d="M28.9254 0.0474871H34.4461C36.3371 0.0474438 37.928 0.0474066 39.2304 0.154856C40.5927 0.26725 41.8903 0.511532 43.1229 1.14573C45.0004 2.11177 46.5269 3.65324 47.4836 5.5492C48.1116 6.79388 48.3535 8.10424 48.4648 9.47988C48.5712 10.795 48.5712 12.4016 48.5711 14.3112V19.5989C48.5712 21.5085 48.5712 23.1151 48.4648 24.4302C48.3535 25.8058 48.1116 27.1162 47.4836 28.3609C46.5269 30.2568 45.0004 31.7983 43.1229 32.7643C41.8903 33.3985 40.5926 33.6428 39.2304 33.7552C37.928 33.8627 36.337 33.8626 34.446 33.8626H17.9596C16.8015 33.8626 15.7565 33.161 15.3084 32.0827C14.8603 31.0044 15.0966 29.7598 15.9079 28.9254L29.5224 14.9211L33.6258 18.989L24.8111 28.056H34.3309C36.3674 28.056 37.7219 28.0537 38.7621 27.9679C39.7688 27.8848 40.2255 27.7382 40.5123 27.5906C41.3079 27.1813 41.9547 26.5281 42.3601 25.7247C42.5062 25.435 42.6514 24.9739 42.7337 23.9574C42.8187 22.9069 42.8209 21.5391 42.8209 19.4826V14.4274C42.8209 12.3709 42.8187 11.0032 42.7337 9.95272C42.6514 8.93617 42.5062 8.47504 42.3601 8.18536C41.9547 7.38198 41.3079 6.72882 40.5123 6.31948C40.2255 6.17188 39.7688 6.02526 38.7621 5.9422C37.7219 5.85638 36.3674 5.85412 34.3309 5.85412H29.0414C26.9826 5.85412 25.6123 5.8564 24.5606 5.9436C23.5421 6.02805 23.0817 6.17715 22.7939 6.3266C21.9935 6.74213 21.3453 7.40469 20.9436 8.2179C20.7992 8.51037 20.6571 8.97707 20.5859 10.0065C20.5124 11.0695 20.5269 12.4531 20.552 14.532L20.5808 16.9196L14.831 16.9904L14.8007 14.4856C14.7774 12.5547 14.7577 10.9311 14.8497 9.60191C14.9458 8.21229 15.1752 6.88694 15.798 5.626C16.7461 3.70683 18.2758 2.14318 20.1646 1.16253C21.4056 0.518217 22.7152 0.27044 24.09 0.156446C25.4051 0.0474063 27.0131 0.0474434 28.9254 0.0474871Z" fill="url(#paint3_radial_30_561)"/>
<path fill-rule="evenodd" clip-rule="evenodd" d="M10.7716 41.9721C11.8118 42.0579 13.1663 42.0602 15.2028 42.0602H20.581C22.438 42.0602 23.673 42.0583 24.6243 41.9866C25.5463 41.9171 25.969 41.794 26.2338 41.6713C27.1538 41.2452 27.8919 40.4999 28.3139 39.5708C28.4354 39.3035 28.5573 38.8765 28.6261 37.9455C28.6971 36.9849 28.699 35.7378 28.699 33.8626H34.4492L34.4492 33.9685C34.4493 35.7099 34.4493 37.1752 34.3604 38.3778C34.2675 39.6344 34.0659 40.8353 33.5404 41.992C32.5444 44.1844 30.8026 45.9434 28.6314 46.9491C27.486 47.4797 26.2968 47.6833 25.0524 47.7771C23.8614 47.8669 22.4104 47.8669 20.6859 47.8668L15.0876 47.8668C13.1966 47.8669 11.6057 47.8669 10.3033 47.7595C8.94105 47.6471 7.64342 47.4028 6.41083 46.7686C4.53328 45.8025 3.00679 44.2611 2.05013 42.3651C1.42209 41.1204 1.18018 39.8101 1.06888 38.4344C0.962475 37.1193 0.962513 35.5127 0.962555 33.6031V28.3154C0.962513 26.4058 0.962475 24.7992 1.06888 23.4841C1.18018 22.1085 1.42209 20.7981 2.05013 19.5534C3.00679 17.6575 4.53328 16.116 6.41083 15.15C7.64342 14.5158 8.94105 14.2715 10.3033 14.1591C11.6057 14.0516 13.1967 14.0517 15.0877 14.0517H31.5741C33.162 14.0517 34.4492 15.3516 34.4492 16.955C34.4492 18.5585 33.162 19.8583 31.5741 19.8583H15.2028C13.1663 19.8583 11.8118 19.8606 10.7716 19.9464C9.7649 20.0295 9.30825 20.1761 9.02138 20.3237C8.22581 20.733 7.57899 21.3862 7.17363 22.1896C7.02746 22.4793 6.88227 22.9404 6.80002 23.9569C6.71502 25.0074 6.71279 26.3752 6.71279 28.4317V33.4869C6.71279 35.5434 6.71502 36.9111 6.80002 37.9616C6.88227 38.9781 7.02746 39.4393 7.17363 39.729C7.57899 40.5323 8.22581 41.1855 9.02138 41.5948C9.30825 41.7424 9.7649 41.889 10.7716 41.9721Z" fill="url(#paint4_linear_30_561)"/>
<path fill-rule="evenodd" clip-rule="evenodd" d="M10.7716 41.9721C11.8118 42.0579 13.1663 42.0602 15.2028 42.0602H20.581C22.438 42.0602 23.673 42.0583 24.6243 41.9866C25.5463 41.9171 25.969 41.794 26.2338 41.6713C27.1538 41.2452 27.8919 40.4999 28.3139 39.5708C28.4354 39.3035 28.5573 38.8765 28.6261 37.9455C28.6971 36.9849 28.699 35.7378 28.699 33.8626H34.4492L34.4492 33.9685C34.4493 35.7099 34.4493 37.1752 34.3604 38.3778C34.2675 39.6344 34.0659 40.8353 33.5404 41.992C32.5444 44.1844 30.8026 45.9434 28.6314 46.9491C27.486 47.4797 26.2968 47.6833 25.0524 47.7771C23.8614 47.8669 22.4104 47.8669 20.6859 47.8668L15.0876 47.8668C13.1966 47.8669 11.6057 47.8669 10.3033 47.7595C8.94105 47.6471 7.64342 47.4028 6.41083 46.7686C4.53328 45.8025 3.00679 44.2611 2.05013 42.3651C1.42209 41.1204 1.18018 39.8101 1.06888 38.4344C0.962475 37.1193 0.962513 35.5127 0.962555 33.6031V28.3154C0.962513 26.4058 0.962475 24.7992 1.06888 23.4841C1.18018 22.1085 1.42209 20.7981 2.05013 19.5534C3.00679 17.6575 4.53328 16.116 6.41083 15.15C7.64342 14.5158 8.94105 14.2715 10.3033 14.1591C11.6057 14.0516 13.1967 14.0517 15.0877 14.0517H31.5741C33.162 14.0517 34.4492 15.3516 34.4492 16.955C34.4492 18.5585 33.162 19.8583 31.5741 19.8583H15.2028C13.1663 19.8583 11.8118 19.8606 10.7716 19.9464C9.7649 20.0295 9.30825 20.1761 9.02138 20.3237C8.22581 20.733 7.57899 21.3862 7.17363 22.1896C7.02746 22.4793 6.88227 22.9404 6.80002 23.9569C6.71502 25.0074 6.71279 26.3752 6.71279 28.4317V33.4869C6.71279 35.5434 6.71502 36.9111 6.80002 37.9616C6.88227 38.9781 7.02746 39.4393 7.17363 39.729C7.57899 40.5323 8.22581 41.1855 9.02138 41.5948C9.30825 41.7424 9.7649 41.889 10.7716 41.9721Z" fill="url(#paint5_radial_30_561)"/>
<path d="M78.3399 32.1516V35.1122C78.3399 35.5347 77.9984 35.8798 77.5775 35.8798H61.299C61.2766 35.8798 61.2517 35.8798 61.2293 35.8773C60.4124 35.8547 59.6944 35.4322 59.2608 34.7973C59.2583 34.7922 59.2561 34.7871 59.2511 34.7823C59.053 34.447 58.9392 34.0547 58.9392 33.6319C58.9392 33.1645 59.0802 32.7343 59.3204 32.3742C59.3403 32.3442 59.3602 32.3143 59.3822 32.2866L71.7435 15.006H60.6725C60.2541 15.006 59.9123 14.6608 59.9123 14.2357V11.2777C59.9123 10.8527 60.2541 10.5075 60.6725 10.5075H76.1882C76.2056 10.5075 76.2229 10.5075 76.2402 10.51C76.245 10.51 76.2525 10.5075 76.2601 10.51C77.1045 10.5326 77.8449 10.9877 78.2706 11.6652C78.2756 11.6729 78.2781 11.6776 78.2807 11.6827C78.4538 12.0027 78.5502 12.368 78.5502 12.7555C78.5502 13.2203 78.4093 13.653 78.169 14.0132C78.1495 14.0431 78.1296 14.0708 78.1072 14.1007L65.7437 31.3839H77.5775C77.9984 31.3839 78.3399 31.7291 78.3399 32.1516Z" fill="white"/>
<path d="M88.7524 32.0767C85.9641 32.0767 83.9363 29.8838 83.9363 26.8507C83.9363 23.78 85.9641 21.5871 88.7524 21.5871C91.5379 21.5871 93.5288 23.78 93.5288 26.8507C93.5288 29.8838 91.5379 32.0767 88.7524 32.0767ZM97.4759 17.8213H94.2915C93.8706 17.8213 93.5288 18.1664 93.5288 18.5893V20.707C92.0828 18.6616 89.8393 17.4538 87.2319 17.4538C82.5249 17.4538 79.0854 21.4046 79.0854 26.8507C79.0854 32.2967 82.5249 36.21 87.2319 36.21C89.8393 36.21 92.0828 35.0048 93.5288 32.9918V35.0748C93.5288 35.5197 93.8879 35.8798 94.3262 35.8798H97.4759C97.9167 35.8798 98.2733 35.5197 98.2733 35.0748V18.624C98.2733 18.1814 97.9167 17.8213 97.4759 17.8213Z" fill="white"/>
<path d="M112.476 17.4545C110.013 17.4545 107.985 18.6243 106.827 20.5631V18.5886C106.827 18.0769 106.538 17.8209 106.067 17.8209H102.88C102.41 17.8209 102.122 18.0769 102.122 18.5886V35.0758C102.122 35.5875 102.41 35.8807 102.88 35.8807H106.067C106.538 35.8807 106.827 35.5875 106.827 35.0758V25.2784C106.827 22.8655 108.348 21.2572 110.628 21.2572C112.837 21.2572 114.321 22.8655 114.321 25.2784V35.0758C114.321 35.5203 114.678 35.8807 115.117 35.8807H118.268C118.707 35.8807 119.064 35.5203 119.064 35.0758V24.5846C119.064 20.379 116.348 17.4545 112.476 17.4545Z" fill="white"/>
<path d="M131.36 32.0767C128.572 32.0767 126.584 29.8838 126.584 26.8507C126.584 23.78 128.572 21.5871 131.36 21.5871C134.185 21.5871 136.176 23.78 136.176 26.8507C136.176 29.8838 134.185 32.0767 131.36 32.0767ZM131.397 17.4538C125.786 17.4538 121.73 21.4046 121.73 26.8507C121.73 32.2967 125.786 36.21 131.397 36.21C136.974 36.21 141.028 32.2967 141.028 26.8507C141.028 21.4046 136.974 17.4538 131.397 17.4538Z" fill="white"/>
<path d="M162.928 10.47C165.616 10.47 167.713 11.2223 169.218 12.727C170.747 14.207 171.512 16.1063 171.512 18.425C171.512 20.7437 170.747 22.6553 169.218 24.16C167.713 25.6647 165.616 26.417 162.928 26.417H156.157V35.556C156.157 35.852 156.009 36 155.713 36H153.789C153.493 36 153.345 35.852 153.345 35.556V10.914C153.345 10.618 153.493 10.47 153.789 10.47H162.928ZM162.706 23.753C164.556 23.753 165.999 23.272 167.035 22.31C168.071 21.3233 168.589 20.0283 168.589 18.425C168.589 16.8217 168.071 15.539 167.035 14.577C165.999 13.615 164.556 13.134 162.706 13.134H156.157V23.753H162.706Z" fill="white"/>
<path d="M179.52 33.336H194.135C194.431 33.336 194.579 33.484 194.579 33.78V35.556C194.579 35.852 194.431 36 194.135 36H175.672C175.376 36 175.228 35.852 175.228 35.556L175.191 33.817C175.191 33.595 175.277 33.41 175.45 33.262L182.443 27.675C183.578 26.7377 184.503 25.936 185.218 25.27C185.933 24.5793 186.636 23.8147 187.327 22.976C188.018 22.1127 188.523 21.237 188.844 20.349C189.165 19.461 189.325 18.5237 189.325 17.537C189.325 16.131 188.856 14.9717 187.919 14.059C187.006 13.1463 185.662 12.69 183.886 12.69C182.209 12.69 180.692 13.1217 179.335 13.985C178.003 14.8237 176.942 15.8967 176.153 17.204C175.98 17.4507 175.771 17.4753 175.524 17.278L174.044 15.983C173.847 15.7857 173.81 15.5883 173.933 15.391C175.043 13.8617 176.437 12.579 178.114 11.543C179.791 10.507 181.715 9.989 183.886 9.989C186.427 9.989 188.462 10.6797 189.991 12.061C191.52 13.4177 192.285 15.243 192.285 17.537C192.285 19.683 191.631 21.6563 190.324 23.457C189.041 25.2577 186.969 27.3173 184.108 29.636L179.52 33.336Z" fill="white"/>
<path d="M209.756 10.47C212.445 10.47 214.541 11.2223 216.046 12.727C217.575 14.207 218.34 16.1063 218.34 18.425C218.34 20.7437 217.575 22.6553 216.046 24.16C214.541 25.6647 212.445 26.417 209.756 26.417H202.985V35.556C202.985 35.852 202.837 36 202.541 36H200.617C200.321 36 200.173 35.852 200.173 35.556V10.914C200.173 10.618 200.321 10.47 200.617 10.47H209.756ZM209.534 23.753C211.384 23.753 212.827 23.272 213.863 22.31C214.899 21.3233 215.417 20.0283 215.417 18.425C215.417 16.8217 214.899 15.539 213.863 14.577C212.827 13.615 211.384 13.134 209.534 13.134H202.985V23.753H209.534Z" fill="white"/>
<defs>
<linearGradient id="paint0_linear_30_561" x1="23.6471" y1="33.6" x2="24.0312" y2="0.00441619" gradientUnits="userSpaceOnUse">
<stop offset="0.43118" stop-color="#498FFD"/>
<stop offset="1" stop-color="#16D1D6"/>
</linearGradient>
<radialGradient id="paint1_radial_30_561" cx="0" cy="0" r="1" gradientUnits="userSpaceOnUse" gradientTransform="translate(14.3824 10.2857) rotate(-15.5604) scale(21.7277 21.6787)">
<stop stop-color="#18CFD7"/>
<stop offset="1" stop-color="#18CFD7" stop-opacity="0"/>
</radialGradient>
<radialGradient id="paint2_radial_30_561" cx="0" cy="0" r="1" gradientUnits="userSpaceOnUse" gradientTransform="translate(27.0784 19.8857) rotate(152.373) scale(8.13317 8.11669)">
<stop stop-color="#4990FE"/>
<stop offset="0.353962" stop-color="#4990FE"/>
<stop offset="1" stop-color="#4990FE" stop-opacity="0"/>
</radialGradient>
<radialGradient id="paint3_radial_30_561" cx="0" cy="0" r="1" gradientUnits="userSpaceOnUse" gradientTransform="translate(17.1275 30.8572) rotate(-45.9158) scale(14.7965 14.7738)">
<stop stop-color="#4990FE"/>
<stop offset="0.405688" stop-color="#4990FE"/>
<stop offset="1" stop-color="#4990FE" stop-opacity="0"/>
</radialGradient>
<linearGradient id="paint4_linear_30_561" x1="34.6274" y1="48" x2="34.7509" y2="13.7147" gradientUnits="userSpaceOnUse">
<stop stop-color="#2950FF"/>
<stop offset="0.821717" stop-color="#498FFD"/>
</linearGradient>
<radialGradient id="paint5_radial_30_561" cx="0" cy="0" r="1" gradientUnits="userSpaceOnUse" gradientTransform="translate(34.6274 33.6) rotate(129.312) scale(14.6235 14.472)">
<stop offset="0.337169" stop-color="#2950FF"/>
<stop offset="0.792226" stop-color="#2950FF" stop-opacity="0"/>
</radialGradient>
</defs>
</svg>
