<svg width="18" height="18" viewBox="0 0 18 18" fill="none" xmlns="http://www.w3.org/2000/svg">
<g clip-path="url(#clip0_31_643)">
<path d="M17.7306 11.1773C16.5284 15.9987 11.6445 18.933 6.82192 17.7307C2.00135 16.5287 -0.933233 11.645 0.269445 6.8239C1.47107 2.00189 6.35499 -0.932582 11.1761 0.269433C15.9983 1.47145 18.9327 6.35566 17.7304 11.1774L17.7305 11.1773H17.7306Z" fill="#F7931A"/>
<path d="M12.9691 7.71772C13.1482 6.52002 12.2363 5.87621 10.9892 5.44672L11.3938 3.82433L10.4061 3.57824L10.0123 5.15792C9.75259 5.09316 9.48593 5.03215 9.2209 4.97166L9.61757 3.38155L8.63047 3.13547L8.22571 4.75733C8.01083 4.70842 7.79978 4.66007 7.59502 4.60913L7.59617 4.60402L6.23409 4.26393L5.97135 5.31875C5.97135 5.31875 6.70415 5.48671 6.6887 5.49705C7.08867 5.59686 7.161 5.8616 7.14899 6.07144L6.68818 7.91973C6.71572 7.92672 6.75144 7.93684 6.79086 7.95268C6.75791 7.9445 6.72285 7.93557 6.68646 7.92686L6.04055 10.516C5.99167 10.6375 5.8676 10.8199 5.58797 10.7506C5.59786 10.765 4.87008 10.5715 4.87008 10.5715L4.3797 11.702L5.66505 12.0224C5.90417 12.0823 6.13849 12.1451 6.36925 12.2041L5.96052 13.8451L6.94709 14.0912L7.35186 12.4676C7.62138 12.5407 7.88294 12.6082 8.13899 12.6718L7.73559 14.2878L8.72335 14.5338L9.13203 12.8959C10.8163 13.2146 12.0827 13.0861 12.6158 11.5629C13.0453 10.3365 12.5944 9.62914 11.7083 9.16785C12.3537 9.01902 12.8398 8.5946 12.9694 7.71785L12.9691 7.71763L12.9691 7.71772ZM10.7124 10.8818C10.4071 12.1082 8.34203 11.4453 7.6725 11.279L8.21489 9.10498C8.88438 9.27211 11.0314 9.60283 10.7124 10.8818H10.7124ZM11.0178 7.69995C10.7394 8.81548 9.02059 8.24874 8.46302 8.10977L8.95477 6.13804C9.51233 6.27701 11.3079 6.53638 11.0179 7.69995H11.0178Z" fill="white"/>
</g>
<defs>
<clipPath id="clip0_31_643">
<rect width="18" height="18" fill="white"/>
</clipPath>
</defs>
</svg>
