<svg width="18" height="18" viewBox="0 0 18 18" fill="none" xmlns="http://www.w3.org/2000/svg">
<g clip-path="url(#clip0_356_923)">
<circle cx="9" cy="9" r="9" fill="#1F8FEB"/>
<path d="M8.68118 15V3H9.45057V15H8.68118ZM10.7219 6.96094C10.6844 6.58281 10.5233 6.28906 10.2387 6.07969C9.9541 5.87031 9.56785 5.76563 9.07995 5.76563C8.74843 5.76563 8.46851 5.8125 8.2402 5.90625C8.01188 5.99688 7.83674 6.12344 7.71476 6.28594C7.59592 6.44844 7.53649 6.63281 7.53649 6.83906C7.53024 7.01094 7.5662 7.16094 7.64439 7.28906C7.72571 7.41719 7.83674 7.52813 7.97748 7.62188C8.11822 7.7125 8.28085 7.79219 8.46538 7.86094C8.64991 7.92656 8.84694 7.98281 9.05649 8.02969L9.9197 8.23594C10.3388 8.32969 10.7235 8.45469 11.0738 8.61094C11.4241 8.76719 11.7274 8.95937 11.9839 9.1875C12.2404 9.41563 12.439 9.68438 12.5797 9.99375C12.7236 10.3031 12.7971 10.6578 12.8002 11.0578C12.7971 11.6453 12.6469 12.1547 12.3498 12.5859C12.0558 13.0141 11.6305 13.3469 11.0738 13.5844C10.5202 13.8188 9.85246 13.9359 9.07057 13.9359C8.29493 13.9359 7.61937 13.8172 7.0439 13.5797C6.47155 13.3422 6.02431 12.9906 5.70217 12.525C5.38316 12.0563 5.21583 11.4766 5.2002 10.7859H7.16587C7.18777 11.1078 7.28003 11.3766 7.44266 11.5922C7.60843 11.8047 7.82892 11.9656 8.10415 12.075C8.3825 12.1813 8.69682 12.2344 9.04711 12.2344C9.39114 12.2344 9.68983 12.1844 9.94316 12.0844C10.1996 11.9844 10.3982 11.8453 10.539 11.6672C10.6797 11.4891 10.7501 11.2844 10.7501 11.0531C10.7501 10.8375 10.686 10.6563 10.5577 10.5094C10.4326 10.3625 10.2481 10.2375 10.0041 10.1344C9.76332 10.0312 9.46777 9.9375 9.11748 9.85313L8.07131 9.59063C7.26127 9.39375 6.62168 9.08594 6.15254 8.66719C5.68341 8.24844 5.4504 7.68438 5.45353 6.975C5.4504 6.39375 5.60522 5.88594 5.91797 5.45156C6.23386 5.01719 6.66703 4.67813 7.21748 4.43438C7.76793 4.19063 8.39345 4.06875 9.09402 4.06875C9.80711 4.06875 10.4295 4.19063 10.9612 4.43438C11.496 4.67813 11.912 5.01719 12.2091 5.45156C12.5062 5.88594 12.6595 6.38906 12.6688 6.96094H10.7219Z" fill="white"/>
</g>
<defs>
<clipPath id="clip0_356_923">
<rect width="18" height="18" fill="white"/>
</clipPath>
</defs>
</svg>
