<svg width="18" height="18" viewBox="0 0 18 18" fill="none" xmlns="http://www.w3.org/2000/svg">
<g clip-path="url(#clip0_356_930)">
<circle cx="9" cy="9" r="9" fill="#1F8FEB"/>
<path d="M10.7736 7.48384L10.3066 8.52471H4L4.38208 7.48384H10.7736ZM9.87264 9.47529L9.35849 10.5399H4L4.38208 9.47529H9.87264ZM12 4.88403L11.2453 6.50951C11.1195 6.42079 10.967 6.32414 10.7877 6.21958C10.6116 6.11185 10.4088 6.02155 10.1792 5.94867C9.95283 5.87262 9.70126 5.8346 9.42453 5.8346C8.98742 5.8346 8.60692 5.9455 8.28302 6.1673C7.95912 6.3891 7.70755 6.73447 7.5283 7.20342C7.3522 7.67237 7.26415 8.2744 7.26415 9.00951C7.26415 9.75095 7.3522 10.3546 7.5283 10.8203C7.70755 11.283 7.95912 11.6236 8.28302 11.8422C8.60692 12.0577 8.98742 12.1654 9.42453 12.1654C9.70126 12.1654 9.95283 12.129 10.1792 12.0561C10.4057 11.9832 10.6038 11.8961 10.7736 11.7947C10.9465 11.6933 11.0912 11.5998 11.2075 11.5143L11.9717 13.1397C11.6289 13.4249 11.2406 13.6404 10.8066 13.7861C10.3726 13.9287 9.91195 14 9.42453 14C8.60063 14 7.87107 13.8035 7.23585 13.4106C6.60377 13.0146 6.10849 12.4458 5.75 11.7044C5.39151 10.9598 5.21226 10.0615 5.21226 9.00951C5.21226 7.96071 5.39151 7.06242 5.75 6.31464C6.10849 5.56686 6.60377 4.99493 7.23585 4.59886C7.87107 4.19962 8.60063 4 9.42453 4C9.93082 4 10.3994 4.07605 10.8302 4.22814C11.261 4.38023 11.6509 4.59886 12 4.88403Z" fill="white"/>
</g>
<defs>
<clipPath id="clip0_356_930">
<rect width="18" height="18" fill="white"/>
</clipPath>
</defs>
</svg>
