<svg width="18" height="18" viewBox="0 0 18 18" fill="none" xmlns="http://www.w3.org/2000/svg">
<g clip-path="url(#clip0_35_1723)">
<path d="M8.99444 17.9827C13.9555 17.9827 17.9772 13.961 17.9772 8.99999C17.9772 4.03897 13.9555 0.0172729 8.99444 0.0172729C4.03342 0.0172729 0.0117188 4.03897 0.0117188 8.99999C0.0117188 13.961 4.03342 17.9827 8.99444 17.9827Z" fill="#FEFEFE"/>
<path d="M5.28336 12.942C5.49144 12.942 5.688 12.8261 5.78016 12.641L7.10424 10.1268H5.058C4.74624 10.1268 4.49712 9.87263 4.49712 9.56591V8.43839C4.49712 8.12591 4.75128 7.87751 5.058 7.87751H8.29512L10.8094 3.11471C10.908 2.92967 11.0988 2.81447 11.3062 2.81447H15.5434C13.9018 1.07999 11.5841 -0.000732422 9.00576 -0.000732422C4.03488 -1.24218e-05 0 4.02911 0 9.00575C0 10.4162 0.324 11.7576 0.9072 12.9477H5.28264L5.28336 12.942Z" fill="#9B1C2E"/>
<path d="M12.7165 5.05801C12.5085 5.05801 12.3119 5.17321 12.2197 5.35825L10.8964 7.87249H12.9426C13.2544 7.87249 13.5035 8.12665 13.5035 8.43337V9.56089C13.5035 9.87337 13.2493 10.1218 12.9426 10.1218H9.7055L7.19126 14.8846C7.09262 15.0696 6.90254 15.1848 6.69446 15.1848H2.45654C4.09814 16.9193 6.41582 18 8.99414 18C13.965 18 17.9999 13.9709 17.9999 8.99425C17.9999 7.58377 17.6759 6.24241 17.0927 5.05225H12.7173L12.7165 5.05801Z" fill="#9B1C2E"/>
</g>
<defs>
<clipPath id="clip0_35_1723">
<rect width="18" height="18" fill="white"/>
</clipPath>
</defs>
</svg>
