<svg width="42" height="42" viewBox="0 0 42 42" fill="none" xmlns="http://www.w3.org/2000/svg">
<path fill-rule="evenodd" clip-rule="evenodd" d="M24.5196 0.851564H29.1924C30.7929 0.851527 32.1395 0.851496 33.2418 0.942042C34.3949 1.03675 35.4932 1.2426 36.5365 1.77703C38.1256 2.59109 39.4177 3.89005 40.2274 5.48773C40.759 6.5366 40.9637 7.6408 41.0579 8.80002C41.148 9.90826 41.148 11.2621 41.1479 12.8712V17.3271C41.148 18.9362 41.148 20.2901 41.0579 21.3983C40.9637 22.5575 40.759 23.6617 40.2274 24.7106C39.4177 26.3083 38.1256 27.6073 36.5365 28.4213C35.4932 28.9557 34.3949 29.1616 33.2418 29.2563C32.1395 29.3469 30.7928 29.3468 29.1923 29.3468H15.238C14.2578 29.3468 13.3733 28.7556 12.9941 27.8469C12.6148 26.9382 12.8148 25.8895 13.5015 25.1863L25.0249 13.3852L28.4981 16.8131L21.0372 24.4537H29.0948C30.8186 24.4537 31.965 24.4518 32.8455 24.3794C33.6975 24.3095 34.0841 24.1859 34.3269 24.0615C35.0002 23.7166 35.5477 23.1662 35.8908 22.4892C36.0145 22.2451 36.1374 21.8565 36.207 20.9999C36.279 20.1147 36.2809 18.9621 36.2809 17.2291V12.9692C36.2809 11.2363 36.279 10.0837 36.207 9.19848C36.1374 8.34185 36.0145 7.95327 35.8908 7.70916C35.5477 7.03218 35.0002 6.48177 34.3269 6.13683C34.0841 6.01245 33.6975 5.8889 32.8455 5.81891C31.965 5.74659 30.8186 5.74468 29.0948 5.74468H24.6178C22.8751 5.74468 21.7153 5.74661 20.8252 5.82009C19.9631 5.89125 19.5734 6.01689 19.3298 6.14283C18.6524 6.49298 18.1038 7.05131 17.7638 7.73658C17.6415 7.98304 17.5213 8.37632 17.461 9.24378C17.3988 10.1395 17.411 11.3055 17.4322 13.0573L17.4567 15.0693L12.59 15.129L12.5644 13.0183C12.5446 11.3911 12.528 10.023 12.6058 8.90286C12.6871 7.73185 12.8813 6.61501 13.4085 5.55245C14.2109 3.93521 15.5056 2.61755 17.1044 1.79118C18.1548 1.24824 19.2632 1.03944 20.4269 0.943381C21.54 0.851496 22.901 0.851527 24.5196 0.851564Z" fill="white"/>
<path fill-rule="evenodd" clip-rule="evenodd" d="M9.15336 36.1801C10.0338 36.2524 11.1803 36.2543 12.904 36.2543H17.4562C19.0279 36.2543 20.0732 36.2528 20.8784 36.1923C21.6588 36.1337 22.0166 36.03 22.2407 35.9267C23.0194 35.5675 23.6441 34.9395 24.0013 34.1566C24.1042 33.9313 24.2073 33.5716 24.2656 32.787C24.3257 31.9775 24.3273 30.9266 24.3273 29.3464H29.1943L29.1943 29.4357C29.1944 30.9031 29.1944 32.1379 29.1191 33.1513C29.0405 34.2102 28.8699 35.2222 28.4251 36.1969C27.5821 38.0444 26.1078 39.5266 24.2701 40.3741C23.3006 40.8213 22.294 40.9928 21.2408 41.0719C20.2327 41.1475 19.0046 41.1475 17.545 41.1475L12.8065 41.1475C11.206 41.1475 9.85934 41.1475 8.75703 41.057C7.60398 40.9623 6.50566 40.7564 5.46238 40.222C3.87321 39.4079 2.58117 38.109 1.77145 36.5113C1.23987 35.4624 1.03511 34.3582 0.940907 33.199C0.850843 32.0908 0.850876 30.7369 0.850912 29.1278V24.6719C0.850876 23.0628 0.850843 21.7089 0.940907 20.6007C1.03511 19.4415 1.23987 18.3373 1.77145 17.2884C2.58117 15.6907 3.87321 14.3918 5.46238 13.5777C6.50566 13.0433 7.60398 12.8374 8.75703 12.7427C9.85936 12.6522 11.206 12.6522 12.8066 12.6522H26.7608C28.1048 12.6522 29.1943 13.7476 29.1943 15.0988C29.1943 16.45 28.1048 17.5454 26.7608 17.5454H12.904C11.1803 17.5454 10.0338 17.5473 9.15336 17.6196C8.3013 17.6896 7.91479 17.8131 7.67198 17.9375C6.9986 18.2824 6.45112 18.8329 6.10802 19.5098C5.9843 19.7539 5.86141 20.1425 5.7918 20.9992C5.71986 21.8843 5.71796 23.0369 5.71796 24.7699V29.0298C5.71796 30.7628 5.71986 31.9154 5.7918 32.8005C5.86141 33.6572 5.9843 34.0458 6.10802 34.2899C6.45112 34.9668 6.9986 35.5173 7.67198 35.8622C7.91479 35.9866 8.3013 36.1101 9.15336 36.1801Z" fill="white"/>
</svg>
