<svg width="30" height="30" viewBox="0 0 30 30" fill="none" xmlns="http://www.w3.org/2000/svg">
<path d="M25.0036 12.2123C25.451 9.22342 23.1735 7.61681 20.0593 6.54503L21.0695 2.49638L18.6029 1.88227L17.6194 5.82433C16.9709 5.66274 16.305 5.51047 15.6431 5.35953L16.6337 1.39145L14.1686 0.777344L13.1578 4.82468C12.6212 4.70261 12.0941 4.58196 11.5827 4.45484L11.5856 4.4421L8.18403 3.5934L7.52787 6.22569C7.52787 6.22569 9.35792 6.64482 9.31936 6.67062C10.3182 6.91971 10.4988 7.58036 10.4689 8.10401L9.31804 12.7164C9.38682 12.7338 9.47603 12.7591 9.57448 12.7986C9.49219 12.7782 9.40462 12.7559 9.31375 12.7342L7.7007 19.1954C7.57863 19.4986 7.26879 19.9537 6.57043 19.7809C6.59515 19.8167 4.77763 19.3339 4.77763 19.3339L3.55298 22.155L6.76293 22.9545C7.36009 23.1041 7.94528 23.2607 8.52157 23.4079L7.50084 27.503L9.96464 28.1171L10.9755 24.0655C11.6486 24.248 12.3018 24.4164 12.9412 24.5752L11.9338 28.6077L14.4006 29.2218L15.4212 25.1344C19.6273 25.9297 22.7901 25.6091 24.1213 21.8079C25.194 18.7474 24.0679 16.9822 21.855 15.831C23.4668 15.4597 24.6808 14.4005 25.0044 12.2126L25.0037 12.2121L25.0036 12.2123ZM19.3678 20.1082C18.6055 23.1687 13.4483 21.5143 11.7762 21.0994L13.1308 15.6742C14.8027 16.0912 20.1645 16.9165 19.3679 20.1082H19.3678ZM20.1307 12.1679C19.4353 14.9517 15.1429 13.5374 13.7504 13.1906L14.9785 8.27021C16.3709 8.617 20.8551 9.26426 20.1309 12.1679H20.1307Z" fill="white"/>
</svg>
