<svg width="18" height="18" viewBox="0 0 18 18" fill="none" xmlns="http://www.w3.org/2000/svg">
<g clip-path="url(#clip0_35_1703)">
<path d="M17.9977 8.99911C17.9977 13.969 13.9691 17.9982 8.99883 17.9982C4.02858 17.9982 0 13.969 0 8.99911C0 4.0292 4.02868 0 8.99883 0C13.969 0 17.9977 4.02882 17.9977 8.99911Z" fill="white"/>
<path d="M8.99885 0C4.03038 0 -0.00534107 4.0349 0.000983987 8.99883C0.00222983 9.99195 0.160596 10.9473 0.457825 11.8409H3.15019V4.27061L8.99885 10.1192L14.8472 4.27061V11.841H17.5402C17.8378 10.9475 17.9954 9.99215 17.9972 8.99897C18.0056 4.02987 13.9679 0.00119793 8.99885 0.00119793V0Z" fill="#F26822"/>
<path d="M7.65382 11.4638L5.10142 8.91125V13.6749H3.15L1.30859 13.6752C2.88808 16.2666 5.7426 18 8.99885 18C12.2551 18 15.1098 16.2662 16.6895 13.6748H12.8957V8.91125L10.3432 11.4638L8.99856 12.8084L7.65392 11.4638H7.65382Z" fill="#4D4D4D"/>
</g>
<defs>
<clipPath id="clip0_35_1703">
<rect width="17.9981" height="18" fill="white"/>
</clipPath>
</defs>
</svg>
