<svg width="18" height="18" viewBox="0 0 18 18" fill="none" xmlns="http://www.w3.org/2000/svg">
<g clip-path="url(#clip0_30_630)">
<path fill-rule="evenodd" clip-rule="evenodd" d="M10.5936 6.55123e-07H12.6717C13.3835 -1.56574e-05 13.9824 -2.96388e-05 14.4726 0.0404162C14.9854 0.0827233 15.4738 0.174675 15.9378 0.413398C16.6445 0.777032 17.2191 1.35727 17.5792 2.07094C17.8156 2.53946 17.9067 3.0327 17.9486 3.55051C17.9886 4.04555 17.9886 4.6503 17.9886 5.36909V7.35949C17.9886 8.07827 17.9886 8.68302 17.9486 9.17806C17.9067 9.69588 17.8156 10.1891 17.5792 10.6576C17.2191 11.3713 16.6445 11.9515 15.9378 12.3152C15.4738 12.5539 14.9854 12.6458 14.4726 12.6882C13.9824 12.7286 13.3835 12.7286 12.6717 12.7286H6.46591C6.03 12.7286 5.63664 12.4645 5.46797 12.0586C5.2993 11.6527 5.38824 11.1842 5.69362 10.8701L10.8184 5.59868L12.3629 7.12989L9.04494 10.5429H12.6283C13.3949 10.5429 13.9048 10.542 14.2963 10.5097C14.6753 10.4784 14.8472 10.4232 14.9551 10.3677C15.2546 10.2136 15.4981 9.96774 15.6507 9.66534C15.7057 9.5563 15.7603 9.38272 15.7913 9.00008C15.8233 8.60467 15.8241 8.08982 15.8241 7.31572V5.41286C15.8241 4.63875 15.8233 4.1239 15.7913 3.7285C15.7603 3.34585 15.7057 3.17227 15.6507 3.06323C15.4981 2.76083 15.2546 2.51497 14.9551 2.36088C14.8472 2.30532 14.6753 2.25013 14.2963 2.21887C13.9048 2.18657 13.3949 2.18572 12.6283 2.18572H10.6373C9.86231 2.18572 9.34651 2.18657 8.95064 2.2194C8.56727 2.25118 8.39397 2.30731 8.28562 2.36356C7.98435 2.51997 7.74037 2.76938 7.58916 3.07548C7.53478 3.18557 7.48131 3.36124 7.45451 3.74873C7.42684 4.14886 7.43228 4.66969 7.44173 5.45221L7.45258 6.35096L5.28826 6.37761L5.27687 5.43476C5.26808 4.70793 5.26068 4.09679 5.29529 3.59644C5.33147 3.07337 5.41781 2.57448 5.65227 2.09985C6.00912 1.37744 6.58493 0.788853 7.29591 0.41972C7.76305 0.177191 8.25599 0.0839239 8.77351 0.0410147C9.26854 -2.97658e-05 9.87379 -1.57868e-05 10.5936 6.55123e-07Z" fill="url(#paint0_linear_30_630)"/>
<path fill-rule="evenodd" clip-rule="evenodd" d="M10.5936 6.55123e-07H12.6717C13.3835 -1.56574e-05 13.9824 -2.96388e-05 14.4726 0.0404162C14.9854 0.0827233 15.4738 0.174675 15.9378 0.413398C16.6445 0.777032 17.2191 1.35727 17.5792 2.07094C17.8156 2.53946 17.9067 3.0327 17.9486 3.55051C17.9886 4.04555 17.9886 4.6503 17.9886 5.36909V7.35949C17.9886 8.07827 17.9886 8.68302 17.9486 9.17806C17.9067 9.69588 17.8156 10.1891 17.5792 10.6576C17.2191 11.3713 16.6445 11.9515 15.9378 12.3152C15.4738 12.5539 14.9854 12.6458 14.4726 12.6882C13.9824 12.7286 13.3835 12.7286 12.6717 12.7286H6.46591C6.03 12.7286 5.63664 12.4645 5.46797 12.0586C5.2993 11.6527 5.38824 11.1842 5.69362 10.8701L10.8184 5.59868L12.3629 7.12989L9.04494 10.5429H12.6283C13.3949 10.5429 13.9048 10.542 14.2963 10.5097C14.6753 10.4784 14.8472 10.4232 14.9551 10.3677C15.2546 10.2136 15.4981 9.96774 15.6507 9.66534C15.7057 9.5563 15.7603 9.38272 15.7913 9.00008C15.8233 8.60467 15.8241 8.08982 15.8241 7.31572V5.41286C15.8241 4.63875 15.8233 4.1239 15.7913 3.7285C15.7603 3.34585 15.7057 3.17227 15.6507 3.06323C15.4981 2.76083 15.2546 2.51497 14.9551 2.36088C14.8472 2.30532 14.6753 2.25013 14.2963 2.21887C13.9048 2.18657 13.3949 2.18572 12.6283 2.18572H10.6373C9.86231 2.18572 9.34651 2.18657 8.95064 2.2194C8.56727 2.25118 8.39397 2.30731 8.28562 2.36356C7.98435 2.51997 7.74037 2.76938 7.58916 3.07548C7.53478 3.18557 7.48131 3.36124 7.45451 3.74873C7.42684 4.14886 7.43228 4.66969 7.44173 5.45221L7.45258 6.35096L5.28826 6.37761L5.27687 5.43476C5.26808 4.70793 5.26068 4.09679 5.29529 3.59644C5.33147 3.07337 5.41781 2.57448 5.65227 2.09985C6.00912 1.37744 6.58493 0.788853 7.29591 0.41972C7.76305 0.177191 8.25599 0.0839239 8.77351 0.0410147C9.26854 -2.97658e-05 9.87379 -1.57868e-05 10.5936 6.55123e-07Z" fill="url(#paint1_radial_30_630)"/>
<path fill-rule="evenodd" clip-rule="evenodd" d="M10.5936 6.55123e-07H12.6717C13.3835 -1.56574e-05 13.9824 -2.96388e-05 14.4726 0.0404162C14.9854 0.0827233 15.4738 0.174675 15.9378 0.413398C16.6445 0.777032 17.2191 1.35727 17.5792 2.07094C17.8156 2.53946 17.9067 3.0327 17.9486 3.55051C17.9886 4.04555 17.9886 4.6503 17.9886 5.36909V7.35949C17.9886 8.07827 17.9886 8.68302 17.9486 9.17806C17.9067 9.69588 17.8156 10.1891 17.5792 10.6576C17.2191 11.3713 16.6445 11.9515 15.9378 12.3152C15.4738 12.5539 14.9854 12.6458 14.4726 12.6882C13.9824 12.7286 13.3835 12.7286 12.6717 12.7286H6.46591C6.03 12.7286 5.63664 12.4645 5.46797 12.0586C5.2993 11.6527 5.38824 11.1842 5.69362 10.8701L10.8184 5.59868L12.3629 7.12989L9.04494 10.5429H12.6283C13.3949 10.5429 13.9048 10.542 14.2963 10.5097C14.6753 10.4784 14.8472 10.4232 14.9551 10.3677C15.2546 10.2136 15.4981 9.96774 15.6507 9.66534C15.7057 9.5563 15.7603 9.38272 15.7913 9.00008C15.8233 8.60467 15.8241 8.08982 15.8241 7.31572V5.41286C15.8241 4.63875 15.8233 4.1239 15.7913 3.7285C15.7603 3.34585 15.7057 3.17227 15.6507 3.06323C15.4981 2.76083 15.2546 2.51497 14.9551 2.36088C14.8472 2.30532 14.6753 2.25013 14.2963 2.21887C13.9048 2.18657 13.3949 2.18572 12.6283 2.18572H10.6373C9.86231 2.18572 9.34651 2.18657 8.95064 2.2194C8.56727 2.25118 8.39397 2.30731 8.28562 2.36356C7.98435 2.51997 7.74037 2.76938 7.58916 3.07548C7.53478 3.18557 7.48131 3.36124 7.45451 3.74873C7.42684 4.14886 7.43228 4.66969 7.44173 5.45221L7.45258 6.35096L5.28826 6.37761L5.27687 5.43476C5.26808 4.70793 5.26068 4.09679 5.29529 3.59644C5.33147 3.07337 5.41781 2.57448 5.65227 2.09985C6.00912 1.37744 6.58493 0.788853 7.29591 0.41972C7.76305 0.177191 8.25599 0.0839239 8.77351 0.0410147C9.26854 -2.97658e-05 9.87379 -1.57868e-05 10.5936 6.55123e-07Z" fill="url(#paint2_radial_30_630)"/>
<path fill-rule="evenodd" clip-rule="evenodd" d="M10.5936 6.55123e-07H12.6717C13.3835 -1.56574e-05 13.9824 -2.96388e-05 14.4726 0.0404162C14.9854 0.0827233 15.4738 0.174675 15.9378 0.413398C16.6445 0.777032 17.2191 1.35727 17.5792 2.07094C17.8156 2.53946 17.9067 3.0327 17.9486 3.55051C17.9886 4.04555 17.9886 4.6503 17.9886 5.36909V7.35949C17.9886 8.07827 17.9886 8.68302 17.9486 9.17806C17.9067 9.69588 17.8156 10.1891 17.5792 10.6576C17.2191 11.3713 16.6445 11.9515 15.9378 12.3152C15.4738 12.5539 14.9854 12.6458 14.4726 12.6882C13.9824 12.7286 13.3835 12.7286 12.6717 12.7286H6.46591C6.03 12.7286 5.63664 12.4645 5.46797 12.0586C5.2993 11.6527 5.38824 11.1842 5.69362 10.8701L10.8184 5.59868L12.3629 7.12989L9.04494 10.5429H12.6283C13.3949 10.5429 13.9048 10.542 14.2963 10.5097C14.6753 10.4784 14.8472 10.4232 14.9551 10.3677C15.2546 10.2136 15.4981 9.96774 15.6507 9.66534C15.7057 9.5563 15.7603 9.38272 15.7913 9.00008C15.8233 8.60467 15.8241 8.08982 15.8241 7.31572V5.41286C15.8241 4.63875 15.8233 4.1239 15.7913 3.7285C15.7603 3.34585 15.7057 3.17227 15.6507 3.06323C15.4981 2.76083 15.2546 2.51497 14.9551 2.36088C14.8472 2.30532 14.6753 2.25013 14.2963 2.21887C13.9048 2.18657 13.3949 2.18572 12.6283 2.18572H10.6373C9.86231 2.18572 9.34651 2.18657 8.95064 2.2194C8.56727 2.25118 8.39397 2.30731 8.28562 2.36356C7.98435 2.51997 7.74037 2.76938 7.58916 3.07548C7.53478 3.18557 7.48131 3.36124 7.45451 3.74873C7.42684 4.14886 7.43228 4.66969 7.44173 5.45221L7.45258 6.35096L5.28826 6.37761L5.27687 5.43476C5.26808 4.70793 5.26068 4.09679 5.29529 3.59644C5.33147 3.07337 5.41781 2.57448 5.65227 2.09985C6.00912 1.37744 6.58493 0.788853 7.29591 0.41972C7.76305 0.177191 8.25599 0.0839239 8.77351 0.0410147C9.26854 -2.97658e-05 9.87379 -1.57868e-05 10.5936 6.55123e-07Z" fill="url(#paint3_radial_30_630)"/>
<path fill-rule="evenodd" clip-rule="evenodd" d="M3.75997 15.7811C4.15154 15.8134 4.66139 15.8143 5.42797 15.8143H7.45241C8.15141 15.8143 8.61627 15.8136 8.97437 15.7866C9.32141 15.7604 9.48056 15.7141 9.58022 15.6679C9.92652 15.5075 10.2043 15.2269 10.3632 14.8773C10.4089 14.7766 10.4548 14.6159 10.4807 14.2655C10.5074 13.9039 10.5082 13.4344 10.5082 12.7286H12.6726L12.6726 12.7685C12.6727 13.4239 12.6727 13.9755 12.6392 14.4282C12.6042 14.9012 12.5284 15.3532 12.3306 15.7886C11.9556 16.6139 11.3 17.276 10.4827 17.6546C10.0516 17.8543 9.60392 17.9309 9.13551 17.9662C8.68721 18 8.14102 18 7.4919 18L5.3846 18C4.67281 18 4.07394 18 3.58371 17.9596C3.07093 17.9173 2.58248 17.8253 2.11851 17.5866C1.41177 17.223 0.837174 16.6427 0.477072 15.9291C0.240667 15.4605 0.14961 14.9673 0.107713 14.4495C0.0676594 13.9544 0.0676737 13.3497 0.0676899 12.6309V10.6405C0.0676737 9.92173 0.0676594 9.31697 0.107713 8.82193C0.14961 8.30412 0.240668 7.81088 0.477072 7.34236C0.837174 6.62869 1.41177 6.04846 2.11851 5.68482C2.58248 5.4461 3.07093 5.35415 3.58372 5.31184C4.07395 5.27139 4.67283 5.27141 5.38463 5.27143H11.5904C12.1881 5.27143 12.6726 5.76071 12.6726 6.36428C12.6726 6.96785 12.1881 7.45714 11.5904 7.45714H5.42798C4.66139 7.45714 4.15154 7.45799 3.75997 7.4903C3.38104 7.52156 3.20915 7.57675 3.10117 7.63231C2.8017 7.78639 2.55823 8.03225 2.40564 8.33465C2.35062 8.4437 2.29597 8.61727 2.26501 8.99992C2.23302 9.39533 2.23218 9.91018 2.23218 10.6843V12.5871C2.23218 13.3612 2.23302 13.8761 2.26501 14.2715C2.29597 14.6541 2.35062 14.8277 2.40564 14.9368C2.55823 15.2392 2.8017 15.485 3.10117 15.6391C3.20915 15.6947 3.38104 15.7499 3.75997 15.7811Z" fill="url(#paint4_linear_30_630)"/>
<path fill-rule="evenodd" clip-rule="evenodd" d="M3.75997 15.7811C4.15154 15.8134 4.66139 15.8143 5.42797 15.8143H7.45241C8.15141 15.8143 8.61627 15.8136 8.97437 15.7866C9.32141 15.7604 9.48056 15.7141 9.58022 15.6679C9.92652 15.5075 10.2043 15.2269 10.3632 14.8773C10.4089 14.7766 10.4548 14.6159 10.4807 14.2655C10.5074 13.9039 10.5082 13.4344 10.5082 12.7286H12.6726L12.6726 12.7685C12.6727 13.4239 12.6727 13.9755 12.6392 14.4282C12.6042 14.9012 12.5284 15.3532 12.3306 15.7886C11.9556 16.6139 11.3 17.276 10.4827 17.6546C10.0516 17.8543 9.60392 17.9309 9.13551 17.9662C8.68721 18 8.14102 18 7.4919 18L5.3846 18C4.67281 18 4.07394 18 3.58371 17.9596C3.07093 17.9173 2.58248 17.8253 2.11851 17.5866C1.41177 17.223 0.837174 16.6427 0.477072 15.9291C0.240667 15.4605 0.14961 14.9673 0.107713 14.4495C0.0676594 13.9544 0.0676737 13.3497 0.0676899 12.6309V10.6405C0.0676737 9.92173 0.0676594 9.31697 0.107713 8.82193C0.14961 8.30412 0.240668 7.81088 0.477072 7.34236C0.837174 6.62869 1.41177 6.04846 2.11851 5.68482C2.58248 5.4461 3.07093 5.35415 3.58372 5.31184C4.07395 5.27139 4.67283 5.27141 5.38463 5.27143H11.5904C12.1881 5.27143 12.6726 5.76071 12.6726 6.36428C12.6726 6.96785 12.1881 7.45714 11.5904 7.45714H5.42798C4.66139 7.45714 4.15154 7.45799 3.75997 7.4903C3.38104 7.52156 3.20915 7.57675 3.10117 7.63231C2.8017 7.78639 2.55823 8.03225 2.40564 8.33465C2.35062 8.4437 2.29597 8.61727 2.26501 8.99992C2.23302 9.39533 2.23218 9.91018 2.23218 10.6843V12.5871C2.23218 13.3612 2.23302 13.8761 2.26501 14.2715C2.29597 14.6541 2.35062 14.8277 2.40564 14.9368C2.55823 15.2392 2.8017 15.485 3.10117 15.6391C3.20915 15.6947 3.38104 15.7499 3.75997 15.7811Z" fill="url(#paint5_radial_30_630)"/>
</g>
<defs>
<linearGradient id="paint0_linear_30_630" x1="8.60677" y1="12.6297" x2="8.75136" y2="-0.016212" gradientUnits="userSpaceOnUse">
<stop offset="0.43118" stop-color="#498FFD"/>
<stop offset="1" stop-color="#16D1D6"/>
</linearGradient>
<radialGradient id="paint1_radial_30_630" cx="0" cy="0" r="1" gradientUnits="userSpaceOnUse" gradientTransform="translate(5.11938 3.85385) rotate(-15.5605) scale(8.17868 8.16021)">
<stop stop-color="#18CFD7"/>
<stop offset="1" stop-color="#18CFD7" stop-opacity="0"/>
</radialGradient>
<radialGradient id="paint2_radial_30_630" cx="0" cy="0" r="1" gradientUnits="userSpaceOnUse" gradientTransform="translate(9.8984 7.46745) rotate(152.373) scale(3.06146 3.05526)">
<stop stop-color="#4990FE"/>
<stop offset="0.353962" stop-color="#4990FE"/>
<stop offset="1" stop-color="#4990FE" stop-opacity="0"/>
</radialGradient>
<radialGradient id="paint3_radial_30_630" cx="0" cy="0" r="1" gradientUnits="userSpaceOnUse" gradientTransform="translate(6.15268 11.5973) rotate(-45.9158) scale(5.56964 5.56109)">
<stop stop-color="#4990FE"/>
<stop offset="0.405688" stop-color="#4990FE"/>
<stop offset="1" stop-color="#4990FE" stop-opacity="0"/>
</radialGradient>
<linearGradient id="paint4_linear_30_630" x1="12.7397" y1="18.0501" x2="12.7862" y2="5.14458" gradientUnits="userSpaceOnUse">
<stop stop-color="#2950FF"/>
<stop offset="0.821717" stop-color="#498FFD"/>
</linearGradient>
<radialGradient id="paint5_radial_30_630" cx="0" cy="0" r="1" gradientUnits="userSpaceOnUse" gradientTransform="translate(12.7397 12.6297) rotate(129.312) scale(5.50455 5.44751)">
<stop offset="0.337169" stop-color="#2950FF"/>
<stop offset="0.792226" stop-color="#2950FF" stop-opacity="0"/>
</radialGradient>
<clipPath id="clip0_30_630">
<rect width="18" height="18" fill="white"/>
</clipPath>
</defs>
</svg>
