<svg width="24" height="24" viewBox="0 0 24 24" fill="none" xmlns="http://www.w3.org/2000/svg">
<path d="M23.7974 13.1185C23.3506 9.95742 22.179 7.08253 20.4235 4.4434C20.3623 4.35416 20.2791 4.2827 20.1822 4.23615C18.7022 3.55901 17.1456 3.06858 15.5474 2.77588C15.522 2.76745 15.4951 2.76422 15.4684 2.76636C15.4417 2.7685 15.4157 2.77597 15.3919 2.78834C15.3681 2.80072 15.3469 2.81775 15.3296 2.83845C15.3123 2.85916 15.2992 2.88313 15.2911 2.90898C15.1409 3.23031 14.9719 3.54309 14.8349 3.86918C14.7692 4.02509 14.6894 4.05932 14.5345 4.03935C14.1167 3.98421 13.698 3.93477 13.2774 3.9015C11.9996 3.80201 10.7147 3.84889 9.4472 4.04125C9.29418 4.06407 9.23129 4.00798 9.17026 3.87013C9.02319 3.53929 8.86172 3.21542 8.68585 2.89852C8.65896 2.86218 8.62389 2.83288 8.58356 2.81303C8.54322 2.79319 8.4988 2.78338 8.45397 2.78443C6.84632 3.069 5.28098 3.5597 3.79573 4.2447C3.70017 4.29369 3.61917 4.36751 3.56103 4.45861C0.871419 8.55705 -0.351816 13.0424 0.0875342 17.967C0.0899761 18.0363 0.10903 18.1039 0.143051 18.164C0.177072 18.2241 0.225035 18.275 0.2828 18.3121C1.92233 19.5142 3.73218 20.4578 5.65076 21.111C6.17554 21.2897 6.18681 21.3011 6.49004 20.8258C6.83175 20.2915 7.14718 19.7401 7.49547 19.163C6.76979 18.8512 6.0873 18.5688 5.46864 18.161C5.82162 17.7493 5.87138 17.7379 6.31354 17.929C6.33514 17.9376 6.35767 17.9442 6.37926 17.9537C8.8201 18.9928 11.3548 19.3646 13.9834 18.9881C15.3209 18.7917 16.6249 18.4078 17.8578 17.8472C17.9376 17.8121 18.054 17.7712 18.115 17.8045C18.2817 17.9145 18.4402 18.0368 18.5891 18.1705L16.4965 19.1915C16.919 19.8646 17.3283 20.5225 17.7517 21.1766C17.7817 21.2232 17.9169 21.2355 17.9883 21.2136C20.0647 20.5626 22.0188 19.5639 23.7693 18.2589C23.8393 18.2021 23.8856 18.1206 23.8988 18.0307C24.0594 16.3951 24.0254 14.7459 23.7974 13.1185ZM9.47443 14.7442C8.68022 15.5694 7.49829 15.5998 6.65808 14.8297C5.57284 13.8344 5.60946 11.9263 6.73318 10.9728C7.65882 10.1875 8.98626 10.3786 9.71288 11.4015C10.0189 11.8341 10.1766 12.3522 10.1776 13.1442C10.1481 13.7475 9.89735 14.3181 9.47443 14.7442ZM17.4344 14.7632C17.2507 14.9592 17.0298 15.1158 16.785 15.2234C16.5403 15.331 16.2765 15.3876 16.0097 15.3896C15.7428 15.3916 15.4783 15.3392 15.2319 15.2353C14.9855 15.1314 14.7624 14.9783 14.5758 14.7851C13.5788 13.7982 13.5882 12.0471 14.5946 11.0716C15.7014 9.99926 17.4654 10.4832 17.9901 12.0138C18.0887 12.299 18.1197 12.6108 18.1779 12.9103C18.1432 13.6243 17.9329 14.2527 17.4344 14.7632Z" fill="white" fill-opacity="0.9"/>
</svg>
