<svg width="14" height="18" viewBox="0 0 14 18" fill="none" xmlns="http://www.w3.org/2000/svg">
<path d="M5.49998 16.3334C5.49998 17.1618 6.17155 17.8334 6.99998 17.8334C7.82841 17.8334 8.49998 17.1618 8.49998 16.3334L5.49998 16.3334ZM8.49998 1.66669C8.49998 0.83826 7.82841 0.166687 6.99998 0.166687C6.17155 0.166687 5.49998 0.83826 5.49998 1.66669L8.49998 1.66669ZM1.35126 4.27744C0.768096 4.86583 0.772333 5.81557 1.36073 6.39873C1.94912 6.9819 2.89886 6.97766 3.48203 6.38927L1.35126 4.27744ZM4.01834 3.7173L5.08373 4.77322L4.01834 3.7173ZM9.98161 3.7173L11.047 2.66138L11.047 2.66138L9.98161 3.7173ZM10.5179 6.38927C11.1011 6.97767 12.0508 6.9819 12.6392 6.39874C13.2276 5.81557 13.2319 4.86583 12.6487 4.27744L10.5179 6.38927ZM6.71276 1.68492L6.5231 0.196957L6.5231 0.196957L6.71276 1.68492ZM7.2872 1.68492L7.47686 0.196958L7.47686 0.196958L7.2872 1.68492ZM8.49998 16.3334L8.49998 1.66669L5.49998 1.66669L5.49998 16.3334L8.49998 16.3334ZM3.48203 6.38927L5.08373 4.77322L2.95296 2.66138L1.35126 4.27744L3.48203 6.38927ZM8.91623 4.77322L10.5179 6.38927L12.6487 4.27744L11.047 2.66138L8.91623 4.77322ZM5.08373 4.77322C5.74722 4.10378 6.15721 3.69333 6.49188 3.42456C6.80289 3.1748 6.90024 3.17316 6.90242 3.17288L6.5231 0.196957C5.74685 0.295899 5.13566 0.666063 4.61339 1.08549C4.11479 1.48591 3.56679 2.04205 2.95296 2.66138L5.08373 4.77322ZM11.047 2.66138C10.4332 2.04205 9.88516 1.48591 9.38657 1.08549C8.8643 0.666063 8.25311 0.2959 7.47686 0.196958L7.09754 3.17288C7.09972 3.17316 7.19707 3.1748 7.50807 3.42456C7.84274 3.69333 8.25274 4.10378 8.91623 4.77322L11.047 2.66138ZM6.90241 3.17288C6.96721 3.16462 7.03275 3.16462 7.09754 3.17288L7.47686 0.196958C7.16021 0.156597 6.83975 0.156597 6.5231 0.196957L6.90241 3.17288Z" fill="white" fill-opacity="0.7"/>
</svg>
