<svg width="18" height="12" viewBox="0 0 18 12" fill="none" xmlns="http://www.w3.org/2000/svg">
<path d="M16.3337 7.00001C16.8859 7.00001 17.3337 6.55229 17.3337 6.00001C17.3337 5.44772 16.8859 5.00001 16.3337 5.00001V7.00001ZM1.66699 5.00001C1.11471 5.00001 0.666993 5.44772 0.666993 6.00001C0.666993 6.55229 1.11471 7.00001 1.66699 7.00001L1.66699 5.00001ZM4.62971 11.2936C5.02198 11.6824 5.65513 11.6795 6.04391 11.2873C6.43269 10.895 6.42987 10.2619 6.0376 9.87309L4.62971 11.2936ZM3.7176 8.98164L4.42155 8.27139V8.27139L3.7176 8.98164ZM3.7176 3.01837L3.01366 2.30812V2.30812L3.7176 3.01837ZM6.0376 2.12693C6.42987 1.73815 6.43269 1.10499 6.04391 0.712727C5.65514 0.320464 5.02198 0.317639 4.62971 0.706417L6.0376 2.12693ZM1.68522 6.28723L0.69325 6.41367L0.69325 6.41367L1.68522 6.28723ZM1.68522 5.71278L0.69325 5.58634L0.69325 5.58635L1.68522 5.71278ZM16.3337 5.00001L1.66699 5.00001L1.66699 7.00001L16.3337 7.00001V5.00001ZM6.0376 9.87309L4.42155 8.27139L3.01366 9.6919L4.62971 11.2936L6.0376 9.87309ZM4.42155 3.72863L6.0376 2.12693L4.62971 0.706417L3.01366 2.30812L4.42155 3.72863ZM4.42155 8.27139C3.76046 7.61617 3.32574 7.18317 3.03502 6.82118C2.75698 6.47497 2.69392 6.29198 2.6772 6.16079L0.69325 6.41367C0.775748 7.0609 1.08449 7.58646 1.47564 8.07351C1.85412 8.54479 2.38597 9.06979 3.01366 9.6919L4.42155 8.27139ZM3.01366 2.30812C2.38597 2.93023 1.85412 3.45522 1.47564 3.9265C1.08449 4.41355 0.775748 4.93911 0.69325 5.58634L2.6772 5.83922C2.69392 5.70803 2.75698 5.52504 3.03502 5.17883C3.32574 4.81684 3.76046 4.38384 4.42155 3.72863L3.01366 2.30812ZM2.6772 6.16079C2.66359 6.05402 2.66359 5.94599 2.6772 5.83922L0.69325 5.58635C0.65824 5.86102 0.65824 6.13899 0.69325 6.41367L2.6772 6.16079Z" fill="white"/>
</svg>
