<svg width="19" height="18" viewBox="0 0 19 18" fill="none" xmlns="http://www.w3.org/2000/svg">
<path d="M0.499978 5.86421C0.223844 5.86422 0 6.08808 0 6.36421C0 9.57895 0 12.7937 0 16.0084C0 17.2034 0.796678 18 1.9917 18H16.0102C17.2067 18 18.0019 17.2049 18.0019 16.0123C18.0019 12.796 18.0019 9.57974 18.0019 6.36348C18.0019 6.08733 17.778 5.86347 17.5018 5.86349L0.499978 5.86421ZM12.6862 8.60846C12.6863 8.33238 12.9101 8.10862 13.1862 8.10862H14.4913C14.7675 8.10862 14.9913 8.33248 14.9913 8.60862V9.90663C14.9913 10.1828 14.7675 10.4066 14.4913 10.4066H13.1857C12.9095 10.4066 12.6856 10.1827 12.6857 9.90647L12.6862 8.60846ZM3.01052 8.60862C3.01052 8.33248 3.23438 8.10862 3.51052 8.10862H4.80863C5.08478 8.10862 5.30863 8.33248 5.30863 8.60862V9.91736C5.30863 10.1935 5.08478 10.4174 4.80863 10.4174H3.51052C3.23438 10.4174 3.01052 10.1935 3.01052 9.91736V8.60862ZM5.31383 14.7836C5.31392 15.0598 5.09004 15.2838 4.81383 15.2838H3.50669C3.23055 15.2838 3.00669 15.0599 3.00669 14.7838V13.4858C3.00669 13.2096 3.23055 12.9858 3.50669 12.9858H4.8134C5.08947 12.9858 5.3133 13.2095 5.3134 13.4856L5.31383 14.7836ZM10.1452 14.7836C10.1453 15.0598 9.92143 15.2838 9.64522 15.2838H8.35111C8.07497 15.2838 7.85111 15.0599 7.85111 14.7838V13.4896C7.85111 13.2135 8.07497 12.9896 8.35111 12.9896H9.64479C9.92087 12.9896 10.1447 13.2134 10.1448 13.4894L10.1452 14.7836ZM10.1498 9.90341C10.1499 10.1796 9.92603 10.4036 9.64982 10.4036H8.35571C8.07956 10.4036 7.85571 10.1797 7.85571 9.90357V8.60556C7.85571 8.32942 8.07956 8.10556 8.35571 8.10556H9.64939C9.92546 8.10556 10.1493 8.32932 10.1494 8.60539L10.1498 9.90341ZM14.9965 14.7829C14.9966 15.0591 14.7727 15.283 14.4965 15.283H13.184C12.9079 15.283 12.684 15.0592 12.684 14.783V13.4934C12.684 13.2173 12.9079 12.9934 13.184 12.9934H14.4961C14.7722 12.9934 14.996 13.2172 14.9961 13.4933L14.9965 14.7829Z" fill="white"/>
<path d="M18.0016 4.42434C18.0017 4.70048 17.7778 4.92434 17.5017 4.92434H0.532752C0.25661 4.92434 0.0308556 4.70047 0.0225602 4.42446C0.0121582 4.07834 0.00279426 3.73699 0.0442445 3.40229C0.149191 2.55969 0.904501 1.89709 1.75557 1.87028C2.60663 1.84347 3.45234 1.86186 4.30187 1.86032H4.54701C4.5516 1.78372 4.5585 1.72551 4.5585 1.66499C4.5585 1.26284 4.5585 0.860687 4.5585 0.458534C4.5585 0.142175 4.70098 -0.00106812 5.01122 -0.00106812C5.25329 -0.00106812 5.49612 -0.00106812 5.73819 -0.00106812C6.04001 -0.00106812 6.18709 0.141409 6.19169 0.442449C6.19629 0.838473 6.19169 1.23373 6.19169 1.62976C6.19169 1.6987 6.19169 1.76764 6.19169 1.8496H11.7968C11.7968 1.78066 11.8083 1.71325 11.8083 1.64661C11.8083 1.25748 11.8083 0.867581 11.8083 0.478451C11.8083 0.138345 11.9485 0.000463893 12.2832 -0.00106812C12.5199 -0.00106812 12.7559 -0.00106812 12.9918 -0.00106812C13.2936 -0.00106812 13.4399 0.144472 13.4415 0.44398C13.4415 0.846132 13.4415 1.24828 13.4415 1.65044V1.86262H13.6628C14.4549 1.86262 15.2462 1.86262 16.0376 1.86262C17.2004 1.86262 17.9986 2.66233 18.0009 3.82129C18.0013 4.02177 18.0015 4.22202 18.0016 4.42434Z" fill="white"/>
</svg>
