<svg width="30" height="30" viewBox="0 0 30 30" fill="none" xmlns="http://www.w3.org/2000/svg">
<path d="M6.33333 20.6667C5.78105 20.6667 5.33333 21.1144 5.33333 21.6667C5.33333 22.219 5.78105 22.6667 6.33333 22.6667L6.33333 20.6667ZM23.6667 21.6667L23.6667 20.6667L23.6667 21.6667ZM19.0454 26.2164C18.6126 26.5596 18.54 27.1885 18.8831 27.6213C19.2262 28.0541 19.8552 28.1267 20.288 27.7836L19.0454 26.2164ZM22.0173 25.1362L22.6386 25.9198L22.0173 25.1362ZM22.0173 18.1971L21.396 18.9807L22.0173 18.1971ZM20.288 15.5498C19.8552 15.2066 19.2262 15.2793 18.8831 15.712C18.54 16.1448 18.6126 16.7738 19.0454 17.1169L20.288 15.5498ZM24.9735 22.0009L25.961 22.1582L25.961 22.1582L24.9735 22.0009ZM24.9735 21.3324L25.961 21.1751L25.961 21.1751L24.9735 21.3324ZM23.6667 9.33334C24.219 9.33334 24.6667 8.88562 24.6667 8.33334C24.6667 7.78105 24.219 7.33334 23.6667 7.33334L23.6667 9.33334ZM6.33333 8.33334L6.33333 9.33334L6.33333 9.33334L6.33333 8.33334ZM9.71204 14.4502C10.1448 14.7934 10.7738 14.7207 11.1169 14.288C11.46 13.8552 11.3874 13.2262 10.9546 12.8831L9.71204 14.4502ZM7.98271 11.8029L7.36141 12.5865L7.98271 11.8029ZM7.98271 4.8638L7.36141 4.08022L7.98271 4.8638ZM10.9546 3.78358C11.3874 3.44045 11.46 2.81147 11.1169 2.37871C10.7738 1.94596 10.1448 1.8733 9.71204 2.21643L10.9546 3.78358ZM5.02652 8.66756L4.03897 8.8249L4.03897 8.8249L5.02652 8.66756ZM5.02652 7.99912L4.03897 7.84177L4.03897 7.84178L5.02652 7.99912ZM6.33333 22.6667L23.6667 22.6667L23.6667 20.6667L6.33333 20.6667L6.33333 22.6667ZM20.288 27.7836L22.6386 25.9198L21.396 24.3526L19.0454 26.2164L20.288 27.7836ZM22.6386 17.4136L20.288 15.5498L19.0454 17.1169L21.396 18.9807L22.6386 17.4136ZM22.6386 25.9198C23.5567 25.1918 24.3136 24.5937 24.85 24.0593C25.3909 23.5205 25.8393 22.9225 25.961 22.1582L23.9859 21.8435C23.9634 21.9851 23.871 22.2116 23.4385 22.6424C23.0015 23.0776 22.3524 23.5943 21.396 24.3526L22.6386 25.9198ZM21.396 18.9807C22.3524 19.7391 23.0015 20.2557 23.4385 20.691C23.871 21.1218 23.9634 21.3482 23.9859 21.4898L25.961 21.1751C25.8393 20.4109 25.3909 19.8128 24.85 19.274C24.3136 18.7397 23.5567 18.1415 22.6386 17.4136L21.396 18.9807ZM23.6667 7.33334L6.33333 7.33334L6.33333 9.33334L23.6667 9.33334L23.6667 7.33334ZM10.9546 12.8831L8.604 11.0193L7.36141 12.5865L9.71204 14.4502L10.9546 12.8831ZM8.604 5.64738L10.9546 3.78358L9.71204 2.21643L7.36141 4.08022L8.604 5.64738ZM8.604 11.0193C7.64757 10.2609 6.99845 9.74431 6.56151 9.30905C6.12903 8.87824 6.03662 8.6518 6.01406 8.51022L4.03897 8.8249C4.16074 9.58913 4.60913 10.1872 5.15002 10.726C5.68645 11.2603 6.44327 11.8585 7.36141 12.5865L8.604 11.0193ZM7.36141 4.08022C6.44327 4.80821 5.68645 5.40633 5.15002 5.94069C4.60913 6.4795 4.16074 7.07755 4.03897 7.84177L6.01406 8.15646C6.03662 8.01488 6.12904 7.78843 6.56151 7.35763C6.99846 6.92236 7.64757 6.40573 8.604 5.64738L7.36141 4.08022ZM6.01406 8.51022C6.00464 8.4511 6 8.39208 6 8.33334L4 8.33334C4 8.49785 4.01303 8.66209 4.03897 8.8249L6.01406 8.51022ZM6 8.33334C6 8.2746 6.00464 8.21558 6.01406 8.15646L4.03897 7.84178C4.01303 8.00459 4 8.16883 4 8.33334L6 8.33334ZM6.33333 7.33334L5 7.33334L5 9.33334L6.33333 9.33334L6.33333 7.33334ZM25.961 22.1582C25.987 21.9954 26 21.8312 26 21.6667L24 21.6667C24 21.7254 23.9954 21.7844 23.9859 21.8435L25.961 22.1582ZM26 21.6667C26 21.5022 25.987 21.3379 25.961 21.1751L23.9859 21.4898C23.9954 21.5489 24 21.6079 24 21.6667L26 21.6667ZM23.6667 22.6667L25 22.6667L25 20.6667L23.6667 20.6667L23.6667 22.6667Z" fill="#FAFAFA"/>
</svg>
