<svg width="324" height="52" viewBox="0 0 324 52" fill="none" xmlns="http://www.w3.org/2000/svg">
<path d="M2 45.0556V45.0556C7.79599 41.1396 15.3903 41.1396 21.1863 45.0556L25.2976 47.8333C29.0236 50.3507 33.9057 50.3507 37.6317 47.8333L41.743 45.0556C42.985 44.2164 44.6124 44.2164 45.8544 45.0556V45.0556C47.0964 45.8947 48.7237 45.8947 49.9657 45.0556L67.439 33.25C70.13 31.4319 73.6559 31.4319 76.3469 33.25V33.25C79.0379 35.0681 82.5638 35.0681 85.2548 33.25L89.2887 30.5245C91.7954 28.8309 94.7514 27.9259 97.7766 27.9259H102.971C105.492 27.9259 107.956 27.1718 110.045 25.7604V25.7604C114.318 22.8731 119.918 22.8731 124.191 25.7604L128.62 28.7525C131.395 30.6276 134.668 31.6296 138.017 31.6296V31.6296C141.367 31.6296 144.639 32.6316 147.415 34.5067L151.349 37.1652C154.495 39.2903 158.204 40.4259 162 40.4259V40.4259C165.796 40.4259 169.505 39.2903 172.651 37.1652L186.815 27.5954C190.515 25.0952 194.879 23.7593 199.345 23.7593V23.7593C203.811 23.7593 208.174 22.4233 211.875 19.9231L213.088 19.1034C217.529 16.1032 222.765 14.5 228.124 14.5H231.447C234.641 14.5 237.761 13.5447 240.407 11.757V11.757C245.82 8.09973 252.912 8.09973 258.326 11.757L274.171 22.4629C276.761 24.213 279.816 25.1481 282.942 25.1481V25.1481C286.068 25.1481 289.123 24.213 291.713 22.4629L322 2" stroke="#16D1D6" stroke-width="4" stroke-linecap="round"/>
</svg>
