<svg width="17" height="17" viewBox="0 0 17 17" fill="none" xmlns="http://www.w3.org/2000/svg">
<g clip-path="url(#clip0_1511_3610)">
<path d="M8.51448 2.791e-07C6.25813 -0.000577216 4.09386 0.895052 2.49729 2.49006C0.900725 4.08506 0.00249547 6.24895 0 8.50616C0.0238988 13.195 3.74849 16.9594 8.41092 17C9.53473 17.0139 10.6501 16.8043 11.6922 16.3834C12.7344 15.9625 13.6826 15.3386 14.4817 14.548C15.2808 13.7574 15.9149 12.8159 16.3472 11.7781C16.7795 10.7402 17.0014 9.62685 17 8.50253C17.0094 3.84049 13.1747 2.791e-07 8.51448 2.791e-07ZM11.0304 11.5606C10.9032 11.6033 10.7665 11.6094 10.636 11.5781C10.5055 11.5469 10.3865 11.4795 10.2924 11.3838C9.50399 10.6028 8.71895 9.81796 7.93729 9.02924C7.86493 8.95197 7.80921 8.86065 7.77358 8.76095C7.73795 8.66125 7.72318 8.5553 7.73017 8.44965C7.73017 7.69474 7.73017 6.94055 7.73017 6.18636C7.73017 5.40175 7.7251 4.61713 7.73017 3.83324C7.73356 3.66569 7.79285 3.50408 7.89862 3.37412C8.00439 3.24416 8.15056 3.1533 8.31388 3.116C8.65353 3.03559 9.02433 3.18845 9.16917 3.50505C9.23164 3.65405 9.26247 3.81441 9.25969 3.97596C9.26693 5.31578 9.26693 6.65559 9.25969 7.9954C9.25669 8.05442 9.26683 8.11337 9.28937 8.16799C9.31192 8.22262 9.3463 8.27155 9.39005 8.31127C10.0418 8.95606 10.6902 9.60447 11.3353 10.2565C11.7763 10.697 11.6076 11.3961 11.0304 11.5606Z" fill="white" fill-opacity="0.7"/>
</g>
<defs>
<clipPath id="clip0_1511_3610">
<rect width="17" height="17" fill="none"/>
</clipPath>
</defs>
</svg>
