<svg width="22" height="27" viewBox="0 0 22 27" fill="none" xmlns="http://www.w3.org/2000/svg">
<path fill-rule="evenodd" clip-rule="evenodd" d="M18.8186 17.3306L19.1465 14.9744C19.2474 14.2494 19.3396 13.5866 19.4216 12.9787C19.5901 11.7293 19.6744 11.1046 19.3008 10.6773C18.9273 10.25 18.2852 10.25 17.0012 10.25H4.99881C3.71478 10.25 3.07276 10.25 2.69922 10.6773C2.32568 11.1046 2.40992 11.7293 2.5784 12.9787C2.66041 13.5868 2.75258 14.2491 2.85351 14.9744L3.18143 17.3307C3.53783 19.8916 3.71603 21.172 4.09387 22.2004C4.80043 24.1235 6.02179 25.5559 7.47957 26.171C8.25913 26.5 9.17277 26.5 11 26.5C12.8273 26.5 13.7409 26.5 14.5205 26.171C15.9782 25.5559 17.1996 24.1235 17.9062 22.2004C18.284 21.172 18.4622 19.8916 18.8186 17.3306ZM9.4375 12.75C9.4375 12.2322 9.01777 11.8125 8.5 11.8125C7.98223 11.8125 7.5625 12.2322 7.5625 12.75V22.75C7.5625 23.2678 7.98223 23.6875 8.5 23.6875C9.01777 23.6875 9.4375 23.2678 9.4375 22.75V12.75ZM14.4375 12.75C14.4375 12.2322 14.0178 11.8125 13.5 11.8125C12.9822 11.8125 12.5625 12.2322 12.5625 12.75V22.75C12.5625 23.2678 12.9822 23.6875 13.5 23.6875C14.0178 23.6875 14.4375 23.2678 14.4375 22.75V12.75Z" fill="white"/>
<path d="M11 0.5625C7.72081 0.5625 5.0625 3.22081 5.0625 6.5V6.8125H1C0.482233 6.8125 0.0625 7.23223 0.0625 7.75C0.0625 8.26777 0.482233 8.6875 1 8.6875H21C21.5178 8.6875 21.9375 8.26777 21.9375 7.75C21.9375 7.23223 21.5178 6.8125 21 6.8125H16.9375V6.5C16.9375 3.22081 14.2792 0.5625 11 0.5625Z" fill="white"/>
</svg>
