<svg width="17" height="17" viewBox="0 0 17 17" fill="none" xmlns="http://www.w3.org/2000/svg">
<g clip-path="url(#clip0_1511_3629)">
<path fill-rule="evenodd" clip-rule="evenodd" d="M8.50002 17C3.80561 17 3.89008e-05 13.1944 3.93112e-05 8.49998C3.97216e-05 3.80557 3.80561 -1.15349e-06 8.50002 -7.43092e-07C13.1944 -3.32694e-07 17 3.80557 17 8.49998C17 13.1944 13.1944 17 8.50002 17ZM7.86252 5.09999C7.86252 4.74791 8.14794 4.46249 8.50002 4.46249C8.8521 4.46249 9.13752 4.74791 9.13752 5.09999L9.13752 10.9958C9.1496 10.9863 9.16193 10.9766 9.1745 10.9665C9.44873 10.7462 9.77474 10.4187 10.2591 9.93003L11.4472 8.73121C11.6951 8.48115 12.0987 8.47935 12.3488 8.72719C12.5988 8.97504 12.6006 9.37868 12.3528 9.62874L11.1387 10.8537C10.687 11.3095 10.3103 11.6896 9.97286 11.9606C9.6189 12.2448 9.2469 12.4611 8.79369 12.5188C8.6962 12.5313 8.59811 12.5375 8.50002 12.5375C8.40193 12.5375 8.30384 12.5313 8.20635 12.5188C7.75313 12.4611 7.38114 12.2448 7.02718 11.9606C6.68971 11.6896 6.31301 11.3095 5.86133 10.8537L4.64724 9.62874C4.3994 9.37867 4.4012 8.97504 4.65126 8.72719C4.90133 8.47935 5.30497 8.48115 5.55281 8.73121L6.74098 9.93003C7.2253 10.4187 7.55131 10.7462 7.82554 10.9665C7.83811 10.9766 7.85044 10.9863 7.86252 10.9958L7.86252 5.09999Z" fill="white" fill-opacity="0.7"/>
</g>
<defs>
<clipPath id="clip0_1511_3629">
<rect width="17" height="17" fill="white" transform="translate(17 17) rotate(-180)"/>
</clipPath>
</defs>
</svg>
