<svg width="20" height="25" viewBox="0 0 20 25" fill="none" xmlns="http://www.w3.org/2000/svg">
<path d="M15.3613 1.8178L15.4848 1.88911C16.5519 2.50516 17.4418 3.01888 18.0934 3.52169C18.7811 4.05242 19.3269 4.66159 19.5556 5.51486C19.7842 6.36812 19.6161 7.16861 19.2858 7.9721C19.0566 8.5298 18.7196 9.15651 18.3134 9.87138L17.4422 9.35353L17.4309 9.34694L7.93355 3.86363L7.04537 3.34015C7.45691 2.63924 7.82772 2.04058 8.19278 1.56752C8.7235 0.879781 9.33267 0.333923 10.1859 0.105292C11.0392 -0.12334 11.8397 0.0448006 12.6432 0.375035C13.4044 0.687901 14.2942 1.20168 15.3613 1.8178Z" fill="white"/>
<path d="M6.01486 5.1206L1.24516 13.3818C0.836769 14.0878 0.513859 14.6461 0.394223 15.281C0.274588 15.916 0.372214 16.5535 0.495683 17.3597L0.528948 17.5776C0.756856 19.0743 0.944711 20.3079 1.22804 21.2435C1.52437 22.2219 1.97988 23.0687 2.87578 23.586C3.77168 24.1032 4.73285 24.0743 5.72834 23.8417C6.68018 23.6193 7.84249 23.1652 9.25261 22.6142L9.45797 22.5341C10.2179 22.2379 10.8188 22.0037 11.3089 21.5826C11.7989 21.1615 12.1209 20.6027 12.5282 19.8961L17.2866 11.6541L16.3967 11.1252L6.89302 5.63822L6.01486 5.1206Z" fill="white"/>
</svg>
