<svg width="22" height="18" viewBox="0 0 22 18" fill="none" xmlns="http://www.w3.org/2000/svg">
<path fill-rule="evenodd" clip-rule="evenodd" d="M21.4685 1.58566C21.792 1.3269 21.8444 0.85493 21.5857 0.531483C21.3269 0.208037 20.855 0.155596 20.5315 0.414353L17.2062 3.07461C17.0246 2.91149 16.8385 2.75146 16.6483 2.59572C15.0768 1.309 13.141 0.250005 11 0.250005C8.85908 0.250005 6.92328 1.309 5.35176 2.59572C3.77166 3.88947 2.47965 5.47865 1.61144 6.68802L1.53984 6.78759C1.01718 7.51384 0.586942 8.11166 0.586942 9C0.586942 9.88835 1.01718 10.4862 1.53984 11.2124L1.61144 11.312C2.1561 12.0707 2.86754 12.9788 3.71227 13.8697L0.531506 16.4144C0.20806 16.6731 0.155619 17.1451 0.414376 17.4685C0.673133 17.792 1.1451 17.8444 1.46855 17.5857L21.4685 1.58566ZM7.66178 10.7101L8.87453 9.73994C8.79386 9.5082 8.75003 9.25922 8.75003 9C8.75003 7.75736 9.75739 6.75 11 6.75C11.4362 6.75 11.8434 6.87412 12.1882 7.08897L13.4007 6.11902C12.7503 5.57645 11.9133 5.25 11 5.25C8.92896 5.25 7.25003 6.92894 7.25003 9C7.25003 9.61603 7.39857 10.1974 7.66178 10.7101Z" fill="white"/>
<path d="M19.6952 5.76482L14.6673 9.78714C14.3056 11.4803 12.8011 12.75 11 12.75L10.9639 12.7498L6.54805 16.2825C7.86737 17.1396 9.37457 17.75 11 17.75C13.141 17.75 15.0768 16.691 16.6483 15.4043C18.2284 14.1105 19.5204 12.5214 20.3886 11.312L20.4602 11.2124C20.9829 10.4862 21.4131 9.88835 21.4131 9C21.4131 8.11166 20.9829 7.51384 20.4602 6.7876L20.3886 6.68802C20.1811 6.39892 19.9493 6.08811 19.6952 5.76482Z" fill="white"/>
</svg>
