<svg width="30" height="30" viewBox="0 0 30 30" fill="none" xmlns="http://www.w3.org/2000/svg">
<path d="M20.079 28.0199C12.3872 31.0662 3.64753 26.7259 1.43215 18.7414C1.24508 18.024 1.10613 17.295 1.01619 16.5593C0.989738 16.4036 0.995751 16.2442 1.03385 16.091C1.07196 15.9378 1.14134 15.7939 1.23768 15.6685C1.33402 15.5431 1.45527 15.4387 1.59389 15.3619C1.73251 15.285 1.88553 15.2374 2.04345 15.2219C2.74552 15.1556 3.27179 15.5911 3.3752 16.3021C4.02097 20.7738 6.39721 23.9688 10.5752 25.7383C16.2779 28.1513 23.0505 25.4342 25.5749 19.7828C26.2398 18.3193 26.5928 16.7347 26.6119 15.1288C26.631 13.5229 26.3156 11.9305 25.6857 10.4518C25.0557 8.97312 24.1249 7.64018 22.9517 6.53691C21.7786 5.43365 20.3885 4.58395 18.8691 4.04133C14.3452 2.39986 9.03774 3.84815 5.98815 7.55862C5.95253 7.60091 5.92266 7.64777 5.84337 7.75522C6.40181 7.61348 6.87752 7.49117 7.36127 7.37115C8.09437 7.18711 8.72865 7.53575 8.90446 8.21703C9.06992 8.8583 8.68384 9.48243 7.98521 9.66647C6.51902 10.0528 5.05014 10.4316 3.57858 10.8027C2.81216 10.9947 2.17674 10.5021 2.05723 9.65961C1.83738 8.10501 1.61446 6.55079 1.38848 4.99695C1.33633 4.69359 1.40355 4.38189 1.5762 4.1265C1.74884 3.87111 2.01367 3.69162 2.31577 3.62525C2.47049 3.59036 2.63072 3.58711 2.78674 3.6157C2.94276 3.6443 3.09132 3.70413 3.22339 3.79157C3.35545 3.87902 3.46828 3.99225 3.55502 4.12439C3.64175 4.25654 3.70059 4.40484 3.72796 4.56029C3.82103 5.02553 3.87274 5.49991 3.94398 5.97087C3.95318 6.03374 3.96811 6.0966 3.99339 6.21777C4.09566 6.0966 4.1646 6.01316 4.23584 5.932C6.66494 3.14058 9.71454 1.51511 13.4007 1.08988C20.079 0.317155 26.4551 4.49286 28.3878 10.9021C29.4194 14.272 29.1372 17.9048 27.5975 21.077C26.0577 24.2492 23.3734 26.728 20.079 28.0199Z" fill="white"/>
<path d="M19.9755 19.7554C19.7847 19.8363 19.5752 19.863 19.3701 19.8325C19.165 19.8021 18.9725 19.7156 18.8138 19.5828C17.2649 18.359 15.7205 17.129 14.1808 15.8929C14.0429 15.7807 13.9331 15.6381 13.8601 15.4765C13.7871 15.3148 13.7529 15.1384 13.7602 14.9613C13.7602 12.5441 13.7602 10.1261 13.7602 7.7073C13.7553 7.548 13.7825 7.38934 13.8404 7.24072C13.8982 7.0921 13.9855 6.95656 14.097 6.84213C14.2085 6.72771 14.342 6.63674 14.4895 6.57461C14.6371 6.51248 14.7956 6.48047 14.9558 6.48047C15.116 6.48047 15.2746 6.51248 15.4221 6.57461C15.5697 6.63674 15.7032 6.72771 15.8147 6.84213C15.9262 6.95656 16.0134 7.0921 16.0713 7.24072C16.1291 7.38934 16.1564 7.548 16.1514 7.7073C16.1606 8.79209 16.1514 9.87916 16.1514 10.9628C16.1514 12.0282 16.1514 13.0947 16.1514 14.1635C16.1463 14.2468 16.1628 14.33 16.1992 14.4053C16.2356 14.4805 16.2908 14.5452 16.3594 14.5933C17.654 15.6167 18.9452 16.6455 20.2329 17.6796C21.0096 18.298 20.8649 19.4125 19.9755 19.7554Z" fill="white"/>
</svg>
