<svg width="34" height="34" viewBox="0 0 34 34" fill="none" xmlns="http://www.w3.org/2000/svg">
<path fill-rule="evenodd" clip-rule="evenodd" d="M0.333662 17C0.333662 7.79521 7.79558 0.333292 17.0003 0.333292C26.2051 0.333293 33.667 7.79521 33.667 17C33.667 26.2047 26.2051 33.6666 17.0003 33.6666C7.79558 33.6666 0.333661 26.2047 0.333662 17ZM17.0003 26.5833C16.31 26.5833 15.7503 26.0236 15.7503 25.3333L15.7503 15.3333C15.7503 14.6429 16.31 14.0833 17.0003 14.0833C17.6907 14.0833 18.2503 14.6429 18.2503 15.3333L18.2503 25.3333C18.2503 26.0236 17.6907 26.5833 17.0003 26.5833ZM17.0003 8.66662C16.0799 8.66662 15.3337 9.41282 15.3337 10.3333C15.3337 11.2538 16.0799 12 17.0003 12C17.9208 12 18.667 11.2538 18.667 10.3333C18.667 9.41282 17.9208 8.66662 17.0003 8.66662Z" fill="white"/>
</svg>
