<svg width="20" height="20" viewBox="0 0 20 20" fill="none" xmlns="http://www.w3.org/2000/svg">
<path fill-rule="evenodd" clip-rule="evenodd" d="M0.833659 9.99999C0.833659 4.93738 4.93772 0.833321 10.0003 0.833322C15.0629 0.833322 19.167 4.93738 19.167 9.99999C19.167 15.0626 15.0629 19.1667 10.0003 19.1667C4.93771 19.1667 0.833659 15.0626 0.833659 9.99999ZM10.0003 15.2708C9.62063 15.2708 9.31283 14.963 9.31283 14.5833L9.31283 9.08332C9.31283 8.70363 9.62063 8.39582 10.0003 8.39582C10.38 8.39582 10.6878 8.70363 10.6878 9.08332L10.6878 14.5833C10.6878 14.963 10.38 15.2708 10.0003 15.2708ZM10.0003 5.41666C9.49407 5.41666 9.08366 5.82706 9.08366 6.33332C9.08366 6.83958 9.49407 7.24999 10.0003 7.24999C10.5066 7.24999 10.917 6.83958 10.917 6.33332C10.917 5.82706 10.5066 5.41666 10.0003 5.41666Z" fill="#1F8FEB"/>
</svg>
