<svg width="18" height="18" viewBox="0 0 18 18" fill="none" xmlns="http://www.w3.org/2000/svg">
<g opacity="0.6" clip-path="url(#clip0_2281_2905)">
<path d="M9 0C4.02961 0 0 4.02961 0 9C0 13.9704 4.02961 18 9 18C13.9704 18 18 13.9704 18 9C18 4.02961 13.9704 0 9 0ZM10.1398 12.7821C10.1398 12.9318 10.1103 13.08 10.053 13.2183C9.99573 13.3566 9.91177 13.4822 9.80594 13.588C9.7001 13.6939 9.57445 13.7778 9.43617 13.8351C9.29789 13.8924 9.14968 13.9219 9 13.9219C8.85032 13.9219 8.70211 13.8924 8.56383 13.8351C8.42555 13.7778 8.2999 13.6939 8.19406 13.588C8.08823 13.4822 8.00427 13.3566 7.94699 13.2183C7.88972 13.08 7.86023 12.9318 7.86023 12.7821V8.2227C7.86023 8.07302 7.88972 7.92481 7.94699 7.78653C8.00427 7.64824 8.08823 7.5226 8.19406 7.41676C8.2999 7.31092 8.42555 7.22697 8.56383 7.16969C8.70211 7.11241 8.85032 7.08293 9 7.08293C9.14968 7.08293 9.29789 7.11241 9.43617 7.16969C9.57445 7.22697 9.7001 7.31092 9.80594 7.41676C9.91177 7.5226 9.99573 7.64824 10.053 7.78653C10.1103 7.92481 10.1398 8.07302 10.1398 8.2227V12.7821ZM9 6.35766C8.77458 6.35766 8.55421 6.29081 8.36678 6.16557C8.17935 6.04033 8.03326 5.86233 7.94699 5.65406C7.86073 5.4458 7.83816 5.21663 7.88213 4.99553C7.92611 4.77444 8.03467 4.57135 8.19406 4.41195C8.35346 4.25256 8.55655 4.144 8.77764 4.10003C8.99874 4.05605 9.2279 4.07862 9.43617 4.16488C9.64443 4.25115 9.82244 4.39724 9.94768 4.58467C10.0729 4.7721 10.1398 4.99247 10.1398 5.21789C10.1398 5.36758 10.1104 5.51581 10.0531 5.65411C9.99584 5.79242 9.91189 5.91808 9.80604 6.02393C9.70019 6.12978 9.57453 6.21373 9.43622 6.27099C9.29792 6.32825 9.14969 6.3577 9 6.35766Z" fill="white"/>
</g>
<defs>
<clipPath id="clip0_2281_2905">
<rect width="18" height="18" fill="white"/>
</clipPath>
</defs>
</svg>
