<svg width="64" height="64" viewBox="0 0 64 64" fill="none" xmlns="http://www.w3.org/2000/svg">
<g clip-path="url(#clip0_3395_12582)">
<path d="M28 2.88675C31.094 1.10042 34.906 1.10042 38 2.88675L55.7128 13.1132C58.8068 14.8996 60.7128 18.2008 60.7128 21.7735V42.2265C60.7128 45.7992 58.8068 49.1004 55.7128 50.8867L38 61.1133C34.906 62.8996 31.094 62.8996 28 61.1133L10.2872 50.8867C7.19318 49.1004 5.28719 45.7992 5.28719 42.2265V21.7735C5.28719 18.2008 7.19318 14.8996 10.2872 13.1132L28 2.88675Z" fill="#D9D9D9"/>
<path d="M28 2.88675C31.094 1.10042 34.906 1.10042 38 2.88675L55.7128 13.1132C58.8068 14.8996 60.7128 18.2008 60.7128 21.7735V42.2265C60.7128 45.7992 58.8068 49.1004 55.7128 50.8867L38 61.1133C34.906 62.8996 31.094 62.8996 28 61.1133L10.2872 50.8867C7.19318 49.1004 5.28719 45.7992 5.28719 42.2265V21.7735C5.28719 18.2008 7.19318 14.8996 10.2872 13.1132L28 2.88675Z" fill="url(#paint0_radial_3395_12582)"/>
<path d="M30.1249 18.9974C30.0568 17.3626 31.3637 16 33 16C34.6363 16 35.9432 17.3626 35.8751 18.9974L35.0833 38.0017C35.0367 39.1186 34.1178 40 33 40C31.8822 40 30.9633 39.1186 30.9167 38.0017L30.1249 18.9974Z" fill="white"/>
<rect x="31" y="44" width="4" height="4" rx="2" fill="white"/>
</g>
<defs>
<radialGradient id="paint0_radial_3395_12582" cx="0" cy="0" r="1" gradientUnits="userSpaceOnUse" gradientTransform="translate(14 7.42857) rotate(47.9649) scale(76.1664 95.4935)">
<stop stop-color="#16D1D6"/>
<stop offset="1" stop-color="#274CFF"/>
</radialGradient>
<clipPath id="clip0_3395_12582">
<rect width="64" height="64" fill="white"/>
</clipPath>
</defs>
</svg>
