<svg width="18" height="20" viewBox="0 0 18 20" fill="none" xmlns="http://www.w3.org/2000/svg">
<path fill-rule="evenodd" clip-rule="evenodd" d="M3.72917 5.41671C3.72917 2.50571 6.089 0.145874 9 0.145874C11.911 0.145874 14.2708 2.50571 14.2708 5.41671V6.43761C14.2708 6.49885 14.2628 6.55822 14.2478 6.61473C15.5642 7.09845 16.5903 8.16046 17.0257 9.50038C17.25 10.1908 17.25 11.0439 17.25 12.75C17.25 14.4562 17.25 15.3093 17.0257 15.9997C16.5723 17.395 15.4783 18.489 14.083 18.9424C13.3926 19.1667 12.5395 19.1667 10.8333 19.1667H7.16665C5.46049 19.1667 4.6074 19.1667 3.91701 18.9424C2.52166 18.489 1.4277 17.395 0.974324 15.9997C0.75 15.3093 0.75 14.4562 0.75 12.75C0.75 11.0439 0.75 10.1908 0.974324 9.50038C1.40969 8.16046 2.43578 7.09845 3.7522 6.61473C3.73717 6.55822 3.72917 6.49885 3.72917 6.43761V5.41671ZM5.10417 6.36466C5.62642 6.33337 6.28182 6.33337 7.16667 6.33337H10.8333C11.7182 6.33337 12.3736 6.33337 12.8958 6.36466V5.41671C12.8958 3.2651 11.1516 1.52087 9 1.52087C6.84839 1.52087 5.10417 3.2651 5.10417 5.41671V6.36466ZM9 10.2292C9.3797 10.2292 9.6875 10.537 9.6875 10.9167V14.5834C9.6875 14.9631 9.3797 15.2709 9 15.2709C8.6203 15.2709 8.3125 14.9631 8.3125 14.5834V10.9167C8.3125 10.537 8.6203 10.2292 9 10.2292Z" fill="white" fill-opacity="0.7"/>
</svg>
