<svg width="244" height="48" viewBox="0 0 244 48" fill="none" xmlns="http://www.w3.org/2000/svg">
<path fill-rule="evenodd" clip-rule="evenodd" d="M28.9243 0.0474871H34.4448C36.3357 0.0474438 37.9266 0.0474066 39.2289 0.154856C40.5912 0.26725 41.8888 0.511532 43.1213 1.14573C44.9988 2.11177 46.5252 3.65324 47.4818 5.5492C48.1099 6.79388 48.3518 8.10424 48.4631 9.47988C48.5695 10.795 48.5694 12.4016 48.5694 14.3112V19.5989C48.5694 21.5085 48.5695 23.1151 48.4631 24.4302C48.3518 25.8058 48.1099 27.1162 47.4818 28.3609C46.5252 30.2568 44.9988 31.7983 43.1213 32.7643C41.8888 33.3985 40.5912 33.6428 39.2289 33.7552C37.9266 33.8627 36.3357 33.8626 34.4448 33.8626H17.9589C16.8009 33.8626 15.756 33.161 15.3079 32.0827C14.8598 31.0044 15.0961 29.7598 15.9073 28.9254L29.5214 14.9211L33.6246 18.989L24.8102 28.056H34.3296C36.3661 28.056 37.7205 28.0537 38.7607 27.9679C39.7674 27.8848 40.224 27.7382 40.5108 27.5906C41.3064 27.1813 41.9532 26.5281 42.3585 25.7247C42.5047 25.435 42.6499 24.9739 42.7321 23.9574C42.8171 22.9069 42.8194 21.5391 42.8194 19.4826V14.4274C42.8194 12.3709 42.8171 11.0032 42.7321 9.95272C42.6499 8.93617 42.5047 8.47504 42.3585 8.18536C41.9532 7.38198 41.3064 6.72882 40.5108 6.31948C40.224 6.17188 39.7674 6.02526 38.7607 5.9422C37.7205 5.85638 36.3661 5.85412 34.3296 5.85412H29.0403C26.9816 5.85412 25.6114 5.8564 24.5597 5.9436C23.5413 6.02805 23.0809 6.17715 22.793 6.3266C21.9927 6.74213 21.3446 7.40469 20.9429 8.2179C20.7984 8.51037 20.6564 8.97707 20.5852 10.0065C20.5117 11.0695 20.5261 12.4531 20.5512 14.532L20.5801 16.9196L14.8305 16.9904L14.8002 14.4856C14.7769 12.5547 14.7572 10.9311 14.8491 9.60191C14.9453 8.21229 15.1746 6.88694 15.7975 5.626C16.7455 3.70683 18.2751 2.14318 20.1639 1.16253C21.4048 0.518217 22.7144 0.27044 24.0892 0.156446C25.4042 0.0474063 27.0121 0.0474434 28.9243 0.0474871Z" fill="url(#paint0_linear_1010_3168)"/>
<path fill-rule="evenodd" clip-rule="evenodd" d="M28.9243 0.0474871H34.4448C36.3357 0.0474438 37.9266 0.0474066 39.2289 0.154856C40.5912 0.26725 41.8888 0.511532 43.1213 1.14573C44.9988 2.11177 46.5252 3.65324 47.4818 5.5492C48.1099 6.79388 48.3518 8.10424 48.4631 9.47988C48.5695 10.795 48.5694 12.4016 48.5694 14.3112V19.5989C48.5694 21.5085 48.5695 23.1151 48.4631 24.4302C48.3518 25.8058 48.1099 27.1162 47.4818 28.3609C46.5252 30.2568 44.9988 31.7983 43.1213 32.7643C41.8888 33.3985 40.5912 33.6428 39.2289 33.7552C37.9266 33.8627 36.3357 33.8626 34.4448 33.8626H17.9589C16.8009 33.8626 15.756 33.161 15.3079 32.0827C14.8598 31.0044 15.0961 29.7598 15.9073 28.9254L29.5214 14.9211L33.6246 18.989L24.8102 28.056H34.3296C36.3661 28.056 37.7205 28.0537 38.7607 27.9679C39.7674 27.8848 40.224 27.7382 40.5108 27.5906C41.3064 27.1813 41.9532 26.5281 42.3585 25.7247C42.5047 25.435 42.6499 24.9739 42.7321 23.9574C42.8171 22.9069 42.8194 21.5391 42.8194 19.4826V14.4274C42.8194 12.3709 42.8171 11.0032 42.7321 9.95272C42.6499 8.93617 42.5047 8.47504 42.3585 8.18536C41.9532 7.38198 41.3064 6.72882 40.5108 6.31948C40.224 6.17188 39.7674 6.02526 38.7607 5.9422C37.7205 5.85638 36.3661 5.85412 34.3296 5.85412H29.0403C26.9816 5.85412 25.6114 5.8564 24.5597 5.9436C23.5413 6.02805 23.0809 6.17715 22.793 6.3266C21.9927 6.74213 21.3446 7.40469 20.9429 8.2179C20.7984 8.51037 20.6564 8.97707 20.5852 10.0065C20.5117 11.0695 20.5261 12.4531 20.5512 14.532L20.5801 16.9196L14.8305 16.9904L14.8002 14.4856C14.7769 12.5547 14.7572 10.9311 14.8491 9.60191C14.9453 8.21229 15.1746 6.88694 15.7975 5.626C16.7455 3.70683 18.2751 2.14318 20.1639 1.16253C21.4048 0.518217 22.7144 0.27044 24.0892 0.156446C25.4042 0.0474063 27.0121 0.0474434 28.9243 0.0474871Z" fill="url(#paint1_radial_1010_3168)"/>
<path fill-rule="evenodd" clip-rule="evenodd" d="M28.9243 0.0474871H34.4448C36.3357 0.0474438 37.9266 0.0474066 39.2289 0.154856C40.5912 0.26725 41.8888 0.511532 43.1213 1.14573C44.9988 2.11177 46.5252 3.65324 47.4818 5.5492C48.1099 6.79388 48.3518 8.10424 48.4631 9.47988C48.5695 10.795 48.5694 12.4016 48.5694 14.3112V19.5989C48.5694 21.5085 48.5695 23.1151 48.4631 24.4302C48.3518 25.8058 48.1099 27.1162 47.4818 28.3609C46.5252 30.2568 44.9988 31.7983 43.1213 32.7643C41.8888 33.3985 40.5912 33.6428 39.2289 33.7552C37.9266 33.8627 36.3357 33.8626 34.4448 33.8626H17.9589C16.8009 33.8626 15.756 33.161 15.3079 32.0827C14.8598 31.0044 15.0961 29.7598 15.9073 28.9254L29.5214 14.9211L33.6246 18.989L24.8102 28.056H34.3296C36.3661 28.056 37.7205 28.0537 38.7607 27.9679C39.7674 27.8848 40.224 27.7382 40.5108 27.5906C41.3064 27.1813 41.9532 26.5281 42.3585 25.7247C42.5047 25.435 42.6499 24.9739 42.7321 23.9574C42.8171 22.9069 42.8194 21.5391 42.8194 19.4826V14.4274C42.8194 12.3709 42.8171 11.0032 42.7321 9.95272C42.6499 8.93617 42.5047 8.47504 42.3585 8.18536C41.9532 7.38198 41.3064 6.72882 40.5108 6.31948C40.224 6.17188 39.7674 6.02526 38.7607 5.9422C37.7205 5.85638 36.3661 5.85412 34.3296 5.85412H29.0403C26.9816 5.85412 25.6114 5.8564 24.5597 5.9436C23.5413 6.02805 23.0809 6.17715 22.793 6.3266C21.9927 6.74213 21.3446 7.40469 20.9429 8.2179C20.7984 8.51037 20.6564 8.97707 20.5852 10.0065C20.5117 11.0695 20.5261 12.4531 20.5512 14.532L20.5801 16.9196L14.8305 16.9904L14.8002 14.4856C14.7769 12.5547 14.7572 10.9311 14.8491 9.60191C14.9453 8.21229 15.1746 6.88694 15.7975 5.626C16.7455 3.70683 18.2751 2.14318 20.1639 1.16253C21.4048 0.518217 22.7144 0.27044 24.0892 0.156446C25.4042 0.0474063 27.0121 0.0474434 28.9243 0.0474871Z" fill="url(#paint2_radial_1010_3168)"/>
<path fill-rule="evenodd" clip-rule="evenodd" d="M28.9243 0.0474871H34.4448C36.3357 0.0474438 37.9266 0.0474066 39.2289 0.154856C40.5912 0.26725 41.8888 0.511532 43.1213 1.14573C44.9988 2.11177 46.5252 3.65324 47.4818 5.5492C48.1099 6.79388 48.3518 8.10424 48.4631 9.47988C48.5695 10.795 48.5694 12.4016 48.5694 14.3112V19.5989C48.5694 21.5085 48.5695 23.1151 48.4631 24.4302C48.3518 25.8058 48.1099 27.1162 47.4818 28.3609C46.5252 30.2568 44.9988 31.7983 43.1213 32.7643C41.8888 33.3985 40.5912 33.6428 39.2289 33.7552C37.9266 33.8627 36.3357 33.8626 34.4448 33.8626H17.9589C16.8009 33.8626 15.756 33.161 15.3079 32.0827C14.8598 31.0044 15.0961 29.7598 15.9073 28.9254L29.5214 14.9211L33.6246 18.989L24.8102 28.056H34.3296C36.3661 28.056 37.7205 28.0537 38.7607 27.9679C39.7674 27.8848 40.224 27.7382 40.5108 27.5906C41.3064 27.1813 41.9532 26.5281 42.3585 25.7247C42.5047 25.435 42.6499 24.9739 42.7321 23.9574C42.8171 22.9069 42.8194 21.5391 42.8194 19.4826V14.4274C42.8194 12.3709 42.8171 11.0032 42.7321 9.95272C42.6499 8.93617 42.5047 8.47504 42.3585 8.18536C41.9532 7.38198 41.3064 6.72882 40.5108 6.31948C40.224 6.17188 39.7674 6.02526 38.7607 5.9422C37.7205 5.85638 36.3661 5.85412 34.3296 5.85412H29.0403C26.9816 5.85412 25.6114 5.8564 24.5597 5.9436C23.5413 6.02805 23.0809 6.17715 22.793 6.3266C21.9927 6.74213 21.3446 7.40469 20.9429 8.2179C20.7984 8.51037 20.6564 8.97707 20.5852 10.0065C20.5117 11.0695 20.5261 12.4531 20.5512 14.532L20.5801 16.9196L14.8305 16.9904L14.8002 14.4856C14.7769 12.5547 14.7572 10.9311 14.8491 9.60191C14.9453 8.21229 15.1746 6.88694 15.7975 5.626C16.7455 3.70683 18.2751 2.14318 20.1639 1.16253C21.4048 0.518217 22.7144 0.27044 24.0892 0.156446C25.4042 0.0474063 27.0121 0.0474434 28.9243 0.0474871Z" fill="url(#paint3_radial_1010_3168)"/>
<path fill-rule="evenodd" clip-rule="evenodd" d="M10.7713 41.9721C11.8115 42.0579 13.1659 42.0602 15.2024 42.0602H20.5804C22.4373 42.0602 23.6722 42.0583 24.6235 41.9866C25.5454 41.9171 25.9682 41.794 26.233 41.6713C27.1529 41.2452 27.891 40.4999 28.313 39.5708C28.4344 39.3035 28.5563 38.8765 28.6252 37.9455C28.6962 36.9849 28.698 35.7378 28.698 33.8626H34.4481L34.4481 33.9685C34.4481 35.7099 34.4481 37.1752 34.3592 38.3778C34.2663 39.6344 34.0648 40.8353 33.5393 41.992C32.5434 44.1844 30.8016 45.9434 28.6305 46.9491C27.4851 47.4797 26.2959 47.6833 25.0516 47.7771C23.8607 47.8669 22.4097 47.8669 20.6853 47.8668L15.0872 47.8668C13.1963 47.8669 11.6054 47.8669 10.3031 47.7595C8.94084 47.6471 7.64326 47.4028 6.41071 46.7686C4.53323 45.8025 3.00679 44.2611 2.05017 42.3651C1.42215 41.1204 1.18026 39.8101 1.06895 38.4344C0.962551 37.1193 0.962589 35.5127 0.962635 33.6031V28.3154C0.962589 26.4058 0.962551 24.7992 1.06895 23.4841C1.18026 22.1085 1.42215 20.7981 2.05017 19.5534C3.00679 17.6575 4.53323 16.116 6.41071 15.15C7.64326 14.5158 8.94084 14.2715 10.3031 14.1591C11.6054 14.0516 13.1963 14.0517 15.0873 14.0517H31.5731C33.1609 14.0517 34.4481 15.3516 34.4481 16.955C34.4481 18.5585 33.1609 19.8583 31.5731 19.8583H15.2024C13.1659 19.8583 11.8115 19.8606 10.7713 19.9464C9.76466 20.0295 9.30802 20.1761 9.02117 20.3237C8.22562 20.733 7.57883 21.3862 7.17348 22.1896C7.02732 22.4793 6.88213 22.9404 6.79988 23.9569C6.7149 25.0074 6.71266 26.3752 6.71266 28.4317V33.4869C6.71266 35.5434 6.7149 36.9111 6.79988 37.9616C6.88213 38.9781 7.02732 39.4393 7.17348 39.729C7.57883 40.5323 8.22562 41.1855 9.02117 41.5948C9.30803 41.7424 9.76466 41.889 10.7713 41.9721Z" fill="url(#paint4_linear_1010_3168)"/>
<path fill-rule="evenodd" clip-rule="evenodd" d="M10.7713 41.9721C11.8115 42.0579 13.1659 42.0602 15.2024 42.0602H20.5804C22.4373 42.0602 23.6722 42.0583 24.6235 41.9866C25.5454 41.9171 25.9682 41.794 26.233 41.6713C27.1529 41.2452 27.891 40.4999 28.313 39.5708C28.4344 39.3035 28.5563 38.8765 28.6252 37.9455C28.6962 36.9849 28.698 35.7378 28.698 33.8626H34.4481L34.4481 33.9685C34.4481 35.7099 34.4481 37.1752 34.3592 38.3778C34.2663 39.6344 34.0648 40.8353 33.5393 41.992C32.5434 44.1844 30.8016 45.9434 28.6305 46.9491C27.4851 47.4797 26.2959 47.6833 25.0516 47.7771C23.8607 47.8669 22.4097 47.8669 20.6853 47.8668L15.0872 47.8668C13.1963 47.8669 11.6054 47.8669 10.3031 47.7595C8.94084 47.6471 7.64326 47.4028 6.41071 46.7686C4.53323 45.8025 3.00679 44.2611 2.05017 42.3651C1.42215 41.1204 1.18026 39.8101 1.06895 38.4344C0.962551 37.1193 0.962589 35.5127 0.962635 33.6031V28.3154C0.962589 26.4058 0.962551 24.7992 1.06895 23.4841C1.18026 22.1085 1.42215 20.7981 2.05017 19.5534C3.00679 17.6575 4.53323 16.116 6.41071 15.15C7.64326 14.5158 8.94084 14.2715 10.3031 14.1591C11.6054 14.0516 13.1963 14.0517 15.0873 14.0517H31.5731C33.1609 14.0517 34.4481 15.3516 34.4481 16.955C34.4481 18.5585 33.1609 19.8583 31.5731 19.8583H15.2024C13.1659 19.8583 11.8115 19.8606 10.7713 19.9464C9.76466 20.0295 9.30802 20.1761 9.02117 20.3237C8.22562 20.733 7.57883 21.3862 7.17348 22.1896C7.02732 22.4793 6.88213 22.9404 6.79988 23.9569C6.7149 25.0074 6.71266 26.3752 6.71266 28.4317V33.4869C6.71266 35.5434 6.7149 36.9111 6.79988 37.9616C6.88213 38.9781 7.02732 39.4393 7.17348 39.729C7.57883 40.5323 8.22562 41.1855 9.02117 41.5948C9.30803 41.7424 9.76466 41.889 10.7713 41.9721Z" fill="url(#paint5_radial_1010_3168)"/>
<path d="M78.3378 32.1516V35.1122C78.3378 35.5347 77.9964 35.8798 77.5754 35.8798H61.2969C61.2746 35.8798 61.2496 35.8798 61.2273 35.8773C60.4103 35.8547 59.6923 35.4322 59.2587 34.7973C59.2562 34.7922 59.254 34.7871 59.249 34.7823C59.0509 34.447 58.9371 34.0547 58.9371 33.6319C58.9371 33.1645 59.0781 32.7343 59.3183 32.3742C59.3382 32.3442 59.3581 32.3143 59.3801 32.2866L71.7414 15.006H60.6704C60.252 15.006 59.9102 14.6608 59.9102 14.2357V11.2777C59.9102 10.8527 60.252 10.5075 60.6704 10.5075H76.1861C76.2035 10.5075 76.2208 10.5075 76.2382 10.51C76.2429 10.51 76.2505 10.5075 76.258 10.51C77.1024 10.5326 77.8428 10.9877 78.2685 11.6652C78.2735 11.6729 78.276 11.6776 78.2786 11.6827C78.4517 12.0027 78.5482 12.368 78.5482 12.7555C78.5482 13.2203 78.4072 13.653 78.1669 14.0132C78.1474 14.0431 78.1275 14.0708 78.1051 14.1007L65.7416 31.3839H77.5754C77.9964 31.3839 78.3378 31.7291 78.3378 32.1516Z" fill="white"/>
<path d="M88.7496 32.0767C85.9612 32.0767 83.9335 29.8838 83.9335 26.8507C83.9335 23.78 85.9612 21.5871 88.7496 21.5871C91.5351 21.5871 93.526 23.78 93.526 26.8507C93.526 29.8838 91.5351 32.0767 88.7496 32.0767ZM97.4731 17.8213H94.2887C93.8678 17.8213 93.526 18.1664 93.526 18.5893V20.707C92.0799 18.6616 89.8365 17.4538 87.2291 17.4538C82.5221 17.4538 79.0826 21.4046 79.0826 26.8507C79.0826 32.2967 82.5221 36.21 87.2291 36.21C89.8365 36.21 92.0799 35.0048 93.526 32.9918V35.0748C93.526 35.5197 93.8851 35.8798 94.3234 35.8798H97.4731C97.9139 35.8798 98.2705 35.5197 98.2705 35.0748V18.624C98.2705 18.1814 97.9139 17.8213 97.4731 17.8213Z" fill="white"/>
<path d="M112.472 17.4545C110.01 17.4545 107.981 18.6243 106.823 20.5631V18.5886C106.823 18.0769 106.534 17.8209 106.063 17.8209H102.876C102.407 17.8209 102.118 18.0769 102.118 18.5886V35.0758C102.118 35.5875 102.407 35.8807 102.876 35.8807H106.063C106.534 35.8807 106.823 35.5875 106.823 35.0758V25.2784C106.823 22.8655 108.344 21.2572 110.624 21.2572C112.833 21.2572 114.318 22.8655 114.318 25.2784V35.0758C114.318 35.5203 114.674 35.8807 115.113 35.8807H118.264C118.703 35.8807 119.06 35.5203 119.06 35.0758V24.5846C119.06 20.379 116.344 17.4545 112.472 17.4545Z" fill="white"/>
<path d="M131.356 32.0767C128.568 32.0767 126.579 29.8838 126.579 26.8507C126.579 23.78 128.568 21.5871 131.356 21.5871C134.181 21.5871 136.172 23.78 136.172 26.8507C136.172 29.8838 134.181 32.0767 131.356 32.0767ZM131.393 17.4538C125.782 17.4538 121.726 21.4046 121.726 26.8507C121.726 32.2967 125.782 36.21 131.393 36.21C136.969 36.21 141.023 32.2967 141.023 26.8507C141.023 21.4046 136.969 17.4538 131.393 17.4538Z" fill="white"/>
<path d="M149.142 10.47H167.382C167.678 10.47 167.9 10.692 167.9 11.025V12.616C167.9 12.986 167.715 13.171 167.382 13.171H159.76V35.482C159.76 35.815 159.575 36 159.242 36H157.281C156.948 36 156.763 35.815 156.763 35.482V13.171H149.142C148.809 13.171 148.624 12.986 148.624 12.616V11.025C148.624 10.692 148.809 10.47 149.142 10.47Z" fill="#1F8FEB"/>
<path d="M176.923 17.5C177.256 17.426 177.478 17.648 177.478 17.981V19.72C177.478 20.053 177.293 20.238 176.923 20.275C172.816 20.423 170.448 22.791 170.448 26.824V35.482C170.448 35.778 170.263 36 169.893 36H168.154C167.784 36 167.599 35.815 167.599 35.482V18.425C167.599 18.092 167.784 17.87 168.154 17.87H169.893C170.263 17.87 170.448 18.092 170.448 18.425V22.273C171.558 19.387 173.778 17.722 176.923 17.5Z" fill="#1F8FEB"/>
<path d="M195.462 17.87H197.238C197.571 17.87 197.756 18.092 197.756 18.425V35.482C197.756 35.815 197.571 36 197.238 36H195.462C195.129 36 194.944 35.815 194.944 35.482V32.67C193.353 34.927 190.8 36.333 187.692 36.333C182.475 36.333 178.701 32.374 178.701 26.935C178.701 21.496 182.475 17.574 187.692 17.574C190.8 17.574 193.353 18.943 194.944 21.2V18.425C194.944 18.092 195.129 17.87 195.462 17.87ZM188.284 33.854C192.132 33.854 194.944 30.968 194.944 26.935C194.944 22.939 192.132 20.053 188.284 20.053C184.399 20.053 181.587 22.939 181.587 26.935C181.587 30.968 184.399 33.854 188.284 33.854Z" fill="#1F8FEB"/>
<path d="M218.297 10.47H220.073C220.406 10.47 220.591 10.692 220.591 11.025V35.482C220.591 35.778 220.406 36 220.073 36H218.297C217.964 36 217.779 35.815 217.779 35.482V32.67C216.188 34.927 213.635 36.333 210.527 36.333C205.31 36.333 201.537 32.374 201.537 26.935C201.537 21.496 205.31 17.574 210.527 17.574C213.635 17.574 216.188 18.943 217.779 21.2V11.025C217.779 10.692 217.964 10.47 218.297 10.47ZM211.119 33.854C214.967 33.854 217.779 30.968 217.779 26.935C217.779 22.939 214.967 20.053 211.119 20.053C207.234 20.053 204.422 22.939 204.422 26.935C204.422 30.968 207.234 33.854 211.119 33.854Z" fill="#1F8FEB"/>
<path d="M243.5 26.935C243.5 27.416 243.463 27.749 242.908 27.749H227.147C227.517 31.412 230.254 34.002 233.991 34.002C236.84 34.002 239.356 32.189 240.244 29.599C240.355 29.451 240.466 29.377 240.725 29.377H242.575C242.982 29.377 243.167 29.636 243.019 30.006C241.835 33.706 238.172 36.333 233.954 36.333C228.405 36.333 224.372 32.374 224.372 26.935C224.372 21.496 228.405 17.574 233.954 17.574C239.504 17.574 243.5 21.459 243.5 26.935ZM233.991 19.905C230.439 19.905 227.739 22.236 227.221 25.64H240.836C240.318 22.273 237.543 19.905 233.991 19.905Z" fill="#1F8FEB"/>
<rect x="117" y="3" width="28" height="11" rx="5.5" fill="url(#paint6_linear_1010_3168)"/>
<path d="M124.739 8.46C125.107 8.54 125.4 8.7 125.619 8.94C125.837 9.17467 125.947 9.47333 125.947 9.836C125.947 10.9453 125.237 11.5 123.819 11.5H121.107V5.828H123.651C124.259 5.828 124.72 5.948 125.035 6.188C125.355 6.428 125.515 6.772 125.515 7.22C125.515 7.85467 125.256 8.268 124.739 8.46ZM122.235 6.804V8.188H123.539C124.125 8.188 124.419 7.948 124.419 7.468C124.419 7.24933 124.347 7.084 124.203 6.972C124.059 6.86 123.856 6.804 123.595 6.804H122.235ZM123.827 10.516C124.461 10.516 124.779 10.276 124.779 9.796C124.779 9.32667 124.424 9.092 123.715 9.092H122.235V10.516H123.827ZM126.685 11.5V5.828H130.805V6.852H127.781V8.22H130.325V9.188H127.781V10.484H130.933V11.5H126.685ZM133.211 11.5V6.892H131.403V5.828H136.171V6.892H134.363V11.5H133.211ZM140.228 11.5L139.732 10.42H137.252L136.764 11.5H135.532L138.124 5.804H138.86L141.46 11.5H140.228ZM138.492 7.3L138.06 8.46L137.636 9.468H139.356L138.932 8.46L138.492 7.3Z" fill="white"/>
<defs>
<linearGradient id="paint0_linear_1010_3168" x1="23.6462" y1="33.6" x2="24.0303" y2="0.00441651" gradientUnits="userSpaceOnUse">
<stop offset="0.43118" stop-color="#498FFD"/>
<stop offset="1" stop-color="#16D1D6"/>
</linearGradient>
<radialGradient id="paint1_radial_1010_3168" cx="0" cy="0" r="1" gradientUnits="userSpaceOnUse" gradientTransform="translate(14.3818 10.2857) rotate(-15.561) scale(21.727 21.6786)">
<stop stop-color="#18CFD7"/>
<stop offset="1" stop-color="#18CFD7" stop-opacity="0"/>
</radialGradient>
<radialGradient id="paint2_radial_1010_3168" cx="0" cy="0" r="1" gradientUnits="userSpaceOnUse" gradientTransform="translate(27.0775 19.8857) rotate(152.372) scale(8.13294 8.11663)">
<stop stop-color="#4990FE"/>
<stop offset="0.353962" stop-color="#4990FE"/>
<stop offset="1" stop-color="#4990FE" stop-opacity="0"/>
</radialGradient>
<radialGradient id="paint3_radial_1010_3168" cx="0" cy="0" r="1" gradientUnits="userSpaceOnUse" gradientTransform="translate(17.1268 30.8572) rotate(-45.9169) scale(14.7962 14.7735)">
<stop stop-color="#4990FE"/>
<stop offset="0.405688" stop-color="#4990FE"/>
<stop offset="1" stop-color="#4990FE" stop-opacity="0"/>
</radialGradient>
<linearGradient id="paint4_linear_1010_3168" x1="34.6262" y1="48" x2="34.7497" y2="13.7147" gradientUnits="userSpaceOnUse">
<stop stop-color="#2950FF"/>
<stop offset="0.821717" stop-color="#498FFD"/>
</linearGradient>
<radialGradient id="paint5_radial_1010_3168" cx="0" cy="0" r="1" gradientUnits="userSpaceOnUse" gradientTransform="translate(34.6262 33.6) rotate(129.311) scale(14.6233 14.4717)">
<stop offset="0.337169" stop-color="#2950FF"/>
<stop offset="0.792226" stop-color="#2950FF" stop-opacity="0"/>
</radialGradient>
<linearGradient id="paint6_linear_1010_3168" x1="117" y1="14" x2="130.324" y2="-6.52643" gradientUnits="userSpaceOnUse">
<stop stop-color="#4D89FF"/>
<stop offset="1" stop-color="#16D1D6"/>
</linearGradient>
</defs>
</svg>
