<svg width="26" height="28" viewBox="0 0 26 28" fill="none" xmlns="http://www.w3.org/2000/svg">
<path d="M12.6031 23.4868L13.1877 24.2981L12.6031 23.4868ZM12.6667 23.4411L13.2461 24.2561L12.6667 23.4411ZM16.0844 22.3361L16.0908 23.336L16.0844 22.3361ZM7.47508 24.1644L8.40469 24.533L7.47508 24.1644ZM9.47017 25.7446L8.88551 24.9333V24.9333L9.47017 25.7446ZM24.7576 17.9856L25.7179 18.2647L24.7576 17.9856ZM20.6882 22.0914L20.9719 23.0503L20.6882 22.0914ZM4.27606 2.65547L4.73326 3.54483L4.27606 2.65547ZM1.65396 5.30101L2.54659 5.7518L1.65396 5.30101ZM21.7239 2.65547L21.2667 3.54483L21.7239 2.65547ZM24.346 5.30101L23.4534 5.7518L24.346 5.30101ZM8 14.5C7.44772 14.5 7 14.9477 7 15.5C7 16.0523 7.44772 16.5 8 16.5V14.5ZM18 16.5C18.5523 16.5 19 16.0523 19 15.5C19 14.9477 18.5523 14.5 18 14.5V16.5ZM8 9C7.44772 9 7 9.44772 7 10C7 10.5523 7.44772 11 8 11V9ZM18 11C18.5523 11 19 10.5523 19 10C19 9.44772 18.5523 9 18 9V11ZM15.4 0.995659H10.6V2.99566H15.4V0.995659ZM0 11.6815V17.7695H2V11.6815H0ZM26 13.1153V11.6815H24V13.1153H26ZM5.52599 23.3359H6.24809V21.3359H5.52599V23.3359ZM10.0548 26.5559L13.1877 24.2981L12.0184 22.6755L8.88551 24.9333L10.0548 26.5559ZM16.1625 23.3359H16.8211V21.3359H16.1625V23.3359ZM13.1877 24.2981C13.2206 24.2744 13.2336 24.265 13.2461 24.2561L12.0872 22.6261C12.0683 22.6395 12.0494 22.6532 12.0184 22.6755L13.1877 24.2981ZM16.1625 21.3359C16.1244 21.3359 16.1011 21.3359 16.0779 21.3361L16.0908 23.336C16.1061 23.3359 16.122 23.3359 16.1625 23.3359V21.3359ZM13.2461 24.2561C14.08 23.6633 15.0727 23.3426 16.0908 23.336L16.0779 21.3361C14.6475 21.3453 13.255 21.7959 12.0872 22.6261L13.2461 24.2561ZM6.24809 23.3359C6.46346 23.3359 6.63739 23.564 6.54547 23.7959L8.40469 24.533C9.00721 23.0132 7.90257 21.3359 6.24809 21.3359V23.3359ZM6.54547 23.7959C5.70097 25.926 8.13946 27.9362 10.0548 26.5559L8.88551 24.9333C8.80248 24.9932 8.73875 25.0022 8.69172 24.9996C8.63582 24.9965 8.56902 24.9737 8.50694 24.9245C8.4449 24.8754 8.40451 24.8132 8.38663 24.7538C8.37116 24.7024 8.36542 24.632 8.40469 24.533L6.54547 23.7959ZM24 13.1153C24 14.1429 23.9999 15.1328 23.9703 15.9693C23.9396 16.8402 23.8788 17.4261 23.7973 17.7065L25.7179 18.2647C25.8788 17.711 25.9392 16.8842 25.9691 16.0399C26.0001 15.1609 26 14.1327 26 13.1153H24ZM16.8211 23.3359C18.7771 23.3359 19.9713 23.3463 20.9719 23.0503L20.4045 21.1324C19.7517 21.3256 18.919 21.3359 16.8211 21.3359V23.3359ZM23.7973 17.7065C23.3165 19.3609 22.0359 20.6498 20.4045 21.1324L20.9719 23.0503C23.2624 22.3727 25.0487 20.5672 25.7179 18.2647L23.7973 17.7065ZM0 17.7695C0 20.8353 2.46569 23.3359 5.52599 23.3359V21.3359C3.58701 21.3359 2 19.7476 2 17.7695H0ZM10.6 0.995659C8.93649 0.995659 7.62818 0.994867 6.57706 1.08152C5.51399 1.16915 4.62584 1.35125 3.81885 1.76611L4.73326 3.54483C5.20975 3.29988 5.8034 3.15207 6.74137 3.07475C7.69127 2.99645 8.90319 2.99566 10.6 2.99566V0.995659ZM2 11.6815C2 9.96997 2.00076 8.74592 2.07848 7.78619C2.15528 6.83787 2.30227 6.23559 2.54659 5.7518L0.76133 4.85022C0.35169 5.66138 0.171704 6.55416 0.0850079 7.62476C-0.000764132 8.68395 0 10.0027 0 11.6815H2ZM3.81885 1.76611C2.50101 2.44358 1.43123 3.52372 0.761329 4.85022L2.54659 5.7518C3.02718 4.80016 3.79316 4.02812 4.73326 3.54483L3.81885 1.76611ZM15.4 2.99566C17.0968 2.99566 18.3087 2.99645 19.2586 3.07475C20.1966 3.15207 20.7903 3.29988 21.2667 3.54483L22.1811 1.76611C21.3742 1.35125 20.486 1.16915 19.4229 1.08152C18.3718 0.994867 17.0635 0.995659 15.4 0.995659V2.99566ZM26 11.6815C26 10.0027 26.0008 8.68395 25.915 7.62476C25.8283 6.55416 25.6483 5.66138 25.2387 4.85022L23.4534 5.7518C23.6977 6.23559 23.8447 6.83787 23.9215 7.78619C23.9992 8.74592 24 9.96997 24 11.6815H26ZM21.2667 3.54483C22.2068 4.02812 22.9728 4.80017 23.4534 5.7518L25.2387 4.85022C24.5688 3.52372 23.499 2.44358 22.1811 1.76611L21.2667 3.54483ZM8 16.5H18V14.5H8V16.5ZM8 11L18 11V9L8 9V11Z" fill="#FAFAFA"/>
</svg>
