<svg width="30" height="30" viewBox="0 0 30 30" fill="none" xmlns="http://www.w3.org/2000/svg">
<g id="moon_icon">
<path id="Vector" d="M27 19.1909C26.2328 21.1012 25.0039 22.7913 23.4233 24.1101C21.8426 25.4288 19.9596 26.335 17.9429 26.7475C15.9261 27.16 13.8385 27.0659 11.867 26.4737C9.8955 25.8814 8.10165 24.8095 6.64605 23.3539C5.19046 21.8983 4.11855 20.1045 3.52631 18.133C2.93407 16.1615 2.83999 14.0739 3.25248 12.0572C3.66498 10.0404 4.57117 8.15737 5.88993 6.57674C7.20869 4.99611 8.89884 3.76718 10.8091 3C10.2115 4.47494 9.90568 6.05175 9.90846 7.64313C9.91375 10.943 11.227 14.1063 13.5604 16.4396C15.8937 18.773 19.057 20.0862 22.3569 20.0915C23.9482 20.0943 25.5251 19.7885 27 19.1909Z" stroke="#0C0C3A" stroke-width="2" stroke-linecap="round" stroke-linejoin="round"/>
</g>
</svg>
