<svg width="133" height="123" viewBox="0 0 133 123" fill="none" xmlns="http://www.w3.org/2000/svg">
<g opacity="0.7">
<path fill-rule="evenodd" clip-rule="evenodd" d="M131.468 8.57769C133.309 6.89836 133.441 4.04441 131.761 2.20322C130.082 0.362023 127.228 0.230807 125.387 1.91014L2.20395 114.264C0.362756 115.943 0.23154 118.797 1.91087 120.638C3.5902 122.479 6.44415 122.611 8.28534 120.931L28.1106 102.849C28.9798 102.948 29.8636 102.998 30.7593 102.998H34.4701C39.2745 102.998 42.5598 107.85 40.7754 112.31C38.2565 118.607 45.5089 124.3 51.028 120.358L67.1275 108.859L67.4546 108.627C72.5976 105.003 78.7262 103.039 85.0176 102.999L85.5113 102.998C87.435 102.998 88.3968 102.998 89.1255 102.964C105.008 102.212 117.714 89.5068 118.466 73.6259C118.501 72.8973 118.501 72.0352 118.501 70.311V53.6698C118.501 37.7796 118.501 29.2012 115.881 22.7943L131.468 8.57769ZM70.1993 64.4604L60.0587 73.7094H87.6674C90.2217 73.7094 92.2924 71.639 92.2924 69.0849C92.2924 66.5309 90.2217 64.4604 87.6674 64.4604H70.1993ZM101.665 7.70179C102.573 8.16442 103.455 8.67018 104.307 9.21647L74.1602 36.7132H38.334C35.7797 36.7132 33.709 38.7837 33.709 41.3377C33.709 43.8918 35.7797 45.9623 38.334 45.9623H64.0197L43.7386 64.4604H38.334C35.7797 64.4604 33.709 66.5309 33.709 69.0849C33.709 70.3667 34.2306 71.5266 35.073 72.3642L11.9631 93.4424C9.15694 89.5999 7.50072 84.8643 7.50072 79.742V53.6698C7.50072 36.4033 7.50072 27.77 10.8613 21.1751C13.8174 15.374 18.5343 10.6576 24.336 7.70179C30.9316 4.3415 39.5658 4.3415 56.834 4.3415H69.1674C86.4357 4.3415 95.0698 4.3415 101.665 7.70179Z" fill="white"/>
</g>
</svg>
