<svg width="133" height="125" viewBox="0 0 133 125" fill="none" xmlns="http://www.w3.org/2000/svg">
<path opacity="0.7" fill-rule="evenodd" clip-rule="evenodd" d="M105.79 6.22196C106.473 6.71814 107.134 7.24157 107.773 7.79074L80.4537 32.7083H38.3333C35.779 32.7083 33.7083 34.779 33.7083 37.3333C33.7083 39.8876 35.779 41.9583 38.3333 41.9583H70.3121L53.4095 57.375H38.3333C35.779 57.375 33.7083 59.4457 33.7083 62C33.7083 64.5543 35.779 66.625 38.3333 66.625H43.2679L8.63316 98.2149C7.5 91.0127 7.5 81.5165 7.5 68.1666V55.8333C7.5 32.71 7.5 21.1483 13.3886 13.0433C15.2904 10.4257 17.5924 8.12374 20.21 6.22196C28.315 0.333313 39.8767 0.333313 63 0.333313C86.1233 0.333313 97.685 0.333313 105.79 6.22196ZM80.1604 57.375L70.0188 66.625H87.6667C90.221 66.625 92.2917 64.5543 92.2917 62C92.2917 59.4457 90.221 57.375 87.6667 57.375H80.1604ZM53.1162 82.0416L42.9746 91.2916H56.8333C59.3876 91.2916 61.4583 89.221 61.4583 86.6666C61.4583 84.1123 59.3876 82.0416 56.8333 82.0416H53.1162ZM16.9401 115.037L8.28534 122.931C6.44415 124.611 3.5902 124.479 1.91087 122.638C0.23154 120.797 0.362756 117.943 2.20395 116.264L125.387 3.91014C127.228 2.23081 130.082 2.36202 131.761 4.20322C133.441 6.04441 133.309 8.89836 131.468 10.5777L117.007 23.7676C118.5 31.1948 118.5 41.1984 118.5 55.8333V68.1666C118.5 91.29 118.5 102.852 112.611 110.957C110.71 113.574 108.408 115.876 105.79 117.778C97.685 123.667 86.1233 123.667 63 123.667C39.8767 123.667 28.315 123.667 20.21 117.778C19.0563 116.94 17.9639 116.024 16.9401 115.037Z" fill="white"/>
</svg>
