<svg width="26" height="28" viewBox="0 0 26 28" fill="none" xmlns="http://www.w3.org/2000/svg">
<path d="M4.32634 25.3064L4.91413 24.4973L4.32634 25.3064ZM2.94364 23.9237L3.75266 23.3359L2.94364 23.9237ZM23.0564 23.9237L22.2473 23.3359L23.0564 23.9237ZM21.6737 25.3064L21.0859 24.4973L21.6737 25.3064ZM21.6737 2.69364L21.0859 3.50266L21.6737 2.69364ZM23.0564 4.07634L22.2473 4.66413L23.0564 4.07634ZM4.32634 2.69364L4.91413 3.50266L4.32634 2.69364ZM2.94364 4.07634L3.75266 4.66413L2.94364 4.07634ZM8 8C7.44772 8 7 8.44772 7 9C7 9.55229 7.44772 10 8 10V8ZM18 10C18.5523 10 19 9.55229 19 9C19 8.44772 18.5523 8 18 8V10ZM8 13C7.44772 13 7 13.4477 7 14C7 14.5523 7.44772 15 8 15V13ZM18 15C18.5523 15 19 14.5523 19 14C19 13.4477 18.5523 13 18 13V15ZM8 18C7.44772 18 7 18.4477 7 19C7 19.5523 7.44772 20 8 20V18ZM11.75 20C12.3023 20 12.75 19.5523 12.75 19C12.75 18.4477 12.3023 18 11.75 18V20ZM23.25 12.75V15.25H25.25V12.75H23.25ZM2.75 15.25V12.75H0.75V15.25H2.75ZM13 25.5C10.6341 25.5 8.94007 25.4986 7.62929 25.3566C6.33722 25.2166 5.5367 24.9497 4.91413 24.4973L3.73856 26.1154C4.75889 26.8567 5.95162 27.1866 7.41386 27.345C8.85739 27.5014 10.6787 27.5 13 27.5V25.5ZM0.75 15.25C0.75 17.5713 0.748627 19.3926 0.905023 20.8361C1.06345 22.2984 1.39331 23.4911 2.13463 24.5114L3.75266 23.3359C3.30033 22.7133 3.03337 21.9128 2.89339 20.6207C2.75137 19.3099 2.75 17.6159 2.75 15.25H0.75ZM4.91413 24.4973C4.46843 24.1735 4.07648 23.7816 3.75266 23.3359L2.13463 24.5114C2.5818 25.1269 3.12307 25.6682 3.73856 26.1154L4.91413 24.4973ZM23.25 15.25C23.25 17.6159 23.2486 19.3099 23.1066 20.6207C22.9666 21.9128 22.6997 22.7133 22.2473 23.3359L23.8654 24.5114C24.6067 23.4911 24.9366 22.2984 25.095 20.8361C25.2514 19.3926 25.25 17.5713 25.25 15.25H23.25ZM13 27.5C15.3213 27.5 17.1426 27.5014 18.5861 27.345C20.0484 27.1866 21.2411 26.8567 22.2614 26.1154L21.0859 24.4973C20.4633 24.9497 19.6628 25.2166 18.3707 25.3566C17.0599 25.4986 15.3659 25.5 13 25.5V27.5ZM22.2473 23.3359C21.9235 23.7816 21.5316 24.1735 21.0859 24.4973L22.2614 26.1154C22.8769 25.6682 23.4182 25.1269 23.8654 24.5114L22.2473 23.3359ZM13 2.5C15.3659 2.5 17.0599 2.50137 18.3707 2.64339C19.6628 2.78337 20.4633 3.05033 21.0859 3.50266L22.2614 1.88463C21.2411 1.14331 20.0484 0.813447 18.5861 0.655023C17.1426 0.498627 15.3213 0.5 13 0.5V2.5ZM25.25 12.75C25.25 10.4287 25.2514 8.60739 25.095 7.16386C24.9366 5.70162 24.6067 4.50889 23.8654 3.48856L22.2473 4.66413C22.6997 5.2867 22.9666 6.08722 23.1066 7.37929C23.2486 8.69007 23.25 10.3841 23.25 12.75H25.25ZM21.0859 3.50266C21.5316 3.82648 21.9235 4.21843 22.2473 4.66413L23.8654 3.48856C23.4182 2.87307 22.8769 2.3318 22.2614 1.88463L21.0859 3.50266ZM13 0.5C10.6787 0.5 8.85739 0.498627 7.41386 0.655023C5.95162 0.813447 4.75889 1.14331 3.73856 1.88463L4.91413 3.50266C5.5367 3.05033 6.33722 2.78337 7.62929 2.64339C8.94007 2.50137 10.6341 2.5 13 2.5V0.5ZM2.75 12.75C2.75 10.3841 2.75137 8.69007 2.89339 7.37929C3.03337 6.08722 3.30033 5.2867 3.75266 4.66413L2.13463 3.48856C1.39331 4.50889 1.06345 5.70162 0.905023 7.16386C0.748627 8.60739 0.75 10.4287 0.75 12.75H2.75ZM3.73856 1.88463C3.12307 2.3318 2.5818 2.87307 2.13463 3.48856L3.75266 4.66413C4.07648 4.21843 4.46843 3.82648 4.91413 3.50266L3.73856 1.88463ZM8 10H18V8H8V10ZM8 15H18V13H8V15ZM8 20H11.75V18H8V20Z" fill="white"/>
</svg>
