<svg width="18" height="18" viewBox="0 0 18 18" fill="none" xmlns="http://www.w3.org/2000/svg">
<g id="persons_icon">
<g id="WvJpQr">
<path id="Vector" d="M10.5982 17.0008C10.6053 17.0558 10.5911 17.1114 10.5583 17.158C10.5255 17.2046 10.4759 17.2393 10.4182 17.2563C9.70684 17.5425 8.95677 17.7406 8.18794 17.8451C5.92564 18.1834 3.71244 17.9436 1.52926 17.3647C1.40444 17.3317 1.28168 17.288 1.15414 17.2656C1.0266 17.2432 0.999317 17.1802 1.00068 17.0706C1.00682 16.6039 1.00068 16.1359 1.00068 15.6704H1.00546C1.00546 15.2505 0.99318 14.8305 1.00546 14.4111C1.06343 12.7287 2.46228 11.3504 4.30922 11.2432C5.35687 11.1797 6.40821 11.1865 7.45476 11.2638C9.02684 11.384 10.3316 12.5929 10.5416 14.0173C10.5739 14.2642 10.5892 14.5127 10.5873 14.7613C10.5982 15.5078 10.5901 16.2543 10.5982 17.0008Z" fill="#1F8FEB"/>
<path id="Vector_2" d="M16.9989 13.0197C17.0039 13.0664 16.9916 13.1133 16.9639 13.1527C16.9362 13.192 16.8949 13.2213 16.8469 13.2358C16.0401 13.5888 15.1841 13.7778 14.3072 13.8914C13.9309 13.9404 13.5498 13.9604 13.1714 13.9979C13.0742 14.0076 13.027 13.9863 13.0041 13.8908C12.6361 12.3628 11.651 11.3446 10.0646 10.8245C10.0424 10.8152 10.0208 10.8046 10 10.7929C11.1067 9.68171 11.3559 8.42409 10.7373 7H10.9574C11.7315 7 12.5049 7 13.2783 7C14.9106 7.0071 16.2442 7.88078 16.7983 9.30681C16.9364 9.67765 17.0034 10.0682 16.9961 10.4605C16.9934 11.3136 16.9934 12.1666 16.9989 13.0197Z" fill="#1F8FEB"/>
<path id="Vector_3" d="M8.99999 7.20928C8.99961 7.6031 8.92151 7.99299 8.77017 8.35659C8.61883 8.72019 8.39722 9.05037 8.11803 9.32821C7.83884 9.60604 7.50757 9.82607 7.14318 9.9757C6.7788 10.1253 6.38846 10.2016 5.99454 10.2002C5.60057 10.1997 5.21056 10.1216 4.8468 9.97034C4.48303 9.81908 4.15266 9.59763 3.87455 9.31864C3.59644 9.03966 3.37606 8.70861 3.226 8.34443C3.07594 7.98024 2.99915 7.59006 3.00001 7.19618C3.00289 6.40059 3.32104 5.63858 3.88477 5.07704C4.4485 4.51549 5.21185 4.20019 6.00764 4.2002C6.8034 4.20308 7.56548 4.5216 8.12653 5.08578C8.68758 5.64997 9.00173 6.41371 8.99999 7.20928Z" fill="#1F8FEB"/>
<path id="Vector_4" d="M15 2.99526C15.0011 3.38925 14.9245 3.7796 14.7746 4.14395C14.6246 4.50831 14.4043 4.83952 14.1261 5.11862C13.848 5.39772 13.5175 5.61922 13.1536 5.77046C12.7897 5.9217 12.3995 5.99969 12.0055 5.99997C11.6115 6.0017 11.221 5.92561 10.8565 5.77609C10.492 5.62656 10.1606 5.40655 9.88133 5.12865C9.60209 4.85076 9.38049 4.52046 9.22925 4.15673C9.07801 3.793 9.0001 3.40299 9.00001 3.00908C8.99788 2.21352 9.31181 1.44967 9.87279 0.885422C10.4338 0.321172 11.1959 0.00269805 11.9916 8.06252e-07C12.7875 -0.00058162 13.5512 0.31441 14.1151 0.875901C14.6791 1.43739 14.9973 2.19956 15 2.99526Z" fill="#1F8FEB"/>
</g>
</g>
</svg>
