<svg width="24" height="24" viewBox="0 0 24 24" fill="none" xmlns="http://www.w3.org/2000/svg">
<circle cx="12" cy="12" r="11.375" stroke="#1F8FEB" stroke-width="1.25"/>
<path d="M10.9898 14.6042V14.5354C10.9974 13.805 11.074 13.2237 11.2194 12.7916C11.3648 12.3595 11.5714 12.0096 11.8393 11.7419C12.1071 11.4742 12.4286 11.2275 12.8036 11.0019C13.0293 10.8642 13.2321 10.7017 13.412 10.5143C13.5918 10.3231 13.7334 10.1033 13.8367 9.85468C13.9439 9.60612 13.9974 9.33078 13.9974 9.02868C13.9974 8.65392 13.9094 8.32887 13.7334 8.05354C13.5574 7.7782 13.3221 7.56597 13.0274 7.41683C12.7328 7.26769 12.4056 7.19312 12.0459 7.19312C11.7321 7.19312 11.4298 7.25813 11.139 7.38815C10.8482 7.51816 10.6052 7.72275 10.4101 8.00191C10.2149 8.28107 10.102 8.64627 10.0714 9.09751H8.625C8.65561 8.44742 8.82398 7.89101 9.1301 7.4283C9.44005 6.96558 9.84758 6.61185 10.3527 6.36711C10.8616 6.12237 11.426 6 12.0459 6C12.7194 6 13.3048 6.13384 13.8023 6.40153C14.3036 6.66922 14.6901 7.03633 14.9617 7.50287C15.2372 7.96941 15.375 8.50096 15.375 9.09751C15.375 9.51816 15.3099 9.89866 15.1798 10.239C15.0536 10.5793 14.8699 10.8834 14.6288 11.1511C14.3916 11.4187 14.1046 11.6558 13.7679 11.8623C13.4311 12.0727 13.1614 12.2945 12.9585 12.5277C12.7557 12.7572 12.6084 13.0306 12.5166 13.348C12.4247 13.6654 12.375 14.0612 12.3673 14.5354V14.6042H10.9898ZM11.7245 18C11.4413 18 11.1983 17.8987 10.9955 17.696C10.7927 17.4933 10.6913 17.2505 10.6913 16.9675C10.6913 16.6845 10.7927 16.4417 10.9955 16.239C11.1983 16.0363 11.4413 15.935 11.7245 15.935C12.0077 15.935 12.2506 16.0363 12.4534 16.239C12.6563 16.4417 12.7577 16.6845 12.7577 16.9675C12.7577 17.1549 12.7098 17.327 12.6142 17.4837C12.5223 17.6405 12.398 17.7667 12.2411 17.8623C12.088 17.9541 11.9158 18 11.7245 18Z" fill="#1F8FEB"/>
</svg>
