<svg width="20" height="20" viewBox="0 0 20 20" fill="none" xmlns="http://www.w3.org/2000/svg">
<g opacity="0.7" clip-path="url(#clip0_3287_13243)">
<path d="M2.41797 10C2.41797 9.5858 2.08218 9.25001 1.66797 9.25001C1.25376 9.25001 0.917969 9.5858 0.917969 10H2.41797ZM17.5846 10C17.5846 10.4142 17.9204 10.75 18.3346 10.75C18.7488 10.75 19.0846 10.4142 19.0846 10H17.5846ZM3.66831 4.58334L4.20831 5.10383L4.22366 5.0879L4.23805 5.0711L3.66831 4.58334ZM16.3343 15.4167L16.904 15.9044L16.9133 15.8936L16.9221 15.8824L16.3343 15.4167ZM3.47021 0.83669C3.47206 0.42248 3.13777 0.085199 2.72356 0.083351C2.30935 0.081503 1.97207 0.415788 1.97022 0.829997L3.47021 0.83669ZM2.71283 2.4881L1.96284 2.48476V2.48476L2.71283 2.4881ZM5.7795 5.55477L5.78285 6.30476H5.78285L5.7795 5.55477ZM7.43761 6.29738C7.85182 6.29553 8.1861 5.95825 8.18425 5.54404C8.1824 5.12983 7.84512 4.79555 7.43091 4.7974L7.43761 6.29738ZM3.05329 4.9189L2.46016 5.37792L2.46016 5.37792L3.05329 4.9189ZM3.3487 5.21431L2.88968 5.80744L2.88968 5.80744L3.3487 5.21431ZM16.4654 19.0963C16.4635 19.5105 16.7978 19.8478 17.212 19.8497C17.6262 19.8515 17.9635 19.5172 17.9653 19.103L16.4654 19.0963ZM17.2227 17.4449L17.9727 17.4483L17.2227 17.4449ZM14.1561 14.3782L14.1527 13.6282L14.1561 14.3782ZM12.498 13.6356C12.0838 13.6375 11.7495 13.9748 11.7513 14.389C11.7532 14.8032 12.0904 15.1375 12.5047 15.1356L12.498 13.6356ZM16.8823 15.0141L17.4754 14.5551L17.4754 14.5551L16.8823 15.0141ZM16.5869 14.7187L17.0459 14.1256H17.0459L16.5869 14.7187ZM3.19257 5.07693L2.66267 5.60769L3.19257 5.07693ZM10.0013 17.5833C5.81314 17.5833 2.41797 14.1882 2.41797 10H0.917969C0.917969 15.0166 4.98472 19.0833 10.0013 19.0833V17.5833ZM10.0013 2.41668C14.1895 2.41668 17.5846 5.81185 17.5846 10H19.0846C19.0846 4.98342 15.0179 0.916677 10.0013 0.916677V2.41668ZM4.23805 5.0711C5.63004 3.44516 7.69516 2.41668 10.0013 2.41668V0.916677C7.23861 0.916677 4.76339 2.15098 3.09858 4.09559L4.23805 5.0711ZM15.7646 14.9289C14.3726 16.5549 12.3074 17.5833 10.0013 17.5833V19.0833C12.764 19.0833 15.2392 17.849 16.904 15.9044L15.7646 14.9289ZM1.97022 0.829997L1.96284 2.48476L3.46282 2.49145L3.47021 0.83669L1.97022 0.829997ZM5.78285 6.30476L7.43761 6.29738L7.43091 4.7974L5.77615 4.80478L5.78285 6.30476ZM1.96284 2.48476C1.95997 3.12694 1.95641 3.67196 2.0043 4.11054C2.05384 4.5642 2.16612 4.99797 2.46016 5.37792L3.64642 4.45988C3.59117 4.38849 3.53027 4.26669 3.49544 3.9477C3.45895 3.61362 3.4598 3.16891 3.46282 2.49145L1.96284 2.48476ZM5.77615 4.80478C5.0987 4.8078 4.65398 4.80865 4.31991 4.77217C4.00092 4.73733 3.87911 4.67643 3.80772 4.62119L2.88968 5.80744C3.26963 6.10148 3.7034 6.21376 4.15707 6.2633C4.59565 6.3112 5.14066 6.30763 5.78285 6.30476L5.77615 4.80478ZM17.9653 19.103L17.9727 17.4483L16.4727 17.4416L16.4654 19.0963L17.9653 19.103ZM14.1527 13.6282L12.498 13.6356L12.5047 15.1356L14.1594 15.1282L14.1527 13.6282ZM17.9727 17.4483C17.9756 16.8061 17.9792 16.2611 17.9313 15.8225C17.8817 15.3688 17.7694 14.935 17.4754 14.5551L16.2892 15.4731C16.3444 15.5445 16.4053 15.6663 16.4401 15.9853C16.4766 16.3194 16.4758 16.7641 16.4727 17.4416L17.9727 17.4483ZM14.1594 15.1282C14.8369 15.1252 15.2816 15.1244 15.6157 15.1608C15.9346 15.1957 16.0565 15.2566 16.1278 15.3118L17.0459 14.1256C16.6659 13.8315 16.2322 13.7192 15.7785 13.6697C15.3399 13.6218 14.7949 13.6254 14.1527 13.6282L14.1594 15.1282ZM2.46016 5.37792C2.52277 5.45882 2.59042 5.53556 2.66267 5.60769L3.72247 4.54617C3.69534 4.51909 3.66994 4.49027 3.64642 4.45988L2.46016 5.37792ZM2.66267 5.60769C2.734 5.67891 2.80981 5.74563 2.88968 5.80744L3.80772 4.62119C3.77772 4.59797 3.74925 4.57291 3.72247 4.54617L2.66267 5.60769ZM3.12831 4.06286L2.65257 4.55645L3.73257 5.59741L4.20831 5.10383L3.12831 4.06286ZM17.4754 14.5551C17.4211 14.4849 17.3631 14.4179 17.3015 14.3543L16.2238 15.3977C16.247 15.4216 16.2688 15.4468 16.2892 15.4731L17.4754 14.5551ZM17.3015 14.3543C17.2219 14.2722 17.1365 14.1957 17.0459 14.1256L16.1278 15.3118C16.1619 15.3382 16.194 15.3669 16.2238 15.3977L17.3015 14.3543ZM16.9221 15.8824L17.3505 15.3418L16.1748 14.4103L15.7464 14.9509L16.9221 15.8824Z" fill="white"/>
</g>
<defs>
<clipPath id="clip0_3287_13243">
<rect width="20" height="20" fill="white"/>
</clipPath>
</defs>
</svg>
