<svg width="30" height="30" viewBox="0 0 30 30" fill="none" xmlns="http://www.w3.org/2000/svg">
<path d="M3.5 15C3.5 14.4477 3.05228 14 2.5 14C1.94772 14 1.5 14.4477 1.5 15H3.5ZM26.5 15C26.5 15.5523 26.9477 16 27.5 16C28.0523 16 28.5 15.5523 28.5 15H26.5ZM5.50052 6.875L6.22052 7.56898L6.24098 7.54774L6.26016 7.52534L5.50052 6.875ZM24.4995 23.125L25.2591 23.7753L25.2715 23.7609L25.2833 23.746L24.4995 23.125ZM5.07836 1.25446C5.08082 0.702182 4.63511 0.252474 4.08283 0.25001C3.53055 0.247546 3.08084 0.693259 3.07838 1.24554L5.07836 1.25446ZM4.06729 3.73214L3.0673 3.72768V3.72768L4.06729 3.73214ZM8.6673 8.33214L8.67176 9.33213H8.67176L8.6673 8.33214ZM11.1539 9.32106C11.7062 9.31859 12.1519 8.86888 12.1494 8.31661C12.147 7.76433 11.6973 7.31861 11.145 7.32108L11.1539 9.32106ZM4.57798 7.37834L3.78714 7.99036L3.78714 7.99036L4.57798 7.37834ZM5.0211 7.82146L4.40907 8.61229L4.40907 8.61229L5.0211 7.82146ZM24.8211 28.645C24.8186 29.1973 25.2643 29.647 25.8166 29.6495C26.3689 29.6519 26.8186 29.2062 26.8211 28.6539L24.8211 28.645ZM25.8321 26.1673L26.8321 26.1718L25.8321 26.1673ZM21.2321 21.5673L21.2277 20.5674L21.2321 21.5673ZM18.7455 20.5784C18.1933 20.5809 17.7476 21.0306 17.75 21.5829C17.7525 22.1352 18.2022 22.5809 18.7545 22.5784L18.7455 20.5784ZM25.3215 22.5211L26.1123 21.9091H26.1123L25.3215 22.5211ZM24.8783 22.078L25.4904 21.2872L25.4904 21.2872L24.8783 22.078ZM4.7869 7.61538L4.08036 8.32306L4.7869 7.61538ZM15 26.5C8.64873 26.5 3.5 21.3513 3.5 15H1.5C1.5 22.4558 7.54416 28.5 15 28.5V26.5ZM15 3.5C21.3513 3.5 26.5 8.64873 26.5 15H28.5C28.5 7.54416 22.4558 1.5 15 1.5V3.5ZM6.26016 7.52534C8.37088 5.05988 11.5027 3.5 15 3.5V1.5C10.894 1.5 7.21536 3.3343 4.74088 6.22466L6.26016 7.52534ZM23.7398 22.4747C21.6291 24.9401 18.4973 26.5 15 26.5V28.5C19.106 28.5 22.7846 26.6657 25.2591 23.7753L23.7398 22.4747ZM3.07838 1.24554L3.0673 3.72768L5.06729 3.7366L5.07836 1.25446L3.07838 1.24554ZM8.67176 9.33213L11.1539 9.32106L11.145 7.32108L8.66283 7.33215L8.67176 9.33213ZM3.0673 3.72768C3.06299 4.69389 3.05787 5.50306 3.12876 6.15222C3.20185 6.82149 3.36598 7.44615 3.78714 7.99036L5.36882 6.76631C5.26605 6.63351 5.17042 6.42481 5.11694 5.9351C5.06127 5.42528 5.06276 4.74985 5.06729 3.7366L3.0673 3.72768ZM8.66283 7.33215C7.64959 7.33667 6.97416 7.33817 6.46434 7.2825C5.97463 7.22902 5.76592 7.13339 5.63313 7.03062L4.40907 8.61229C4.95328 9.03345 5.57794 9.19759 6.24722 9.27068C6.89638 9.34157 7.70554 9.33644 8.67176 9.33213L8.66283 7.33215ZM26.8211 28.6539L26.8321 26.1718L24.8322 26.1629L24.8211 28.645L26.8211 28.6539ZM21.2277 20.5674L18.7455 20.5784L18.7545 22.5784L21.2366 22.5673L21.2277 20.5674ZM26.8321 26.1718C26.8365 25.2056 26.8416 24.3964 26.7707 23.7473C26.6976 23.078 26.5335 22.4533 26.1123 21.9091L24.5306 23.1332C24.6334 23.266 24.729 23.4747 24.7825 23.9644C24.8382 24.4742 24.8367 25.1496 24.8322 26.1629L26.8321 26.1718ZM21.2366 22.5673C22.2499 22.5628 22.9253 22.5613 23.4351 22.617C23.9248 22.6705 24.1335 22.7661 24.2663 22.8689L25.4904 21.2872C24.9462 20.866 24.3215 20.7019 23.6522 20.6288C23.0031 20.5579 22.1939 20.563 21.2277 20.5674L21.2366 22.5673ZM3.78714 7.99036C3.8778 8.1075 3.97575 8.21861 4.08036 8.32306L5.49343 6.9077C5.44898 6.86332 5.40735 6.8161 5.36882 6.76631L3.78714 7.99036ZM4.08036 8.32306C4.18365 8.42618 4.29342 8.52279 4.40907 8.61229L5.63313 7.03062C5.58397 6.99257 5.53732 6.95152 5.49343 6.9077L4.08036 8.32306ZM4.78052 6.18102L4.0669 6.92141L5.5069 8.30936L6.22052 7.56898L4.78052 6.18102ZM26.1123 21.9091C26.0337 21.8076 25.9496 21.7105 25.8605 21.6184L24.4236 23.0096C24.4615 23.0488 24.4972 23.09 24.5306 23.1332L26.1123 21.9091ZM25.8605 21.6184C25.7453 21.4995 25.6216 21.3887 25.4904 21.2872L24.2663 22.8689C24.3221 22.912 24.3746 22.9591 24.4236 23.0096L25.8605 21.6184ZM25.2833 23.746L25.9258 22.9351L24.3582 21.693L23.7157 22.504L25.2833 23.746Z" fill="white"/>
</svg>
