<svg width="32" height="32" viewBox="0 0 32 32" fill="none" xmlns="http://www.w3.org/2000/svg">
<g clip-path="url(#clip0_1026_7020)">
<path d="M7.84303 22.7423C8.23355 22.3518 8.86672 22.3518 9.25724 22.7423C9.64777 23.1328 9.64777 23.766 9.25725 24.1565L7.84303 22.7423ZM2.48489 30.9289C2.09437 31.3194 1.4612 31.3194 1.07068 30.9289C0.680153 30.5384 0.680149 29.9052 1.07067 29.5147L2.48489 30.9289ZM9.25725 24.1565L2.48489 30.9289L1.07067 29.5147L7.84303 22.7423L9.25725 24.1565ZM18.0317 25.1583C24.2121 25.1583 29.2222 20.1481 29.2222 13.9678H31.2222C31.2222 21.2527 25.3166 27.1583 18.0317 27.1583V25.1583ZM6.84123 13.9678C6.84123 20.1481 11.8514 25.1583 18.0317 25.1583V27.1583C10.7468 27.1583 4.84123 21.2527 4.84123 13.9678H6.84123ZM18.0317 2.77734C11.8514 2.77734 6.84123 7.78748 6.84123 13.9678H4.84123C4.84123 6.68291 10.7468 0.777344 18.0317 0.777344V2.77734ZM18.0317 0.777344C25.3166 0.777344 31.2222 6.68291 31.2222 13.9678H29.2222C29.2222 7.78748 24.2121 2.77734 18.0317 2.77734V0.777344Z" fill="white" fill-opacity="0.5"/>
</g>
<defs>
<clipPath id="clip0_1026_7020">
<rect width="32" height="32" fill="white" transform="matrix(-1 0 0 1 32 0)"/>
</clipPath>
</defs>
</svg>
