<svg width="18" height="18" viewBox="0 0 18 18" fill="none" xmlns="http://www.w3.org/2000/svg">
<g clip-path="url(#clip0_35_1686)">
<path d="M4.10234 12.4834C4.49286 12.0929 5.12603 12.0929 5.51656 12.4834C5.90708 12.8739 5.90708 13.5071 5.51656 13.8976L4.10234 12.4834ZM1.70711 17.7071C1.31659 18.0976 0.683422 18.0976 0.292896 17.7071C-0.0976295 17.3166 -0.0976315 16.6834 0.292891 16.2929L1.70711 17.7071ZM5.51656 13.8976L1.70711 17.7071L0.292891 16.2929L4.10234 12.4834L5.51656 13.8976ZM10.1428 13.7143C13.3777 13.7143 16 11.0919 16 7.85713H18C18 12.1965 14.4822 15.7143 10.1428 15.7143V13.7143ZM4.28569 7.85713C4.28569 11.0919 6.90802 13.7143 10.1428 13.7143V15.7143C5.80346 15.7143 2.28569 12.1965 2.28569 7.85713H4.28569ZM10.1428 2C6.90802 2 4.28569 4.62233 4.28569 7.85713H2.28569C2.28569 3.51775 5.80346 0 10.1428 0V2ZM10.1428 0C14.4822 0 18 3.51775 18 7.85713H16C16 4.62233 13.3777 2 10.1428 2V0Z" fill="white" fill-opacity="0.5"/>
</g>
<defs>
<clipPath id="clip0_35_1686">
<rect width="18" height="18" fill="white" transform="matrix(-1 0 0 1 18 0)"/>
</clipPath>
</defs>
</svg>
