<svg width="24" height="24" viewBox="0 0 24 24" fill="none" xmlns="http://www.w3.org/2000/svg">
<path d="M11.9672 1.38424e-06C13.0024 1.33899e-06 13.7145 0.482519 14.1154 1.3221C14.2369 1.5773 14.3584 1.83035 14.4872 2.08448C17.5823 8.4151 20.677 14.7457 23.7713 21.0764C24.3667 22.2966 23.7616 23.5426 22.3983 23.9028C22.1455 23.9646 21.8842 23.9949 21.6219 23.9929C19.7192 24.0004 17.8152 23.9929 15.9112 23.9929C14.3912 23.9929 13.5492 23.3345 13.3597 21.9985L11.9988 12.6763L11.9393 12.6666C11.864 13.1502 11.7874 13.6317 11.7145 14.1163C11.3549 16.5053 10.9964 18.8947 10.6392 21.2844C10.5906 21.6061 10.5456 21.9395 10.4946 22.2666C10.4276 22.7369 10.1705 23.1701 9.77045 23.4865C9.37041 23.8029 8.85438 23.9812 8.31726 23.9886C6.28208 24.0004 4.2469 24.0068 2.21171 23.9886C1.8498 23.9888 1.49336 23.9106 1.1737 23.7609C0.854051 23.6111 0.580968 23.3943 0.378444 23.1296C0.175921 22.8649 0.0501508 22.5604 0.0121911 22.2427C-0.0257687 21.9251 0.0252383 21.6041 0.160733 21.308C1.01855 19.4401 1.94076 17.5958 2.83381 15.7419C5.16425 10.9403 7.49469 6.13691 9.82513 1.33175C10.2309 0.493242 10.9308 0.00214529 11.9672 1.38424e-06Z" fill="white"/>
</svg>
