<svg width="18" height="18" viewBox="0 0 18 18" fill="none" xmlns="http://www.w3.org/2000/svg">
<g id="swap_icon" clip-path="url(#clip0_1605_2001)">
<path id="Vector" d="M17.9904 6.86515C17.9925 6.98434 17.9726 7.10279 17.932 7.2136C17.8913 7.32441 17.8307 7.42538 17.7537 7.51063C17.6767 7.59588 17.5847 7.6637 17.4832 7.71017C17.3818 7.75664 17.2728 7.78082 17.1626 7.7813C16.9813 7.78586 16.7992 7.7813 16.6179 7.7813C16.1119 7.77598 15.7627 7.40115 15.7451 6.8507C15.7177 6.00525 15.2314 5.32327 14.4892 5.11038C14.3366 5.06773 14.1795 5.04652 14.0219 5.04728C10.7606 5.04373 7.4988 5.04373 4.23655 5.04728H4.10373C4.09459 5.06325 4.08616 5.07921 4.07772 5.09518C4.28856 5.31186 4.49939 5.52703 4.70319 5.74751C5.03279 6.10029 5.03138 6.42493 4.70319 6.78075C4.50079 7.00048 4.2991 7.22097 4.09459 7.43841C3.81911 7.73036 3.49654 7.73492 3.22737 7.44449C2.19665 6.32939 1.16592 5.21429 0.135195 4.09919C-0.0454163 3.90379 -0.0447135 3.75782 0.135195 3.56166C1.16592 2.44656 2.19665 1.33146 3.22737 0.21636C3.49162 -0.068751 3.81629 -0.0687508 4.08124 0.211798C4.30753 0.450531 4.53124 0.692306 4.75238 0.937121C5.0117 1.22527 5.0117 1.57425 4.75238 1.8624C4.53452 2.10113 4.31034 2.33302 4.09811 2.61509H4.29207C7.53605 2.61509 10.78 2.61509 14.024 2.61509C15.9215 2.61509 17.4957 3.98362 17.9047 5.98244C17.9595 6.273 17.9882 6.56861 17.9904 6.86515Z" fill="white"/>
<path id="Vector_2" d="M17.8744 14.4265C16.8367 15.5517 15.7971 16.676 14.7556 17.7992C14.5061 18.0683 14.1786 18.0653 13.9263 17.7992C13.692 17.5523 13.4601 17.3014 13.2306 17.0465C12.986 16.7735 12.9895 16.4261 13.2348 16.1501C13.3444 16.0269 13.4568 15.906 13.5707 15.7867C13.695 15.6669 13.8061 15.5319 13.9017 15.3845H13.7077C10.4633 15.3845 7.21884 15.3845 3.97439 15.3845C2.14368 15.3845 0.590564 14.0981 0.137278 12.1996C0.0591495 11.8493 0.0162651 11.4909 0.00937382 11.1306C0.00683864 11.0115 0.0263818 10.8931 0.066849 10.7823C0.107316 10.6715 0.16789 10.5706 0.24499 10.4856C0.322091 10.4006 0.414157 10.3331 0.515756 10.2872C0.617355 10.2413 0.726427 10.2178 0.836533 10.2183C1.03003 10.2137 1.22329 10.2137 1.41632 10.2183C1.63563 10.2202 1.84563 10.3145 2.00176 10.4811C2.15789 10.6477 2.24787 10.8736 2.25261 11.1109C2.29759 12.2239 3.00036 12.9538 4.03132 12.9538H13.9537C13.7035 12.6885 13.4913 12.4657 13.2819 12.2399C12.9698 11.9031 12.9712 11.5731 13.2819 11.2348C13.4927 11.0067 13.7035 10.7786 13.9143 10.5505C14.1744 10.2753 14.5005 10.2692 14.7577 10.5452C15.7992 11.6674 16.8388 12.7916 17.8766 13.9179C18.041 14.0935 18.0396 14.2471 17.8744 14.4265Z" fill="white"/>
</g>
<defs>
<clipPath id="clip0_1605_2001">
<rect width="17.9991" height="17.9971" fill="white" transform="translate(0 0.00195312)"/>
</clipPath>
</defs>
</svg>
