<svg width="18" height="18" viewBox="0 0 18 18" fill="none" xmlns="http://www.w3.org/2000/svg">
<g id="swap_icon" clip-path="url(#clip0_1010_5223)">
<path id="Vector" d="M17.9904 6.86319C17.9925 6.98239 17.9726 7.10084 17.932 7.21165C17.8913 7.32246 17.8307 7.42343 17.7537 7.50867C17.6767 7.59392 17.5847 7.66175 17.4832 7.70822C17.3818 7.75469 17.2728 7.77887 17.1626 7.77935C16.9813 7.78391 16.7992 7.77935 16.6179 7.77935C16.1119 7.77403 15.7627 7.3992 15.7451 6.84875C15.7177 6.0033 15.2314 5.32131 14.4892 5.10843C14.3366 5.06577 14.1795 5.04456 14.0219 5.04533C10.7606 5.04178 7.4988 5.04178 4.23655 5.04533H4.10373C4.09459 5.06129 4.08616 5.07726 4.07772 5.09323C4.28856 5.30991 4.49939 5.52507 4.70319 5.74556C5.03279 6.09834 5.03138 6.42298 4.70319 6.7788C4.50079 6.99853 4.2991 7.21901 4.09459 7.43646C3.81911 7.72841 3.49654 7.73297 3.22737 7.44254C2.19665 6.32744 1.16592 5.21234 0.135195 4.09724C-0.0454163 3.90184 -0.0447135 3.75586 0.135195 3.55971C1.16592 2.44461 2.19665 1.32951 3.22737 0.214407C3.49162 -0.0707042 3.81629 -0.070704 4.08124 0.209845C4.30753 0.448578 4.53124 0.690353 4.75238 0.935168C5.0117 1.22332 5.0117 1.5723 4.75238 1.86045C4.53452 2.09918 4.31034 2.33107 4.09811 2.61314H4.29207C7.53605 2.61314 10.78 2.61314 14.024 2.61314C15.9215 2.61314 17.4957 3.98167 17.9047 5.98049C17.9595 6.27105 17.9882 6.56666 17.9904 6.86319Z" fill="#1F8FEB"/>
<path id="Vector_2" d="M17.8746 14.4238C16.8368 15.549 15.7972 16.6732 14.7557 17.7964C14.5062 18.0656 14.1787 18.0625 13.9264 17.7964C13.6922 17.5496 13.4602 17.2987 13.2307 17.0437C12.9861 16.7708 12.9896 16.4233 13.2349 16.1473C13.3445 16.0242 13.457 15.9033 13.5708 15.7839C13.6951 15.6641 13.8062 15.5291 13.9018 15.3817H13.7079C10.4634 15.3817 7.21896 15.3817 3.97451 15.3817C2.1438 15.3817 0.590686 14.0953 0.1374 12.1968C0.0592716 11.8466 0.0163871 11.4881 0.00949589 11.1279C0.00696071 11.0088 0.0265038 10.8904 0.0669711 10.7796C0.107438 10.6688 0.168012 10.5679 0.245112 10.4829C0.322213 10.3978 0.414279 10.3303 0.515878 10.2844C0.617477 10.2385 0.726549 10.2151 0.836655 10.2155C1.03015 10.211 1.22341 10.211 1.41644 10.2155C1.63575 10.2174 1.84575 10.3117 2.00188 10.4784C2.15801 10.645 2.24799 10.8709 2.25273 11.1081C2.29771 12.2212 3.00048 12.9511 4.03144 12.9511H13.9538C13.7036 12.6857 13.4914 12.463 13.282 12.2371C12.9699 11.9003 12.9714 11.5704 13.282 11.232C13.4928 11.0039 13.7036 10.7759 13.9145 10.5478C14.1745 10.2725 14.5006 10.2665 14.7578 10.5424C15.7993 11.6646 16.8389 12.7889 17.8767 13.9151C18.0411 14.0907 18.0397 14.2443 17.8746 14.4238Z" fill="#1F8FEB"/>
</g>
<defs>
<clipPath id="clip0_1010_5223">
<rect width="17.9991" height="17.9971" fill="white"/>
</clipPath>
</defs>
</svg>
