<svg width="20" height="20" viewBox="0 0 20 20" fill="none" xmlns="http://www.w3.org/2000/svg">
<g id="time_icon">
<path id="Vector" d="M9.64264 2.86232C7.96619 2.86247 6.32744 3.35977 4.93366 4.29131C3.53989 5.22286 2.45369 6.54679 1.81246 8.09568C1.17123 9.64457 1.00377 11.3488 1.33126 12.9929C1.65875 14.6369 2.46648 16.147 3.65228 17.3319C4.83809 18.5169 6.3487 19.3237 7.99306 19.6501C9.63742 19.9765 11.3417 19.808 12.8902 19.1658C14.4388 18.5236 15.7621 17.4366 16.6928 16.0423C17.6235 14.648 18.1198 13.009 18.1189 11.3327C18.1111 6.64667 14.3158 2.85305 9.64264 2.86232ZM13.3515 12.2158C13.2644 12.2382 13.1747 12.2484 13.0849 12.2459C11.965 12.2459 10.8454 12.2459 9.72609 12.2459C9.23853 12.2459 8.96655 11.9825 8.96501 11.4988C8.9614 10.0772 8.9614 8.65525 8.96501 7.2331C8.96501 6.72625 9.35984 6.40406 9.81494 6.51919C9.94687 6.55154 10.0655 6.62394 10.1546 6.72646C10.2437 6.82898 10.2989 6.95657 10.3125 7.0917C10.3205 7.1749 10.3239 7.25847 10.3226 7.34204C10.3226 8.44948 10.3226 9.55691 10.3226 10.6644V10.9216H10.5814C11.4437 10.9216 12.306 10.9216 13.1683 10.9255C13.3278 10.9241 13.4823 10.9809 13.6028 11.0853C13.7233 11.1898 13.8015 11.3346 13.8228 11.4926C13.848 11.6496 13.8141 11.8104 13.7278 11.9439C13.6415 12.0774 13.5088 12.1743 13.3553 12.2158H13.3515Z" fill="#B7BCCC"/>
<path id="Vector_2" d="M11.7502 0.687055C11.7502 1.08859 11.4551 1.36903 11.0216 1.37216C10.5711 1.37216 10.1207 1.37216 9.67019 1.37216C9.21972 1.37216 8.75689 1.37216 8.29947 1.37216C7.86909 1.37216 7.5662 1.08468 7.56543 0.689399C7.56466 0.294117 7.8745 0.0035155 8.29715 0.00195312C9.20427 0.00195312 10.1116 0.00195312 11.0193 0.00195312C11.4497 0.0035155 11.7494 0.287867 11.7502 0.687055Z" fill="#B7BCCC"/>
<path id="Vector_3" d="M18.8234 4.88411C18.8133 5.26533 18.6642 5.46532 18.4146 5.58718C18.3012 5.6519 18.1704 5.67846 18.0411 5.66301C17.9117 5.64756 17.7906 5.59091 17.6953 5.50125C17.4928 5.32002 17.3089 5.12081 17.1157 4.92786C16.697 4.50524 16.2735 4.0873 15.8617 3.65687C15.4615 3.23815 15.6137 2.62413 16.146 2.48508C16.2548 2.45182 16.3705 2.44915 16.4806 2.47737C16.5907 2.50559 16.6912 2.56362 16.7711 2.64523C17.3986 3.27018 18.0244 3.89903 18.6387 4.53727C18.743 4.64273 18.787 4.8099 18.8234 4.88411Z" fill="#B7BCCC"/>
</g>
</svg>
