<svg width="18" height="18" viewBox="0 0 18 18" fill="none" xmlns="http://www.w3.org/2000/svg">
<g clip-path="url(#clip0_1010_5228)">
<path d="M18 3.43735C18 6.64881 18 9.85947 18 13.0693C18 13.8156 17.6117 14.3302 16.9517 14.461C16.8729 14.476 16.7942 14.4815 16.6886 14.4949V14.7006C16.6886 15.1214 16.6886 15.5414 16.6886 15.9614C16.6886 16.2837 16.4956 16.4902 16.2082 16.4941C15.9207 16.498 15.7104 16.2861 15.7056 15.9582C15.7001 15.5445 15.7056 15.1308 15.7056 14.7171V14.5028C15.5615 14.476 15.4307 14.4626 15.3071 14.424C15.0405 14.3442 14.8072 14.1795 14.6427 13.9549C14.4782 13.7303 14.3915 13.4581 14.3958 13.1797C14.3918 11.8731 14.3958 10.5666 14.3958 9.26005C14.3958 7.35619 14.4163 5.45154 14.3855 3.54768C14.3737 2.80063 14.7203 2.09141 15.7017 1.99921C15.7017 1.50985 15.7017 1.03073 15.7017 0.552404C15.7017 0.286053 15.8309 0.0945601 16.038 0.0267902C16.1112 0.000865054 16.1895 -0.00706474 16.2664 0.00366992C16.3432 0.0144046 16.4164 0.0434881 16.4796 0.088465C16.5429 0.133442 16.5944 0.192991 16.6298 0.262081C16.6652 0.331171 16.6835 0.407775 16.6831 0.48542C16.6926 0.905435 16.6831 1.32624 16.687 1.74626V1.99606C16.7437 2.00631 16.7926 2.01891 16.8446 2.02364C17.1412 2.05131 17.4185 2.18256 17.6281 2.39437C17.8376 2.60618 17.966 2.88503 17.9906 3.18203C17.9969 3.26714 18 3.35225 18 3.43735Z" fill="#1F8FEB"/>
<path d="M3.60499 6.4413V12.5091C3.60499 13.3664 3.21904 13.8211 2.37469 13.959C2.35579 13.959 2.33767 13.9693 2.29592 13.9803V14.9378C2.29592 15.1805 2.29592 15.4232 2.29592 15.6659C2.28805 15.9882 2.07381 16.212 1.79026 16.2041C1.50671 16.1962 1.31767 15.9819 1.31295 15.6635C1.31295 15.1064 1.31295 14.5493 1.31295 13.9756C1.17826 13.9527 1.0672 13.9417 0.960083 13.9141C0.704264 13.8479 0.475371 13.7037 0.30516 13.5015C0.134949 13.2993 0.0318558 13.0491 0.0101838 12.7857C0.00467025 12.7274 0.000732422 12.6683 0.000732422 12.6092C0.000732422 9.60836 0.000732422 6.60758 0.000732422 3.60679C0.000732422 2.93067 0.381164 2.43027 0.987649 2.28448C1.08847 2.26084 1.19244 2.25217 1.31137 2.23405C1.31137 1.89756 1.31137 1.57053 1.31137 1.24351C1.31137 0.981094 1.30507 0.718683 1.31689 0.455484C1.32146 0.339253 1.36934 0.228945 1.45112 0.146258C1.53289 0.0635705 1.64263 0.0144908 1.75875 0.00867638C1.87396 -0.00389058 1.98976 0.0263335 2.08415 0.0936013C2.17855 0.160869 2.24494 0.260491 2.27072 0.373531C2.28948 0.463149 2.29768 0.554661 2.29514 0.646188C2.29514 1.17101 2.29514 1.69583 2.29514 2.23405C2.40856 2.25139 2.51174 2.26006 2.61019 2.2837C2.8938 2.34977 3.14634 2.5108 3.32597 2.7401C3.50559 2.9694 3.60154 3.25322 3.5979 3.54453C3.60499 4.50907 3.60499 5.47361 3.60499 6.4413Z" fill="#1F8FEB"/>
<path d="M13.2019 15.4429C13.2019 16.1883 12.7529 16.6375 11.8904 16.7786C11.8904 17.0079 11.8944 17.2301 11.8904 17.4523C11.8849 17.7904 11.6967 17.9984 11.4037 18C11.1107 18.0016 10.9161 17.792 10.9075 17.4586C10.9019 17.2364 10.9075 17.0134 10.9075 16.7809C10.8539 16.7707 10.8114 16.7612 10.768 16.7549C10.0434 16.647 9.59996 16.1403 9.59839 15.4066C9.59839 14.3168 9.59839 13.2277 9.59839 12.1379V8.31835C9.59839 7.36564 9.95362 6.93853 10.909 6.76989C10.909 6.53348 10.8996 6.29708 10.909 6.05279C10.9271 5.67769 11.2485 5.45074 11.573 5.57998C11.6693 5.61452 11.7519 5.67914 11.8086 5.76429C11.8654 5.84944 11.8932 5.95059 11.8881 6.05279C11.8881 6.29393 11.8881 6.53585 11.8881 6.76753C12.0318 6.79003 12.1743 6.81975 12.315 6.85657C12.5778 6.93801 12.8067 7.10325 12.9669 7.32707C13.127 7.55089 13.2095 7.82099 13.2019 8.09613C13.2076 10.5464 13.2076 12.9953 13.2019 15.4429Z" fill="#1F8FEB"/>
<path d="M8.40038 11.0118C8.39487 11.6477 7.94433 12.1371 7.31343 12.2482C7.24963 12.2592 7.18583 12.2679 7.09604 12.2813C7.09604 12.6115 7.10077 12.9259 7.09604 13.2395C7.09053 13.5091 6.96293 13.6895 6.74869 13.7557C6.67647 13.7787 6.59986 13.7843 6.52505 13.7722C6.45024 13.7602 6.37931 13.7306 6.31799 13.6861C6.25667 13.6415 6.20668 13.5832 6.17204 13.5158C6.1374 13.4483 6.11909 13.3737 6.11858 13.2979C6.10598 12.9645 6.11858 12.6304 6.11858 12.2853L5.93506 12.2569C5.2632 12.1505 4.8103 11.6556 4.80558 10.9748C4.79534 9.47202 4.80558 7.96926 4.80558 6.4665C4.80558 5.89676 5.18916 5.22142 6.11858 5.15523C6.11858 4.93931 6.11858 4.71945 6.11858 4.49959C6.11858 4.36799 6.11464 4.23639 6.12567 4.10558C6.13361 3.98312 6.18755 3.86819 6.27667 3.78386C6.36578 3.69953 6.48347 3.65203 6.60613 3.6509C6.7258 3.64798 6.84213 3.69061 6.9316 3.77018C7.02107 3.84975 7.07703 3.96033 7.08817 4.07958C7.11101 4.36012 7.10077 4.64302 7.10392 4.92513C7.10392 4.99684 7.10392 5.06855 7.10392 5.15287C7.20631 5.16626 7.2961 5.17257 7.38353 5.19148C7.67002 5.2471 7.92847 5.40011 8.11509 5.62459C8.3017 5.84906 8.405 6.1312 8.40747 6.42316C8.41377 7.95507 8.41141 9.48462 8.40038 11.0118Z" fill="#1F8FEB"/>
</g>
<defs>
<clipPath id="clip0_1010_5228">
<rect width="18" height="18" fill="white"/>
</clipPath>
</defs>
</svg>
