<svg width="18" height="18" viewBox="0 0 18 18" fill="none" xmlns="http://www.w3.org/2000/svg">
<g id="trade_icon" clip-path="url(#clip0_1605_620)">
<g id="Kp9kV9">
<path id="Vector" d="M18 3.43735C18 6.64881 18 9.85947 18 13.0693C18 13.8156 17.6117 14.3302 16.9517 14.461C16.8729 14.476 16.7942 14.4815 16.6886 14.4949V14.7006C16.6886 15.1214 16.6886 15.5414 16.6886 15.9614C16.6886 16.2837 16.4956 16.4902 16.2082 16.4941C15.9207 16.498 15.7104 16.2861 15.7056 15.9582C15.7001 15.5445 15.7056 15.1308 15.7056 14.7171V14.5028C15.5615 14.476 15.4307 14.4626 15.3071 14.424C15.0405 14.3442 14.8072 14.1795 14.6427 13.9549C14.4782 13.7303 14.3915 13.4581 14.3958 13.1797C14.3918 11.8731 14.3958 10.5666 14.3958 9.26005C14.3958 7.35619 14.4163 5.45154 14.3855 3.54768C14.3737 2.80063 14.7203 2.09141 15.7017 1.99921C15.7017 1.50985 15.7017 1.03073 15.7017 0.552404C15.7017 0.286053 15.8309 0.0945601 16.038 0.0267902C16.1112 0.000865054 16.1895 -0.00706474 16.2664 0.00366992C16.3432 0.0144046 16.4164 0.0434881 16.4796 0.088465C16.5429 0.133442 16.5944 0.192991 16.6298 0.262081C16.6652 0.331171 16.6835 0.407775 16.6831 0.48542C16.6926 0.905435 16.6831 1.32624 16.687 1.74626V1.99606C16.7437 2.00631 16.7926 2.01891 16.8446 2.02364C17.1412 2.05131 17.4185 2.18256 17.6281 2.39437C17.8376 2.60618 17.966 2.88503 17.9906 3.18203C17.9969 3.26714 18 3.35225 18 3.43735Z" fill="white"/>
<path id="Vector_2" d="M3.60523 6.44127V12.509C3.60523 13.3664 3.21929 13.8211 2.37493 13.959C2.35603 13.959 2.33791 13.9692 2.29617 13.9803V14.9377C2.29617 15.1804 2.29617 15.4231 2.29617 15.6659C2.28829 15.9882 2.07405 16.212 1.7905 16.2041C1.50695 16.1962 1.31792 15.9819 1.31319 15.6635C1.31319 15.1064 1.31319 14.5492 1.31319 13.9755C1.1785 13.9527 1.06745 13.9417 0.960327 13.9141C0.704508 13.8479 0.475616 13.7037 0.305405 13.5015C0.135194 13.2993 0.0320999 13.0491 0.0104279 12.7856C0.00491439 12.7273 0.000976562 12.6682 0.000976562 12.6091C0.000976562 9.60833 0.000976562 6.60755 0.000976562 3.60676C0.000976562 2.93063 0.381408 2.43024 0.987893 2.28445C1.08871 2.26081 1.19268 2.25214 1.31162 2.23402C1.31162 1.89753 1.31162 1.5705 1.31162 1.24348C1.31162 0.981064 1.30531 0.718652 1.31713 0.455453C1.32171 0.339222 1.36959 0.228915 1.45136 0.146227C1.53313 0.06354 1.64288 0.0144603 1.759 0.00864586C1.8742 -0.0039211 1.99001 0.026303 2.0844 0.0935708C2.17879 0.160839 2.24518 0.260461 2.27096 0.3735C2.28973 0.463118 2.29792 0.55463 2.29538 0.646158C2.29538 1.17098 2.29538 1.6958 2.29538 2.23402C2.4088 2.25136 2.51198 2.26002 2.61044 2.28367C2.89405 2.34974 3.14658 2.51077 3.32621 2.74007C3.50584 2.96937 3.60178 3.25319 3.59814 3.5445C3.60523 4.50904 3.60523 5.47358 3.60523 6.44127Z" fill="white"/>
<path id="Vector_3" d="M13.2016 15.4433C13.2016 16.1888 12.7527 16.638 11.8902 16.779C11.8902 17.0084 11.8941 17.2306 11.8902 17.4528C11.8847 17.7909 11.6964 17.9989 11.4034 18.0005C11.1104 18.0021 10.9159 17.7924 10.9072 17.4591C10.9017 17.2369 10.9072 17.0139 10.9072 16.7814C10.8536 16.7712 10.8111 16.7617 10.7678 16.7554C10.0432 16.6474 9.59972 16.1408 9.59814 15.4071C9.59814 14.3173 9.59814 13.2282 9.59814 12.1384V8.31884C9.59814 7.36612 9.95337 6.93901 10.9088 6.77038C10.9088 6.53397 10.8993 6.29757 10.9088 6.05328C10.9269 5.67818 11.2483 5.45123 11.5728 5.58047C11.669 5.61501 11.7517 5.67963 11.8084 5.76478C11.8651 5.84993 11.893 5.95108 11.8878 6.05328C11.8878 6.29441 11.8878 6.53634 11.8878 6.76802C12.0315 6.79052 12.174 6.82024 12.3147 6.85706C12.5775 6.9385 12.8065 7.10374 12.9666 7.32756C13.1268 7.55138 13.2093 7.82148 13.2016 8.09662C13.2074 10.5468 13.2074 12.9958 13.2016 15.4433Z" fill="white"/>
<path id="Vector_4" d="M8.40013 11.0124C8.39462 11.6484 7.94409 12.1377 7.31319 12.2488C7.24939 12.2599 7.18559 12.2685 7.0958 12.2819C7.0958 12.6121 7.10052 12.9265 7.0958 13.2402C7.09029 13.5097 6.96269 13.6901 6.74845 13.7563C6.67623 13.7793 6.59962 13.785 6.52481 13.7729C6.44999 13.7608 6.37907 13.7313 6.31775 13.6867C6.25643 13.6421 6.20644 13.5838 6.1718 13.5164C6.13716 13.4489 6.11885 13.3743 6.11833 13.2985C6.10573 12.9651 6.11833 12.631 6.11833 12.2859L5.93481 12.2575C5.26295 12.1511 4.81006 11.6562 4.80533 10.9754C4.79509 9.47263 4.80533 7.96987 4.80533 6.46711C4.80533 5.89737 5.18892 5.22203 6.11833 5.15584C6.11833 4.93992 6.11833 4.72006 6.11833 4.5002C6.11833 4.3686 6.1144 4.237 6.12542 4.10619C6.13337 3.98373 6.18731 3.8688 6.27642 3.78447C6.36553 3.70014 6.48323 3.65264 6.60588 3.65151C6.72556 3.64859 6.84188 3.69122 6.93135 3.77079C7.02083 3.85036 7.07678 3.96094 7.08792 4.08019C7.11076 4.36073 7.10052 4.64363 7.10368 4.92574C7.10368 4.99745 7.10368 5.06916 7.10368 5.15348C7.20607 5.16687 7.29586 5.17318 7.38329 5.19209C7.66978 5.24771 7.92823 5.40072 8.11484 5.6252C8.30146 5.84967 8.40475 6.13181 8.40722 6.42377C8.41352 7.95568 8.41116 9.48523 8.40013 11.0124Z" fill="white"/>
</g>
</g>
<defs>
<clipPath id="clip0_1605_620">
<rect width="18" height="18" fill="white"/>
</clipPath>
</defs>
</svg>
