<svg width="18" height="18" viewBox="0 0 18 18" fill="none" xmlns="http://www.w3.org/2000/svg">
<g clip-path="url(#clip0_1048_3365)">
<circle cx="9" cy="9" r="9" fill="#1F8FEB"/>
<path d="M13.0003 5.00005C12.2092 4.20893 11.2013 3.67017 10.104 3.45191C9.00667 3.23364 7.86928 3.34566 6.83564 3.77381C5.80199 4.20196 4.91852 4.927 4.29695 5.85726C3.67537 6.78751 3.34361 7.88119 3.34361 9C3.34361 10.1188 3.67537 11.2125 4.29695 12.1427C4.91852 13.073 5.80199 13.798 6.83564 14.2262C7.86928 14.6543 9.00667 14.7664 10.104 14.5481C11.2013 14.3298 12.2092 13.7911 13.0003 13L11.2804 11.28C10.8294 11.7309 10.2549 12.038 9.62944 12.1624C9.00397 12.2868 8.35566 12.223 7.76648 11.9789C7.17731 11.7349 6.67373 11.3216 6.31943 10.7914C5.96513 10.2611 5.77603 9.63772 5.77603 9C5.77603 8.36228 5.96513 7.73888 6.31943 7.20864C6.67373 6.67839 7.17731 6.26512 7.76648 6.02107C8.35566 5.77703 9.00397 5.71317 9.62944 5.83759C10.2549 5.962 10.8294 6.26909 11.2804 6.72003L13.0003 5.00005Z" fill="white"/>
<path d="M13.2428 7.58572L14.4675 8.29282V9.70702L13.2428 10.4141L12.0181 9.70702V8.29282L13.2428 7.58572Z" fill="white"/>
</g>
<defs>
<clipPath id="clip0_1048_3365">
<rect width="18" height="18" fill="white"/>
</clipPath>
</defs>
</svg>
