<svg width="17" height="17" viewBox="0 0 17 17" fill="none" xmlns="http://www.w3.org/2000/svg">
<g clip-path="url(#clip0_1511_3620)">
<path fill-rule="evenodd" clip-rule="evenodd" d="M8.49998 4.00543e-05C13.1944 4.00543e-05 17 3.80561 17 8.50002C17 13.1944 13.1944 17 8.49998 17C3.80557 17 0 13.1944 0 8.50002C0 3.80561 3.80557 4.00543e-05 8.49998 4.00543e-05ZM9.13748 11.9C9.13748 12.2521 8.85206 12.5375 8.49998 12.5375C8.1479 12.5375 7.86248 12.2521 7.86248 11.9V6.00425C7.8504 6.01367 7.83807 6.02342 7.8255 6.03352C7.55127 6.25375 7.22526 6.58131 6.74094 7.06997L5.55277 8.26879C5.30493 8.51885 4.90129 8.52065 4.65122 8.27281C4.40116 8.02496 4.39936 7.62132 4.6472 7.37126L5.86129 6.14628C6.31297 5.69054 6.68967 5.31043 7.02714 5.03942C7.3811 4.75515 7.75309 4.53894 8.20631 4.48117C8.3038 4.46874 8.40189 4.46253 8.49998 4.46253C8.59807 4.46253 8.69616 4.46874 8.79365 4.48117C9.24686 4.53894 9.61886 4.75515 9.97282 5.03942C10.3103 5.31043 10.687 5.69053 11.1387 6.14628L12.3528 7.37126C12.6006 7.62132 12.5988 8.02496 12.3487 8.27281C12.0987 8.52065 11.695 8.51885 11.4472 8.26879L10.259 7.06997C9.7747 6.5813 9.44869 6.25375 9.17446 6.03352C9.16189 6.02342 9.14956 6.01367 9.13748 6.00425V11.9Z" fill="white" fill-opacity="0.7"/>
</g>
<defs>
<clipPath id="clip0_1511_3620">
<rect width="17" height="17" fill="white"/>
</clipPath>
</defs>
</svg>
