<svg width="17" height="17" viewBox="0 0 17 17" fill="none" xmlns="http://www.w3.org/2000/svg">
<g clip-path="url(#clip0_1511_3636)">
<path fill-rule="evenodd" clip-rule="evenodd" d="M0.901864 1.94657C0 3.18788 0 4.95859 0 8.5C0 12.0414 0 13.8121 0.901864 15.0534C1.19313 15.4543 1.54568 15.8069 1.94657 16.0981C3.18788 17 4.95859 17 8.5 17C12.0414 17 13.8121 17 15.0534 16.0981C15.4543 15.8069 15.8069 15.4543 16.0981 15.0534C17 13.8121 17 12.0414 17 8.5C17 4.95859 17 3.18788 16.0981 1.94657C15.8069 1.54568 15.4543 1.19313 15.0534 0.901864C13.8121 0 12.0414 0 8.5 0C4.95859 0 3.18788 0 1.94657 0.901864C1.54568 1.19313 1.19313 1.54568 0.901864 1.94657ZM10.3511 3.68199C10.6183 3.41377 10.9446 3.16 11.3789 3.09079C11.4681 3.07659 11.5581 3.06944 11.6482 3.06944C11.7384 3.06944 11.8284 3.07659 11.9175 3.09079C12.3519 3.16 12.6782 3.41377 12.9454 3.68199C13.2029 3.94052 13.4871 4.299 13.8166 4.71464L14.7218 5.85621C14.9648 6.16275 14.9134 6.60828 14.6068 6.85133C14.3003 7.09438 13.8548 7.04292 13.6117 6.73638L12.7316 5.62636C12.5884 5.4458 12.4652 5.29068 12.3566 5.15708V12.5926C12.3566 12.9838 12.0394 13.3009 11.6482 13.3009C11.257 13.3009 10.9399 12.9838 10.9399 12.5926V5.15708C10.8312 5.29068 10.708 5.4458 10.5649 5.62636L9.68474 6.73638C9.44169 7.04292 8.99616 7.09438 8.68962 6.85133C8.38309 6.60828 8.33162 6.16275 8.57467 5.85621L9.4798 4.71466C9.80933 4.29901 10.0935 3.94053 10.3511 3.68199ZM6.06019 4.40725C6.06019 4.01605 5.74305 3.69892 5.35185 3.69892C4.96065 3.69892 4.64352 4.01605 4.64352 4.40725L4.64352 11.8428C4.53487 11.7092 4.41166 11.554 4.26849 11.3735L3.38837 10.2635C3.14532 9.95693 2.69979 9.90546 2.39325 10.1485C2.08671 10.3916 2.03525 10.8371 2.2783 11.1436L3.18343 12.2852C3.51296 12.7008 3.79717 13.0593 4.05471 13.3179C4.3219 13.5861 4.64818 13.8398 5.08257 13.9091C5.1717 13.9233 5.26168 13.9304 5.35185 13.9304C5.44203 13.9304 5.532 13.9233 5.62113 13.9091C6.05552 13.8398 6.3818 13.5861 6.64899 13.3179C6.90653 13.0593 7.19074 12.7008 7.52026 12.2852L8.4254 11.1436C8.66846 10.8371 8.61699 10.3916 8.31045 10.1485C8.00392 9.90546 7.55839 9.95693 7.31534 10.2635L6.43521 11.3735C6.29205 11.554 6.16883 11.7092 6.06019 11.8428L6.06019 4.40725Z" fill="white" fill-opacity="0.7"/>
</g>
<defs>
<clipPath id="clip0_1511_3636">
<rect width="17" height="17" fill="white"/>
</clipPath>
</defs>
</svg>
