<svg width="18" height="18" viewBox="0 0 18 18" fill="none" xmlns="http://www.w3.org/2000/svg">
<g clip-path="url(#clip0_1048_3346)">
<circle cx="9" cy="9" r="9" fill="#1F8FEB"/>
<path d="M13.2204 7.82411C13.4091 6.56319 12.4483 5.8854 11.1345 5.43324L11.5607 3.72522L10.5201 3.46614L10.1052 5.1292C9.8316 5.06103 9.55066 4.99679 9.27143 4.93311L9.68934 3.25908L8.64937 3L8.22293 4.70747C7.99654 4.65597 7.77418 4.60507 7.55846 4.55144L7.55966 4.54607L6.12462 4.18802L5.84781 5.29852C5.84781 5.29852 6.61986 5.47534 6.60359 5.48623C7.02498 5.59131 7.10119 5.87002 7.08853 6.09094L6.60303 8.03678C6.63205 8.04414 6.66969 8.0548 6.71122 8.07147C6.6765 8.06285 6.63956 8.05345 6.60122 8.04428L5.92072 10.7701C5.86922 10.898 5.73851 11.09 5.44389 11.0171C5.45432 11.0322 4.68755 10.8285 4.68755 10.8285L4.1709 12.0187L5.5251 12.356C5.77702 12.4191 6.0239 12.4852 6.26702 12.5473L5.8364 14.2749L6.87582 14.534L7.30227 12.8247C7.58622 12.9017 7.86179 12.9727 8.13156 13.0397L7.70655 14.7409L8.74722 15L9.17779 13.2756C10.9523 13.6112 12.2865 13.4759 12.8482 11.8722C13.3007 10.5811 12.8256 9.83641 11.8921 9.35078C12.572 9.1941 13.0842 8.74727 13.2207 7.82425L13.2204 7.82402L13.2204 7.82411ZM10.8428 11.1552C10.5212 12.4463 8.34548 11.7484 7.64008 11.5734L8.21152 9.28459C8.91687 9.46054 11.1789 9.80872 10.8428 11.1552H10.8428ZM11.1646 7.8054C10.8712 8.97981 9.06038 8.38316 8.47295 8.23685L8.99104 6.16105C9.57847 6.30736 11.4702 6.58042 11.1647 7.8054H11.1646Z" fill="white"/>
</g>
<defs>
<clipPath id="clip0_1048_3346">
<rect width="18" height="18" fill="white"/>
</clipPath>
</defs>
</svg>
