<svg width="244" height="48" viewBox="0 0 244 48" fill="none" xmlns="http://www.w3.org/2000/svg">
<path fill-rule="evenodd" clip-rule="evenodd" d="M28.9239 0.0468767H34.4444C36.3353 0.0468334 37.9262 0.0467963 39.2285 0.154246C40.5907 0.26664 41.8883 0.510922 43.1209 1.14512C44.9983 2.11116 46.5248 3.65263 47.4814 5.54859C48.1094 6.79327 48.3513 8.10363 48.4626 9.47927C48.569 10.7944 48.569 12.401 48.5689 14.3106V19.5983C48.569 21.5078 48.569 23.1145 48.4626 24.4296C48.3513 25.8052 48.1094 27.1156 47.4814 28.3603C46.5248 30.2562 44.9983 31.7977 43.1209 32.7637C41.8883 33.3979 40.5907 33.6422 39.2285 33.7546C37.9262 33.8621 36.3352 33.862 34.4443 33.862H17.9585C16.8005 33.862 15.7555 33.1604 15.3074 32.0821C14.8594 31.0038 15.0956 29.7592 15.9069 28.9247L29.5209 14.9205L33.6242 18.9883L24.8098 28.0553H34.3292C36.3656 28.0553 37.7201 28.0531 38.7603 27.9673C39.7669 27.8842 40.2235 27.7376 40.5104 27.59C41.3059 27.1806 41.9527 26.5275 42.3581 25.7241C42.5042 25.4344 42.6494 24.9733 42.7317 23.9567C42.8167 22.9063 42.8189 21.5385 42.8189 19.482V14.4268C42.8189 12.3703 42.8167 11.0026 42.7317 9.95211C42.6494 8.93556 42.5042 8.47443 42.3581 8.18474C41.9527 7.38137 41.3059 6.72821 40.5104 6.31887C40.2235 6.17127 39.7669 6.02465 38.7603 5.94159C37.7201 5.85577 36.3656 5.85351 34.3292 5.85351H29.0399C26.9811 5.85351 25.6109 5.85579 24.5593 5.94299C23.5408 6.02744 23.0804 6.17654 22.7926 6.32599C21.9923 6.74152 21.3441 7.40408 20.9424 8.21729C20.798 8.50976 20.6559 8.97646 20.5848 10.0059C20.5112 11.0689 20.5257 12.4525 20.5508 14.5314L20.5796 16.919L14.83 16.9898L14.7998 14.485C14.7764 12.5541 14.7568 10.9305 14.8487 9.6013C14.9448 8.21168 15.1742 6.88633 15.797 5.62539C16.745 3.70622 18.2747 2.14257 20.1634 1.16192C21.4044 0.517607 22.7139 0.26983 24.0887 0.155836C25.4038 0.0467959 27.0116 0.0468331 28.9239 0.0468767Z" fill="url(#paint0_linear_2127_2179)"/>
<path fill-rule="evenodd" clip-rule="evenodd" d="M28.9239 0.0468767H34.4444C36.3353 0.0468334 37.9262 0.0467963 39.2285 0.154246C40.5907 0.26664 41.8883 0.510922 43.1209 1.14512C44.9983 2.11116 46.5248 3.65263 47.4814 5.54859C48.1094 6.79327 48.3513 8.10363 48.4626 9.47927C48.569 10.7944 48.569 12.401 48.5689 14.3106V19.5983C48.569 21.5078 48.569 23.1145 48.4626 24.4296C48.3513 25.8052 48.1094 27.1156 47.4814 28.3603C46.5248 30.2562 44.9983 31.7977 43.1209 32.7637C41.8883 33.3979 40.5907 33.6422 39.2285 33.7546C37.9262 33.8621 36.3352 33.862 34.4443 33.862H17.9585C16.8005 33.862 15.7555 33.1604 15.3074 32.0821C14.8594 31.0038 15.0956 29.7592 15.9069 28.9247L29.5209 14.9205L33.6242 18.9883L24.8098 28.0553H34.3292C36.3656 28.0553 37.7201 28.0531 38.7603 27.9673C39.7669 27.8842 40.2235 27.7376 40.5104 27.59C41.3059 27.1806 41.9527 26.5275 42.3581 25.7241C42.5042 25.4344 42.6494 24.9733 42.7317 23.9567C42.8167 22.9063 42.8189 21.5385 42.8189 19.482V14.4268C42.8189 12.3703 42.8167 11.0026 42.7317 9.95211C42.6494 8.93556 42.5042 8.47443 42.3581 8.18474C41.9527 7.38137 41.3059 6.72821 40.5104 6.31887C40.2235 6.17127 39.7669 6.02465 38.7603 5.94159C37.7201 5.85577 36.3656 5.85351 34.3292 5.85351H29.0399C26.9811 5.85351 25.6109 5.85579 24.5593 5.94299C23.5408 6.02744 23.0804 6.17654 22.7926 6.32599C21.9923 6.74152 21.3441 7.40408 20.9424 8.21729C20.798 8.50976 20.6559 8.97646 20.5848 10.0059C20.5112 11.0689 20.5257 12.4525 20.5508 14.5314L20.5796 16.919L14.83 16.9898L14.7998 14.485C14.7764 12.5541 14.7568 10.9305 14.8487 9.6013C14.9448 8.21168 15.1742 6.88633 15.797 5.62539C16.745 3.70622 18.2747 2.14257 20.1634 1.16192C21.4044 0.517607 22.7139 0.26983 24.0887 0.155836C25.4038 0.0467959 27.0116 0.0468331 28.9239 0.0468767Z" fill="url(#paint1_radial_2127_2179)"/>
<path fill-rule="evenodd" clip-rule="evenodd" d="M28.9239 0.0468767H34.4444C36.3353 0.0468334 37.9262 0.0467963 39.2285 0.154246C40.5907 0.26664 41.8883 0.510922 43.1209 1.14512C44.9983 2.11116 46.5248 3.65263 47.4814 5.54859C48.1094 6.79327 48.3513 8.10363 48.4626 9.47927C48.569 10.7944 48.569 12.401 48.5689 14.3106V19.5983C48.569 21.5078 48.569 23.1145 48.4626 24.4296C48.3513 25.8052 48.1094 27.1156 47.4814 28.3603C46.5248 30.2562 44.9983 31.7977 43.1209 32.7637C41.8883 33.3979 40.5907 33.6422 39.2285 33.7546C37.9262 33.8621 36.3352 33.862 34.4443 33.862H17.9585C16.8005 33.862 15.7555 33.1604 15.3074 32.0821C14.8594 31.0038 15.0956 29.7592 15.9069 28.9247L29.5209 14.9205L33.6242 18.9883L24.8098 28.0553H34.3292C36.3656 28.0553 37.7201 28.0531 38.7603 27.9673C39.7669 27.8842 40.2235 27.7376 40.5104 27.59C41.3059 27.1806 41.9527 26.5275 42.3581 25.7241C42.5042 25.4344 42.6494 24.9733 42.7317 23.9567C42.8167 22.9063 42.8189 21.5385 42.8189 19.482V14.4268C42.8189 12.3703 42.8167 11.0026 42.7317 9.95211C42.6494 8.93556 42.5042 8.47443 42.3581 8.18474C41.9527 7.38137 41.3059 6.72821 40.5104 6.31887C40.2235 6.17127 39.7669 6.02465 38.7603 5.94159C37.7201 5.85577 36.3656 5.85351 34.3292 5.85351H29.0399C26.9811 5.85351 25.6109 5.85579 24.5593 5.94299C23.5408 6.02744 23.0804 6.17654 22.7926 6.32599C21.9923 6.74152 21.3441 7.40408 20.9424 8.21729C20.798 8.50976 20.6559 8.97646 20.5848 10.0059C20.5112 11.0689 20.5257 12.4525 20.5508 14.5314L20.5796 16.919L14.83 16.9898L14.7998 14.485C14.7764 12.5541 14.7568 10.9305 14.8487 9.6013C14.9448 8.21168 15.1742 6.88633 15.797 5.62539C16.745 3.70622 18.2747 2.14257 20.1634 1.16192C21.4044 0.517607 22.7139 0.26983 24.0887 0.155836C25.4038 0.0467959 27.0116 0.0468331 28.9239 0.0468767Z" fill="url(#paint2_radial_2127_2179)"/>
<path fill-rule="evenodd" clip-rule="evenodd" d="M28.9239 0.0468767H34.4444C36.3353 0.0468334 37.9262 0.0467963 39.2285 0.154246C40.5907 0.26664 41.8883 0.510922 43.1209 1.14512C44.9983 2.11116 46.5248 3.65263 47.4814 5.54859C48.1094 6.79327 48.3513 8.10363 48.4626 9.47927C48.569 10.7944 48.569 12.401 48.5689 14.3106V19.5983C48.569 21.5078 48.569 23.1145 48.4626 24.4296C48.3513 25.8052 48.1094 27.1156 47.4814 28.3603C46.5248 30.2562 44.9983 31.7977 43.1209 32.7637C41.8883 33.3979 40.5907 33.6422 39.2285 33.7546C37.9262 33.8621 36.3352 33.862 34.4443 33.862H17.9585C16.8005 33.862 15.7555 33.1604 15.3074 32.0821C14.8594 31.0038 15.0956 29.7592 15.9069 28.9247L29.5209 14.9205L33.6242 18.9883L24.8098 28.0553H34.3292C36.3656 28.0553 37.7201 28.0531 38.7603 27.9673C39.7669 27.8842 40.2235 27.7376 40.5104 27.59C41.3059 27.1806 41.9527 26.5275 42.3581 25.7241C42.5042 25.4344 42.6494 24.9733 42.7317 23.9567C42.8167 22.9063 42.8189 21.5385 42.8189 19.482V14.4268C42.8189 12.3703 42.8167 11.0026 42.7317 9.95211C42.6494 8.93556 42.5042 8.47443 42.3581 8.18474C41.9527 7.38137 41.3059 6.72821 40.5104 6.31887C40.2235 6.17127 39.7669 6.02465 38.7603 5.94159C37.7201 5.85577 36.3656 5.85351 34.3292 5.85351H29.0399C26.9811 5.85351 25.6109 5.85579 24.5593 5.94299C23.5408 6.02744 23.0804 6.17654 22.7926 6.32599C21.9923 6.74152 21.3441 7.40408 20.9424 8.21729C20.798 8.50976 20.6559 8.97646 20.5848 10.0059C20.5112 11.0689 20.5257 12.4525 20.5508 14.5314L20.5796 16.919L14.83 16.9898L14.7998 14.485C14.7764 12.5541 14.7568 10.9305 14.8487 9.6013C14.9448 8.21168 15.1742 6.88633 15.797 5.62539C16.745 3.70622 18.2747 2.14257 20.1634 1.16192C21.4044 0.517607 22.7139 0.26983 24.0887 0.155836C25.4038 0.0467959 27.0116 0.0468331 28.9239 0.0468767Z" fill="url(#paint3_radial_2127_2179)"/>
<path fill-rule="evenodd" clip-rule="evenodd" d="M10.771 41.9725C11.8112 42.0583 13.1656 42.0605 15.2021 42.0605H20.58C22.437 42.0605 23.6719 42.0587 24.6232 41.9869C25.5451 41.9174 25.9679 41.7944 26.2327 41.6717C27.1526 41.2455 27.8906 40.5002 28.3127 39.5712C28.4341 39.3038 28.556 38.8769 28.6248 37.9459C28.6959 36.9852 28.6977 35.7381 28.6977 33.8629H34.4478L34.4478 33.9689C34.4478 35.7103 34.4478 37.1755 34.3589 38.3782C34.266 39.6348 34.0645 40.8357 33.539 41.9924C32.543 44.1848 30.8013 45.9437 28.6302 46.9495C27.4848 47.4801 26.2956 47.6837 25.0513 47.7775C23.8603 47.8673 22.4094 47.8672 20.685 47.8672L15.0868 47.8672C13.196 47.8672 11.605 47.8673 10.3027 47.7598C8.94052 47.6474 7.64294 47.4031 6.41039 46.7689C4.53291 45.8029 3.00647 44.2614 2.04985 42.3655C1.42183 41.1208 1.17994 39.8104 1.06863 38.4348C0.962231 37.1197 0.962269 35.5131 0.962315 33.6035V28.3158C0.962269 26.4062 0.962231 24.7996 1.06863 23.4845C1.17994 22.1088 1.42183 20.7985 2.04985 19.5538C3.00647 17.6578 4.53291 16.1164 6.41039 15.1503C7.64294 14.5161 8.94052 14.2718 10.3027 14.1594C11.6051 14.052 13.196 14.052 15.0869 14.0521H31.5727C33.1606 14.0521 34.4478 15.3519 34.4478 16.9554C34.4478 18.5589 33.1606 19.8587 31.5727 19.8587H15.2021C13.1656 19.8587 11.8112 19.861 10.771 19.9468C9.76434 20.0299 9.3077 20.1765 9.02085 20.3241C8.2253 20.7334 7.57851 21.3866 7.17316 22.1899C7.027 22.4796 6.88181 22.9408 6.79956 23.9573C6.71457 25.0078 6.71234 26.3755 6.71234 28.432V33.4872C6.71234 35.5437 6.71457 36.9115 6.79956 37.962C6.88181 38.9785 7.027 39.4396 7.17316 39.7293C7.57851 40.5327 8.2253 41.1859 9.02085 41.5952C9.3077 41.7428 9.76434 41.8894 10.771 41.9725Z" fill="url(#paint4_linear_2127_2179)"/>
<path fill-rule="evenodd" clip-rule="evenodd" d="M10.771 41.9725C11.8112 42.0583 13.1656 42.0605 15.2021 42.0605H20.58C22.437 42.0605 23.6719 42.0587 24.6232 41.9869C25.5451 41.9174 25.9679 41.7944 26.2327 41.6717C27.1526 41.2455 27.8906 40.5002 28.3127 39.5712C28.4341 39.3038 28.556 38.8769 28.6248 37.9459C28.6959 36.9852 28.6977 35.7381 28.6977 33.8629H34.4478L34.4478 33.9689C34.4478 35.7103 34.4478 37.1755 34.3589 38.3782C34.266 39.6348 34.0645 40.8357 33.539 41.9924C32.543 44.1848 30.8013 45.9437 28.6302 46.9495C27.4848 47.4801 26.2956 47.6837 25.0513 47.7775C23.8603 47.8673 22.4094 47.8672 20.685 47.8672L15.0868 47.8672C13.196 47.8672 11.605 47.8673 10.3027 47.7598C8.94052 47.6474 7.64294 47.4031 6.41039 46.7689C4.53291 45.8029 3.00647 44.2614 2.04985 42.3655C1.42183 41.1208 1.17994 39.8104 1.06863 38.4348C0.962231 37.1197 0.962269 35.5131 0.962315 33.6035V28.3158C0.962269 26.4062 0.962231 24.7996 1.06863 23.4845C1.17994 22.1088 1.42183 20.7985 2.04985 19.5538C3.00647 17.6578 4.53291 16.1164 6.41039 15.1503C7.64294 14.5161 8.94052 14.2718 10.3027 14.1594C11.6051 14.052 13.196 14.052 15.0869 14.0521H31.5727C33.1606 14.0521 34.4478 15.3519 34.4478 16.9554C34.4478 18.5589 33.1606 19.8587 31.5727 19.8587H15.2021C13.1656 19.8587 11.8112 19.861 10.771 19.9468C9.76434 20.0299 9.3077 20.1765 9.02085 20.3241C8.2253 20.7334 7.57851 21.3866 7.17316 22.1899C7.027 22.4796 6.88181 22.9408 6.79956 23.9573C6.71457 25.0078 6.71234 26.3755 6.71234 28.432V33.4872C6.71234 35.5437 6.71457 36.9115 6.79956 37.962C6.88181 38.9785 7.027 39.4396 7.17316 39.7293C7.57851 40.5327 8.2253 41.1859 9.02085 41.5952C9.3077 41.7428 9.76434 41.8894 10.771 41.9725Z" fill="url(#paint5_radial_2127_2179)"/>
<path d="M78.3377 32.1507V35.1112C78.3377 35.5338 77.9962 35.8789 77.5753 35.8789H61.2968C61.2744 35.8789 61.2495 35.8789 61.2271 35.8764C60.4102 35.8538 59.6922 35.4312 59.2586 34.7963C59.2561 34.7912 59.2539 34.7861 59.2489 34.7814C59.0508 34.4461 58.937 34.0538 58.937 33.6309C58.937 33.1635 59.078 32.7334 59.3182 32.3732C59.3381 32.3433 59.358 32.3134 59.38 32.2857L71.7413 15.005H60.6703C60.2519 15.005 59.9101 14.6599 59.9101 14.2348V11.2768C59.9101 10.8517 60.2519 10.5066 60.6703 10.5066H76.186C76.2034 10.5066 76.2207 10.5066 76.238 10.5091C76.2428 10.5091 76.2503 10.5066 76.2579 10.5091C77.1023 10.5317 77.8427 10.9867 78.2684 11.6643C78.2734 11.6719 78.2759 11.6767 78.2785 11.6818C78.4516 12.0018 78.548 12.367 78.548 12.7545C78.548 13.2194 78.4071 13.6521 78.1668 14.0122C78.1473 14.0422 78.1274 14.0699 78.105 14.0998L65.7415 31.383H77.5753C77.9962 31.383 78.3377 31.7281 78.3377 32.1507Z" fill="white"/>
<path d="M88.7495 32.0777C85.9611 32.0777 83.9333 29.8848 83.9333 26.8517C83.9333 23.7809 85.9611 21.5881 88.7495 21.5881C91.535 21.5881 93.5259 23.7809 93.5259 26.8517C93.5259 29.8848 91.535 32.0777 88.7495 32.0777ZM97.473 17.8222H94.2886C93.8677 17.8222 93.5259 18.1674 93.5259 18.5902V20.708C92.0798 18.6625 89.8364 17.4548 87.229 17.4548C82.522 17.4548 79.0825 21.4056 79.0825 26.8517C79.0825 32.2977 82.522 36.2109 87.229 36.2109C89.8364 36.2109 92.0798 35.0058 93.5259 32.9928V35.0758C93.5259 35.5206 93.885 35.8807 94.3233 35.8807H97.473C97.9138 35.8807 98.2704 35.5206 98.2704 35.0758V18.625C98.2704 18.1824 97.9138 17.8222 97.473 17.8222Z" fill="white"/>
<path d="M112.472 17.4546C110.009 17.4546 107.981 18.6244 106.823 20.5632V18.5888C106.823 18.0771 106.534 17.8211 106.063 17.8211H102.876C102.407 17.8211 102.118 18.0771 102.118 18.5888V35.0759C102.118 35.5876 102.407 35.8809 102.876 35.8809H106.063C106.534 35.8809 106.823 35.5876 106.823 35.0759V25.2785C106.823 22.8656 108.344 21.2573 110.624 21.2573C112.833 21.2573 114.318 22.8656 114.318 25.2785V35.0759C114.318 35.5204 114.674 35.8809 115.113 35.8809H118.264C118.703 35.8809 119.06 35.5204 119.06 35.0759V24.5847C119.06 20.3792 116.344 17.4546 112.472 17.4546Z" fill="white"/>
<path d="M131.356 32.0777C128.568 32.0777 126.579 29.8848 126.579 26.8517C126.579 23.7809 128.568 21.5881 131.356 21.5881C134.181 21.5881 136.172 23.7809 136.172 26.8517C136.172 29.8848 134.181 32.0777 131.356 32.0777ZM131.393 17.4548C125.782 17.4548 121.726 21.4056 121.726 26.8517C121.726 32.2977 125.782 36.2109 131.393 36.2109C136.969 36.2109 141.023 32.2977 141.023 26.8517C141.023 21.4056 136.969 17.4548 131.393 17.4548Z" fill="white"/>
<path d="M149.142 10.4707H167.382C167.678 10.4707 167.9 10.6927 167.9 11.0257V12.6167C167.9 12.9867 167.715 13.1717 167.382 13.1717H159.76V35.4827C159.76 35.8157 159.575 36.0007 159.242 36.0007H157.281C156.948 36.0007 156.763 35.8157 156.763 35.4827V13.1717H149.142C148.809 13.1717 148.624 12.9867 148.624 12.6167V11.0257C148.624 10.6927 148.809 10.4707 149.142 10.4707Z" fill="#1F8FEB"/>
<path d="M176.923 17.5007C177.256 17.4267 177.478 17.6487 177.478 17.9817V19.7207C177.478 20.0537 177.293 20.2387 176.923 20.2757C172.816 20.4237 170.448 22.7917 170.448 26.8247V35.4827C170.448 35.7787 170.263 36.0007 169.893 36.0007H168.154C167.784 36.0007 167.599 35.8157 167.599 35.4827V18.4257C167.599 18.0927 167.784 17.8707 168.154 17.8707H169.893C170.263 17.8707 170.448 18.0927 170.448 18.4257V22.2737C171.558 19.3877 173.778 17.7227 176.923 17.5007Z" fill="#1F8FEB"/>
<path d="M195.462 17.8707H197.238C197.571 17.8707 197.756 18.0927 197.756 18.4257V35.4827C197.756 35.8157 197.571 36.0007 197.238 36.0007H195.462C195.129 36.0007 194.944 35.8157 194.944 35.4827V32.6707C193.353 34.9277 190.8 36.3337 187.692 36.3337C182.475 36.3337 178.701 32.3747 178.701 26.9357C178.701 21.4967 182.475 17.5747 187.692 17.5747C190.8 17.5747 193.353 18.9437 194.944 21.2007V18.4257C194.944 18.0927 195.129 17.8707 195.462 17.8707ZM188.284 33.8547C192.132 33.8547 194.944 30.9687 194.944 26.9357C194.944 22.9397 192.132 20.0537 188.284 20.0537C184.399 20.0537 181.587 22.9397 181.587 26.9357C181.587 30.9687 184.399 33.8547 188.284 33.8547Z" fill="#1F8FEB"/>
<path d="M218.297 10.4707H220.073C220.406 10.4707 220.591 10.6927 220.591 11.0257V35.4827C220.591 35.7787 220.406 36.0007 220.073 36.0007H218.297C217.964 36.0007 217.779 35.8157 217.779 35.4827V32.6707C216.188 34.9277 213.635 36.3337 210.527 36.3337C205.31 36.3337 201.537 32.3747 201.537 26.9357C201.537 21.4967 205.31 17.5747 210.527 17.5747C213.635 17.5747 216.188 18.9437 217.779 21.2007V11.0257C217.779 10.6927 217.964 10.4707 218.297 10.4707ZM211.119 33.8547C214.967 33.8547 217.779 30.9687 217.779 26.9357C217.779 22.9397 214.967 20.0537 211.119 20.0537C207.234 20.0537 204.422 22.9397 204.422 26.9357C204.422 30.9687 207.234 33.8547 211.119 33.8547Z" fill="#1F8FEB"/>
<path d="M243.5 26.9357C243.5 27.4167 243.463 27.7497 242.908 27.7497H227.147C227.517 31.4127 230.254 34.0027 233.991 34.0027C236.84 34.0027 239.356 32.1897 240.244 29.5997C240.355 29.4517 240.466 29.3777 240.725 29.3777H242.575C242.982 29.3777 243.167 29.6367 243.019 30.0067C241.835 33.7067 238.172 36.3337 233.954 36.3337C228.404 36.3337 224.372 32.3747 224.372 26.9357C224.372 21.4967 228.404 17.5747 233.954 17.5747C239.504 17.5747 243.5 21.4597 243.5 26.9357ZM233.991 19.9057C230.439 19.9057 227.739 22.2367 227.221 25.6407H240.836C240.318 22.2737 237.543 19.9057 233.991 19.9057Z" fill="#1F8FEB"/>
<rect x="101" y="3" width="44" height="11" rx="5.5" fill="url(#paint6_linear_2127_2179)"/>
<path d="M106.652 11.5V6.892H104.844V5.828H109.612V6.892H107.804V11.5H106.652ZM110.345 11.5V5.828H114.465V6.852H111.441V8.22H113.985V9.188H111.441V10.484H114.593V11.5H110.345ZM117.551 11.612C117.066 11.612 116.642 11.572 116.279 11.492C115.922 11.4067 115.538 11.2707 115.127 11.084L115.559 10.108C116.247 10.4387 116.892 10.604 117.495 10.604C117.815 10.604 118.06 10.548 118.231 10.436C118.407 10.3187 118.495 10.148 118.495 9.924C118.495 9.716 118.402 9.56133 118.215 9.46C118.034 9.35333 117.727 9.26 117.295 9.18C116.954 9.11067 116.666 9.036 116.431 8.956C116.202 8.876 115.988 8.772 115.791 8.644C115.594 8.51067 115.447 8.34533 115.351 8.148C115.255 7.95067 115.207 7.716 115.207 7.444C115.207 6.916 115.388 6.49733 115.751 6.188C116.114 5.87867 116.642 5.724 117.335 5.724C118.156 5.724 118.868 5.87067 119.471 6.164L118.999 7.116C118.45 6.87067 117.898 6.748 117.343 6.748C117.034 6.748 116.794 6.80667 116.623 6.924C116.458 7.04133 116.375 7.19067 116.375 7.372C116.375 7.58 116.479 7.73467 116.687 7.836C116.895 7.932 117.252 8.036 117.759 8.148C118.068 8.212 118.327 8.28133 118.535 8.356C118.743 8.43067 118.94 8.532 119.127 8.66C119.314 8.78267 119.452 8.94267 119.543 9.14C119.634 9.33733 119.679 9.56933 119.679 9.836C119.679 10.4227 119.498 10.8653 119.135 11.164C118.778 11.4627 118.25 11.612 117.551 11.612ZM121.809 11.5V6.892H120.001V5.828H124.769V6.892H122.961V11.5H121.809ZM129.469 5.828H130.589V11.532H130.005L126.621 7.932V11.5H125.501V5.796H126.069L129.469 9.396V5.828ZM131.673 11.5V5.828H135.793V6.852H132.769V8.22H135.313V9.188H132.769V10.484H135.921V11.5H131.673ZM138.199 11.5V6.892H136.391V5.828H141.159V6.892H139.351V11.5H138.199Z" fill="white"/>
<defs>
<linearGradient id="paint0_linear_2127_2179" x1="23.6458" y1="33.5994" x2="24.0299" y2="0.00380616" gradientUnits="userSpaceOnUse">
<stop offset="0.43118" stop-color="#498FFD"/>
<stop offset="1" stop-color="#16D1D6"/>
</linearGradient>
<radialGradient id="paint1_radial_2127_2179" cx="0" cy="0" r="1" gradientUnits="userSpaceOnUse" gradientTransform="translate(14.3814 10.2851) rotate(-15.561) scale(21.727 21.6786)">
<stop stop-color="#18CFD7"/>
<stop offset="1" stop-color="#18CFD7" stop-opacity="0"/>
</radialGradient>
<radialGradient id="paint2_radial_2127_2179" cx="0" cy="0" r="1" gradientUnits="userSpaceOnUse" gradientTransform="translate(27.077 19.8851) rotate(152.372) scale(8.13294 8.11663)">
<stop stop-color="#4990FE"/>
<stop offset="0.353962" stop-color="#4990FE"/>
<stop offset="1" stop-color="#4990FE" stop-opacity="0"/>
</radialGradient>
<radialGradient id="paint3_radial_2127_2179" cx="0" cy="0" r="1" gradientUnits="userSpaceOnUse" gradientTransform="translate(17.1264 30.8566) rotate(-45.9169) scale(14.7962 14.7735)">
<stop stop-color="#4990FE"/>
<stop offset="0.405688" stop-color="#4990FE"/>
<stop offset="1" stop-color="#4990FE" stop-opacity="0"/>
</radialGradient>
<linearGradient id="paint4_linear_2127_2179" x1="34.6259" y1="48.0004" x2="34.7494" y2="13.7151" gradientUnits="userSpaceOnUse">
<stop stop-color="#2950FF"/>
<stop offset="0.821717" stop-color="#498FFD"/>
</linearGradient>
<radialGradient id="paint5_radial_2127_2179" cx="0" cy="0" r="1" gradientUnits="userSpaceOnUse" gradientTransform="translate(34.6259 33.6004) rotate(129.311) scale(14.6233 14.4717)">
<stop offset="0.337169" stop-color="#2950FF"/>
<stop offset="0.792226" stop-color="#2950FF" stop-opacity="0"/>
</radialGradient>
<linearGradient id="paint6_linear_2127_2179" x1="101" y1="14" x2="111.295" y2="-10.9229" gradientUnits="userSpaceOnUse">
<stop stop-color="#4D89FF"/>
<stop offset="1" stop-color="#16D1D6"/>
</linearGradient>
</defs>
</svg>
