<svg width="30" height="30" viewBox="0 0 30 30" fill="none" xmlns="http://www.w3.org/2000/svg">
<path fill-rule="evenodd" clip-rule="evenodd" d="M17.4846 0.777345H20.783C21.9128 0.777319 22.8634 0.777297 23.6415 0.841211C24.4554 0.908067 25.2307 1.05337 25.9671 1.43061C27.0889 2.00525 28.0009 2.92216 28.5725 4.04993C28.9477 4.79031 29.0922 5.56975 29.1587 6.38802C29.2223 7.17031 29.2223 8.12597 29.2223 9.26183V12.4071C29.2223 13.543 29.2223 14.4987 29.1587 15.2809C29.0922 16.0992 28.9477 16.8786 28.5725 17.619C28.0009 18.7468 27.0889 19.6637 25.9671 20.2383C25.2307 20.6156 24.4554 20.7609 23.6415 20.8277C22.8633 20.8917 21.9128 20.8916 20.783 20.8916H10.9329C10.241 20.8916 9.61667 20.4743 9.34894 19.8329C9.08122 19.1915 9.22239 18.4512 9.7071 17.9548L17.8413 9.62464L20.2929 12.0443L15.0265 17.4376H20.7142C21.9309 17.4376 22.7402 17.4363 23.3617 17.3853C23.9632 17.3359 24.236 17.2486 24.4074 17.1608C24.8827 16.9174 25.2692 16.5288 25.5114 16.051C25.5987 15.8786 25.6854 15.6044 25.7346 14.9997C25.7854 14.3748 25.7867 13.5612 25.7867 12.338V9.33099C25.7867 8.10771 25.7854 7.29412 25.7346 6.66928C25.6854 6.06461 25.5987 5.79031 25.5114 5.618C25.2692 5.14013 24.8827 4.75161 24.4074 4.50812C24.236 4.42032 23.9632 4.33311 23.3617 4.28371C22.7402 4.23265 21.9309 4.23131 20.7142 4.23131H17.5539C16.3238 4.23131 15.5051 4.23267 14.8768 4.28454C14.2683 4.33477 13.9932 4.42346 13.8212 4.51235C13.343 4.75952 12.9558 5.15364 12.7158 5.63736C12.6295 5.81133 12.5446 6.08893 12.5021 6.70126C12.4581 7.33357 12.4668 8.1566 12.4818 9.39318L12.499 10.8134L9.06369 10.8555L9.04562 9.36559C9.03166 8.21704 9.01992 7.25128 9.07485 6.46061C9.13227 5.63402 9.26932 4.84566 9.64147 4.09562C10.2079 2.95404 11.1218 2.02393 12.2503 1.4406C12.9918 1.05735 13.7742 0.909964 14.5956 0.842157C15.3814 0.777297 16.3421 0.777319 17.4846 0.777345Z" fill="white"/>
<path fill-rule="evenodd" clip-rule="evenodd" d="M6.63837 25.7163C7.25988 25.7673 8.06914 25.7687 9.2859 25.7687H12.4992C13.6086 25.7687 14.3465 25.7676 14.9149 25.7249C15.4657 25.6836 15.7183 25.6103 15.8765 25.5374C16.4262 25.2839 16.8672 24.8406 17.1193 24.288C17.1919 24.1289 17.2647 23.875 17.3058 23.3212C17.3483 22.7497 17.3494 22.0079 17.3494 20.8925H20.7849L20.7849 20.9555C20.785 21.9914 20.785 22.8629 20.7319 23.5783C20.6764 24.3258 20.5559 25.0401 20.242 25.7281C19.6469 27.0323 18.6062 28.0785 17.309 28.6768C16.6247 28.9924 15.9141 29.1135 15.1707 29.1693C14.4591 29.2227 13.5922 29.2227 12.5619 29.2227L9.21705 29.2227C8.08727 29.2227 7.13671 29.2227 6.35861 29.1588C5.5447 29.0919 4.76941 28.9466 4.03298 28.5694C2.91121 27.9948 1.99918 27.0778 1.42761 25.9501C1.05238 25.2097 0.907848 24.4303 0.841347 23.612C0.777773 22.8297 0.777796 21.874 0.777822 20.7382V17.5929C0.777796 16.457 0.777773 15.5013 0.841347 14.7191C0.907848 13.9008 1.05238 13.1213 1.42761 12.381C1.99918 11.2532 2.91121 10.3363 4.03298 9.76165C4.76941 9.38441 5.5447 9.23911 6.35861 9.17225C7.13673 9.10834 8.0873 9.10836 9.2171 9.10839H19.0672C20.0159 9.10839 20.7849 9.88158 20.7849 10.8354C20.7849 11.7892 20.0159 12.5623 19.0672 12.5623H9.2859C8.06914 12.5623 7.25988 12.5637 6.63838 12.6147C6.03692 12.6641 5.76409 12.7514 5.59269 12.8392C5.11737 13.0826 4.73091 13.4712 4.48872 13.949C4.40139 14.1214 4.31464 14.3956 4.2655 15.0003C4.21472 15.6252 4.21339 16.4388 4.21339 17.662V20.669C4.21339 21.8923 4.21472 22.7059 4.2655 23.3307C4.31464 23.9354 4.40139 24.2097 4.48872 24.382C4.73091 24.8599 5.11737 25.2484 5.59269 25.4919C5.76409 25.5797 6.03692 25.6669 6.63837 25.7163Z" fill="white"/>
</svg>
